SplineFontDB: 3.2
FontName: Kodito
FullName: Kodito
FamilyName: Kodito
Weight: Regular
Copyright: Copyright (c) 2024, W.F.Turnip
UComments: "2024-2-27: Created with FontForge (http://fontforge.org)"
Version: 001.000
ItalicAngle: 0
UnderlinePosition: -100
UnderlineWidth: 50
Ascent: 800
Descent: 200
InvalidEm: 0
LayerCount: 2
Layer: 0 1 "+gMyXYgAA" 1
Layer: 1 1 "+Uk2XYgAA" 0
XUID: [1021 352 -730677569 13050500]
OS2Version: 0
OS2_WeightWidthSlopeOnly: 0
OS2_UseTypoMetrics: 1
CreationTime: 1709032616
ModificationTime: 1761104236
OS2TypoAscent: 0
OS2TypoAOffset: 1
OS2TypoDescent: 0
OS2TypoDOffset: 1
OS2TypoLinegap: 0
OS2WinAscent: 0
OS2WinAOffset: 1
OS2WinDescent: 0
OS2WinDOffset: 1
HheadAscent: 0
HheadAOffset: 1
HheadDescent: 0
HheadDOffset: 1
OS2Vendor: 'PfEd'
MarkAttachClasses: 1
DEI: 91125
Encoding: UnicodeBmp
UnicodeInterp: none
NameList: AGL For New Fonts
DisplaySize: -48
AntiAlias: 0
FitToEm: 0
WinInfo: 0 14 10
BeginPrivate: 0
EndPrivate
BeginChars: 65536 95

StartChar: exclam
Encoding: 33 33 1
Width: 500
Flags: W
LayerCount: 2
Fore
SplineSet
250 750 m 128,-1,1
 260 750 260 750 267.5 735.5 c 128,-1,2
 275 721 275 721 275 700 c 128,-1,3
 275 679 275 679 267.5 664.5 c 128,-1,4
 260 650 260 650 250 650 c 128,-1,5
 240 650 240 650 232.5 664.5 c 128,-1,6
 225 679 225 679 225 700 c 128,-1,7
 225 721 225 721 232.5 735.5 c 128,-1,0
 240 750 240 750 250 750 c 128,-1,1
250 -50 m 128,-1,9
 260 -50 260 -50 267.5 -64.5 c 128,-1,10
 275 -79 275 -79 275 -100 c 128,-1,11
 275 -121 275 -121 267.5 -135.5 c 128,-1,12
 260 -150 260 -150 250 -150 c 128,-1,13
 240 -150 240 -150 232.5 -135.5 c 128,-1,14
 225 -121 225 -121 225 -100 c 128,-1,15
 225 -79 225 -79 232.5 -64.5 c 128,-1,8
 240 -50 240 -50 250 -50 c 128,-1,9
EndSplineSet
EndChar

StartChar: quotedbl
Encoding: 34 34 2
Width: 500
Flags: W
LayerCount: 2
Fore
SplineSet
106.794921875 632.71484375 m 0,0,1
 107.74137931 632.849609375 107.74137931 632.849609375 108.58203125 632.849609375 c 0,2,3
 118.929873602 632.849609375 118.929873602 632.849609375 126.255859375 618.19921875 c 128,-1,4
 133.58203125 603.546875 133.58203125 603.546875 133.58203125 582.836914062 c 128,-1,5
 133.58203125 562.140625 133.58203125 562.140625 126.255859375 547.48828125 c 128,-1,6
 118.930175781 532.836914062 118.930175781 532.836914062 108.57421875 532.836914062 c 128,-1,7
 98.2260742188 532.836914062 98.2260742188 532.836914062 90.900390625 547.48828125 c 128,-1,8
 83.57421875 562.140625 83.57421875 562.140625 83.57421875 582.850585938 c 128,-1,9
 83.57421875 603.546875 83.57421875 603.546875 90.900390625 618.19921875 c 0,10,11
 97.4930486302 631.38453476 97.4930486302 631.38453476 106.794921875 632.71484375 c 0,0,1
387.509765625 632.2265625 m 0,12,13
 389.476257324 632.849609375 389.476257324 632.849609375 391.42578125 632.849609375 c 0,14,15
 401.773623602 632.849609375 401.773623602 632.849609375 409.099609375 618.19921875 c 128,-1,16
 416.42578125 603.546875 416.42578125 603.546875 416.42578125 582.836914062 c 128,-1,17
 416.42578125 562.140625 416.42578125 562.140625 409.099609375 547.48828125 c 128,-1,18
 401.773925781 532.836914062 401.773925781 532.836914062 391.41796875 532.836914062 c 128,-1,19
 381.069824219 532.836914062 381.069824219 532.836914062 373.744140625 547.48828125 c 128,-1,20
 366.41796875 562.140625 366.41796875 562.140625 366.41796875 582.850585938 c 128,-1,21
 366.41796875 603.546875 366.41796875 603.546875 373.744140625 618.19921875 c 0,22,23
 379.487176884 629.685291268 379.487176884 629.685291268 387.509765625 632.2265625 c 0,12,13
EndSplineSet
EndChar

StartChar: numbersign
Encoding: 35 35 3
Width: 500
Flags: W
LayerCount: 2
Fore
SplineSet
250 750 m 128,-1,1
 260 750 260 750 267.5 735.5 c 128,-1,2
 275 721 275 721 275 700 c 2,3,-1
 275 -100 l 2,4,5
 275 -121 275 -121 267.5 -135.5 c 128,-1,6
 260 -150 260 -150 250 -150 c 128,-1,7
 240 -150 240 -150 232.5 -135.5 c 128,-1,8
 225 -121 225 -121 225 -100 c 2,9,-1
 225 700 l 2,10,11
 225 721 225 721 232.5 735.5 c 128,-1,0
 240 750 240 750 250 750 c 128,-1,1
264.0546875 748.78125 m 0,12,13
 346.829287668 738.299979166 346.829287668 738.299979166 406.3984375 622.875 c 0,14,15
 407.835519154 620.725942866 407.835519154 620.725942866 409.099609375 618.19921875 c 0,16,17
 416.42578125 603.546875 416.42578125 603.546875 416.42578125 582.836914062 c 128,-1,18
 416.42578125 562.140625 416.42578125 562.140625 409.099609375 547.48828125 c 128,-1,19
 401.773925781 532.836914062 401.773925781 532.836914062 391.41796875 532.836914062 c 128,-1,20
 381.069824219 532.836914062 381.069824219 532.836914062 373.744140625 547.48828125 c 0,21,22
 349.520364705 595.936579885 349.520364705 595.936579885 317.53989417 622.993680568 c 128,-1,23
 285.559423634 650.05078125 285.559423634 650.05078125 249.975585938 650.05078125 c 128,-1,24
 214.397203326 650.05078125 214.397203326 650.05078125 182.440656743 622.9981555 c 128,-1,25
 150.484110159 595.945529751 150.484110159 595.945529751 126.255859375 547.48828125 c 0,26,27
 74.974609375 444.92578125 74.974609375 444.92578125 74.974609375 299.951171875 c 128,-1,28
 74.974609375 155.07421875 74.974609375 155.07421875 126.255859375 52.51171875 c 0,29,30
 150.479635295 4.06342011494 150.479635295 4.06342011494 182.46010583 -22.9936805675 c 128,-1,31
 214.440576366 -50.05078125 214.440576366 -50.05078125 250.024414062 -50.05078125 c 128,-1,32
 285.602796674 -50.05078125 285.602796674 -50.05078125 317.559343257 -22.9981555004 c 128,-1,33
 349.515889841 4.05447024929 349.515889841 4.05447024929 373.744140625 52.51171875 c 0,34,35
 381.069824219 67.1630859375 381.069824219 67.1630859375 391.42578125 67.1630859375 c 128,-1,36
 401.773925781 67.1630859375 401.773925781 67.1630859375 409.099609375 52.51171875 c 128,-1,37
 416.42578125 37.859375 416.42578125 37.859375 416.42578125 17.1494140625 c 128,-1,38
 416.42578125 -3.546875 416.42578125 -3.546875 409.099609375 -18.19921875 c 1,39,-1
 409.09765625 -18.1953125 l 0,40,41
 408.662477617 -19.0685904286 408.662477617 -19.0685904286 408.2109375 -19.890625 c 2,42,-1
 408.1953125 -19.91015625 l 1,43,44
 377.105305042 -81.4053560803 377.105305042 -81.4053560803 336.235216433 -115.711955384 c 128,-1,45
 295.365127824 -150.018554688 295.365127824 -150.018554688 249.947265625 -150.018554688 c 0,46,47
 204.211618576 -150.018554688 204.211618576 -150.018554688 163.13065653 -115.248394668 c 128,-1,48
 122.049694485 -80.4782346482 122.049694485 -80.4782346482 90.900390625 -18.1953125 c 0,49,50
 24.96875 113.66796875 24.96875 113.66796875 24.96875 300.064453125 c 128,-1,51
 24.96875 486.3359375 24.96875 486.3359375 90.900390625 618.19921875 c 0,52,53
 122.050470261 680.37311007 122.050470261 680.37311007 163.014328141 715.031769879 c 128,-1,54
 203.97818602 749.690429688 203.97818602 749.690429688 249.650390625 749.690429688 c 0,55,56
 256.879818024 749.690429688 256.879818024 749.690429688 264.0546875 748.78125 c 0,12,13
104.66796875 632.2265625 m 0,57,58
 106.634460449 632.849609375 106.634460449 632.849609375 108.58203125 632.849609375 c 0,59,60
 118.929873602 632.849609375 118.929873602 632.849609375 126.255859375 618.19921875 c 2,61,-1
 196.966796875 476.774305556 l 0,62,63
 267.677734375 335.349392361 267.677734375 335.349392361 338.388671875 193.927517361 c 128,-1,64
 409.099609375 52.5056423611 409.099609375 52.5056423611 409.099609375 52.51171875 c 1,65,66
 416.42578125 37.859375 416.42578125 37.859375 416.42578125 17.1494140625 c 128,-1,67
 416.42578125 -3.546875 416.42578125 -3.546875 409.099609375 -18.19921875 c 128,-1,68
 401.773925781 -32.8505859375 401.773925781 -32.8505859375 391.41796875 -32.8505859375 c 128,-1,69
 381.069824219 -32.8505859375 381.069824219 -32.8505859375 373.744140625 -18.19921875 c 2,70,-1
 303.033203125 123.225694444 l 0,71,72
 232.322265625 264.650607639 232.322265625 264.650607639 161.611328125 406.072482639 c 128,-1,73
 90.900390625 547.494357639 90.900390625 547.494357639 90.900390625 547.48828125 c 1,74,75
 83.57421875 562.140625 83.57421875 562.140625 83.57421875 582.850585938 c 128,-1,76
 83.57421875 603.546875 83.57421875 603.546875 90.900390625 618.19921875 c 0,77,78
 96.6451240435 629.687147506 96.6451240435 629.687147506 104.66796875 632.2265625 c 0,57,58
EndSplineSet
EndChar

StartChar: dollar
Encoding: 36 36 4
Width: 500
Flags: W
LayerCount: 2
Fore
SplineSet
250 750 m 128,-1,1
 260 750 260 750 267.5 735.5 c 128,-1,2
 275 721 275 721 275 700 c 2,3,-1
 275 -100 l 2,4,5
 275 -121 275 -121 267.5 -135.5 c 128,-1,6
 260 -150 260 -150 250 -150 c 128,-1,7
 240 -150 240 -150 232.5 -135.5 c 128,-1,8
 225 -121 225 -121 225 -100 c 2,9,-1
 225 700 l 2,10,11
 225 721 225 721 232.5 735.5 c 128,-1,0
 240 750 240 750 250 750 c 128,-1,1
104.66796875 632.2265625 m 0,12,13
 106.634460449 632.849609375 106.634460449 632.849609375 108.58203125 632.849609375 c 0,14,15
 118.929873602 632.849609375 118.929873602 632.849609375 126.255859375 618.19921875 c 2,16,-1
 196.966796875 476.774305556 l 0,17,18
 267.677734375 335.349392361 267.677734375 335.349392361 338.388671875 193.927517361 c 128,-1,19
 409.099609375 52.5056423611 409.099609375 52.5056423611 409.099609375 52.51171875 c 1,20,21
 416.42578125 37.859375 416.42578125 37.859375 416.42578125 17.1494140625 c 128,-1,22
 416.42578125 -3.546875 416.42578125 -3.546875 409.099609375 -18.19921875 c 128,-1,23
 401.773925781 -32.8505859375 401.773925781 -32.8505859375 391.41796875 -32.8505859375 c 128,-1,24
 381.069824219 -32.8505859375 381.069824219 -32.8505859375 373.744140625 -18.19921875 c 2,25,-1
 303.033203125 123.225694444 l 0,26,27
 232.322265625 264.650607639 232.322265625 264.650607639 161.611328125 406.072482639 c 128,-1,28
 90.900390625 547.494357639 90.900390625 547.494357639 90.900390625 547.48828125 c 1,29,30
 83.57421875 562.140625 83.57421875 562.140625 83.57421875 582.850585938 c 128,-1,31
 83.57421875 603.546875 83.57421875 603.546875 90.900390625 618.19921875 c 0,32,33
 96.6451240435 629.687147506 96.6451240435 629.687147506 104.66796875 632.2265625 c 0,12,13
262.255859375 748.75390625 m 0,34,-1
 262.614257812 748.754882812 l 0,35,36
 263.403808594 748.754394531 263.403808594 748.754394531 264.193359375 748.744140625 c 0,37,38
 279.665319644 746.729147205 279.665319644 746.729147205 294.861328125 740.484375 c 2,39,-1
 294.861328125 740.484375 l 0,40,-1
 295.583984375 740.274414062 l 1,41,42
 359.506834918 713.727837754 359.506834918 713.727837754 406.3984375 622.874023438 c 0,43,44
 406.993637754 621.902359022 406.993637754 621.902359022 407.53515625 620.90625 c 0,45,46
 408.359745261 619.490705532 408.359745261 619.490705532 409.099609375 618.196289062 c 2,47,-1
 409.1171875 618.15625 l 1,48,49
 416.423828125 603.509771118 416.423828125 603.509771118 416.423828125 582.83203125 c 128,-1,50
 416.423828125 562.13829963 416.423828125 562.13829963 409.099609375 547.48828125 c 128,-1,51
 401.775018461 532.8359375 401.775018461 532.8359375 391.418945312 532.8359375 c 128,-1,52
 381.0703125 532.8359375 381.0703125 532.8359375 373.744140625 547.48828125 c 0,53,54
 349.557169319 595.862969522 349.557169319 595.862969522 317.514534562 622.842129292 c 128,-1,55
 285.471899804 649.821289062 285.471899804 649.821289062 249.842773438 649.821289062 c 0,56,57
 193.013860282 649.821289062 193.013860282 649.821289062 147.135742188 583.15625 c 0,58,59
 135.994881475 566.964865765 135.994881475 566.964865765 126.255859375 547.48828125 c 0,60,61
 118.9296875 532.8359375 118.9296875 532.8359375 108.57421875 532.8359375 c 128,-1,62
 98.2249815393 532.8359375 98.2249815393 532.8359375 90.900390625 547.48828125 c 128,-1,63
 83.57421875 562.140625 83.57421875 562.140625 83.57421875 582.850585938 c 128,-1,64
 83.57421875 603.547851562 83.57421875 603.547851562 90.900390625 618.200195312 c 1,65,-1
 90.9033203125 618.196289062 l 1,66,-1
 90.943359375 618.272460938 l 0,67,68
 95.3893814792 626.399707766 95.3893814792 626.399707766 100.041015625 634.032226562 c 0,69,70
 107.476657061 648.00045406 107.476657061 648.00045406 115.517578125 660.57421875 c 0,71,72
 122.782741654 670.769474446 122.782741654 670.769474446 130.42578125 679.788085938 c 0,73,74
 136.160025167 687.589290735 136.160025167 687.589290735 142.138671875 694.688476562 c 0,75,76
 152.071213981 705.052739761 152.071213981 705.052739761 162.46484375 713.389648438 c 0,77,78
 166.634379752 717.364910259 166.634379752 717.364910259 170.900390625 721.0078125 c 0,79,80
 182.918922633 729.69422398 182.918922633 729.69422398 195.3671875 735.608398438 c 0,81,82
 198.31854516 737.404617125 198.31854516 737.404617125 201.234375 739.0078125 c 0,83,84
 215.020224852 744.920275078 215.020224852 744.920275078 229.078125 747.34375 c 0,85,86
 230.802035478 747.856941485 230.802035478 747.856941485 232.51953125 748.314453125 c 0,87,88
 240.837466236 749.5390625 240.837466236 749.5390625 248.868164062 749.5390625 c 0,89,90
 255.58644224 749.5390625 255.58644224 749.5390625 262.255859375 748.75390625 c 0,34,-1
108.578125 67.15625 m 128,-1,92
 118.93359375 67.15625 118.93359375 67.15625 126.255859375 52.51171875 c 0,93,94
 150.49333132 4.03677486032 150.49333132 4.03677486032 182.378604889 -22.9874719448 c 128,-1,95
 214.263878459 -50.01171875 214.263878459 -50.01171875 249.831054688 -50.01171875 c 0,96,97
 263.740849633 -50.01171875 263.740849633 -50.01171875 277.376953125 -45.6923828125 c 0,98,99
 333.537095682 -27.90083317 333.537095682 -27.90083317 373.744140625 52.51171875 c 0,100,101
 381.0703125 67.1640625 381.0703125 67.1640625 391.42578125 67.1640625 c 128,-1,102
 401.775018461 67.1640625 401.775018461 67.1640625 409.099609375 52.51171875 c 128,-1,103
 416.42578125 37.859375 416.42578125 37.859375 416.42578125 17.1494140625 c 128,-1,104
 416.42578125 -3.5478515625 416.42578125 -3.5478515625 409.099609375 -18.2001953125 c 1,105,-1
 409.096679688 -18.1943359375 l 1,106,-1
 409.056640625 -18.2744140625 l 0,107,108
 404.621054312 -26.3825844562 404.621054312 -26.3825844562 399.958984375 -34.0322265625 c 0,109,110
 392.523342939 -48.0004540599 392.523342939 -48.0004540599 384.482421875 -60.57421875 c 0,111,112
 377.217258346 -70.769474446 377.217258346 -70.769474446 369.57421875 -79.7880859375 c 0,113,114
 363.839974833 -87.5892907354 363.839974833 -87.5892907354 357.861328125 -94.6884765625 c 0,115,116
 347.928786019 -105.052739761 347.928786019 -105.052739761 337.53515625 -113.389648438 c 0,117,118
 333.345984895 -117.383630728 333.345984895 -117.383630728 329.099609375 -121.009765625 c 0,119,120
 317.081077367 -129.696177105 317.081077367 -129.696177105 304.6328125 -135.610351562 c 0,121,122
 301.714680938 -137.386348594 301.714680938 -137.386348594 298.765625 -139.0078125 c 0,123,124
 284.979775148 -144.920275078 284.979775148 -144.920275078 270.921875 -147.34375 c 0,125,126
 269.197964522 -147.856941485 269.197964522 -147.856941485 267.48046875 -148.314453125 c 0,127,128
 259.162533764 -149.5390625 259.162533764 -149.5390625 251.131835938 -149.5390625 c 0,129,130
 244.41355776 -149.5390625 244.41355776 -149.5390625 237.744140625 -148.75390625 c 0,131,-1
 237.385742188 -148.754882812 l 0,132,133
 236.596191406 -148.754394531 236.596191406 -148.754394531 235.806640625 -148.744140625 c 0,134,135
 220.334680356 -146.729147205 220.334680356 -146.729147205 205.138671875 -140.484375 c 2,136,-1
 205.138671875 -140.484375 l 0,137,-1
 204.416015625 -140.274414062 l 1,138,139
 140.493849364 -113.729591743 140.493849364 -113.729591743 93.6015625 -22.8759765625 c 0,140,141
 93.0133083194 -21.91657947 93.0133083194 -21.91657947 92.46484375 -20.90625 c 0,142,143
 91.6402547393 -19.4907055317 91.6402547393 -19.4907055317 90.900390625 -18.1962890625 c 2,144,-1
 90.8935546875 -18.18359375 l 1,145,146
 83.5751953125 -3.53422715489 83.5751953125 -3.53422715489 83.5751953125 17.1650390625 c 128,-1,147
 83.5751953125 37.862908875 83.5751953125 37.862908875 90.900390625 52.51171875 c 128,-1,91
 98.2210761323 67.15625 98.2210761323 67.15625 108.578125 67.15625 c 128,-1,92
EndSplineSet
EndChar

StartChar: percent
Encoding: 37 37 5
Width: 500
Flags: W
LayerCount: 2
Fore
SplineSet
106.794921875 632.71484375 m 0,0,1
 107.74137931 632.849609375 107.74137931 632.849609375 108.58203125 632.849609375 c 0,2,3
 118.929873602 632.849609375 118.929873602 632.849609375 126.255859375 618.19921875 c 128,-1,4
 133.58203125 603.546875 133.58203125 603.546875 133.58203125 582.836914062 c 128,-1,5
 133.58203125 562.140625 133.58203125 562.140625 126.255859375 547.48828125 c 128,-1,6
 118.930175781 532.836914062 118.930175781 532.836914062 108.57421875 532.836914062 c 128,-1,7
 98.2260742188 532.836914062 98.2260742188 532.836914062 90.900390625 547.48828125 c 128,-1,8
 83.57421875 562.140625 83.57421875 562.140625 83.57421875 582.850585938 c 128,-1,9
 83.57421875 603.546875 83.57421875 603.546875 90.900390625 618.19921875 c 0,10,11
 97.4930486302 631.38453476 97.4930486302 631.38453476 106.794921875 632.71484375 c 0,0,1
387.51171875 632.2265625 m 0,12,13
 389.478210449 632.849609375 389.478210449 632.849609375 391.42578125 632.849609375 c 0,14,15
 401.773623602 632.849609375 401.773623602 632.849609375 409.099609375 618.19921875 c 128,-1,16
 416.42578125 603.546875 416.42578125 603.546875 416.42578125 582.836914062 c 128,-1,17
 416.42578125 562.140625 416.42578125 562.140625 409.099609375 547.48828125 c 2,18,-1
 126.255859375 -18.19921875 l 1,19,20
 118.930175781 -32.8505859375 118.930175781 -32.8505859375 108.57421875 -32.8505859375 c 128,-1,21
 98.2260742188 -32.8505859375 98.2260742188 -32.8505859375 90.900390625 -18.19921875 c 128,-1,22
 83.57421875 -3.546875 83.57421875 -3.546875 83.57421875 17.1630859375 c 128,-1,23
 83.57421875 37.859375 83.57421875 37.859375 90.900390625 52.51171875 c 2,24,-1
 373.744140625 618.19921875 l 1,25,26
 379.488874044 629.687147506 379.488874044 629.687147506 387.51171875 632.2265625 c 0,12,13
389.638671875 67.03125 m 0,27,28
 390.576733118 67.1650390625 390.576733118 67.1650390625 391.424804688 67.1650390625 c 0,29,30
 401.773739666 67.1650390625 401.773739666 67.1650390625 409.099609375 52.51171875 c 128,-1,31
 416.42578125 37.859375 416.42578125 37.859375 416.42578125 17.1494140625 c 128,-1,32
 416.42578125 -3.546875 416.42578125 -3.546875 409.099609375 -18.19921875 c 128,-1,33
 401.773925781 -32.8505859375 401.773925781 -32.8505859375 391.41796875 -32.8505859375 c 128,-1,34
 381.069824219 -32.8505859375 381.069824219 -32.8505859375 373.744140625 -18.19921875 c 128,-1,35
 366.41796875 -3.546875 366.41796875 -3.546875 366.41796875 17.1630859375 c 128,-1,36
 366.41796875 37.859375 366.41796875 37.859375 373.744140625 52.51171875 c 0,37,38
 380.337383793 65.6997652469 380.337383793 65.6997652469 389.638671875 67.03125 c 0,27,28
EndSplineSet
EndChar

StartChar: ampersand
Encoding: 38 38 6
Width: 500
Flags: W
LayerCount: 2
Fore
SplineSet
234.634765625 748.90625 m 0,0,1
 242.766875756 750.021484375 242.766875756 750.021484375 250.05078125 750.021484375 c 0,2,3
 295.787232945 750.021484375 295.787232945 750.021484375 336.868804211 715.250536497 c 128,-1,4
 377.950375478 680.479588619 377.950375478 680.479588619 409.099609375 618.1953125 c 0,5,6
 475.03125 486.33203125 475.03125 486.33203125 475.03125 299.935546875 c 128,-1,7
 475.03125 113.6640625 475.03125 113.6640625 409.099609375 -18.19921875 c 0,8,9
 377.969893159 -80.331719115 377.969893159 -80.331719115 336.888745279 -115.017910339 c 128,-1,10
 295.8075974 -149.704101562 295.8075974 -149.704101562 250.111328125 -149.704101562 c 0,11,12
 205.315989586 -149.704101562 205.315989586 -149.704101562 164.949611638 -116.305495474 c 128,-1,13
 124.583233691 -82.9068893864 124.583233691 -82.9068893864 93.6015625 -22.875 c 0,14,15
 92.1644808456 -20.7259428661 92.1644808456 -20.7259428661 90.900390625 -18.19921875 c 0,16,17
 83.57421875 -3.546875 83.57421875 -3.546875 83.57421875 17.1630859375 c 128,-1,18
 83.57421875 37.859375 83.57421875 37.859375 90.900390625 52.51171875 c 128,-1,19
 98.2260742188 67.1630859375 98.2260742188 67.1630859375 108.58203125 67.1630859375 c 128,-1,20
 118.930175781 67.1630859375 118.930175781 67.1630859375 126.255859375 52.51171875 c 0,21,22
 150.479635295 4.06342011494 150.479635295 4.06342011494 182.46010583 -22.9936805675 c 128,-1,23
 214.440576366 -50.05078125 214.440576366 -50.05078125 250.024414062 -50.05078125 c 128,-1,24
 285.602796674 -50.05078125 285.602796674 -50.05078125 317.559343257 -22.9981555004 c 128,-1,25
 349.515889841 4.05447024929 349.515889841 4.05447024929 373.744140625 52.51171875 c 0,26,27
 425.025390625 155.07421875 425.025390625 155.07421875 425.025390625 300.048828125 c 128,-1,28
 425.025390625 444.92578125 425.025390625 444.92578125 373.744140625 547.48828125 c 0,29,30
 349.520364705 595.936579885 349.520364705 595.936579885 317.53989417 622.993680568 c 128,-1,31
 285.559423634 650.05078125 285.559423634 650.05078125 249.975585938 650.05078125 c 128,-1,32
 214.397203326 650.05078125 214.397203326 650.05078125 182.440656743 622.9981555 c 128,-1,33
 150.484110159 595.945529751 150.484110159 595.945529751 126.255859375 547.48828125 c 0,34,35
 118.930175781 532.836914062 118.930175781 532.836914062 108.57421875 532.836914062 c 128,-1,36
 98.2260742188 532.836914062 98.2260742188 532.836914062 90.900390625 547.48828125 c 128,-1,37
 83.57421875 562.140625 83.57421875 562.140625 83.57421875 582.850585938 c 128,-1,38
 83.57421875 603.546875 83.57421875 603.546875 90.900390625 618.19921875 c 1,39,-1
 90.90234375 618.1953125 l 0,40,41
 91.3375223833 619.068590429 91.3375223833 619.068590429 91.7890625 619.890625 c 2,42,-1
 91.8046875 619.91015625 l 1,43,44
 120.138022139 675.954270175 120.138022139 675.954270175 156.890076105 709.620161671 c 128,-1,45
 193.64213007 743.286053168 193.64213007 743.286053168 234.634765625 748.90625 c 0,0,1
250 550 m 0,46,47
 302 550 302 550 338.5 477 c 128,-1,48
 375 404 375 404 375 300 c 128,-1,49
 375 196 375 196 338.5 123 c 128,-1,50
 302 50 302 50 250 50 c 0,51,52
 233.321191386 50.2131422836 233.321191386 50.2131422836 217.588467163 58.9653744312 c 128,-1,53
 201.85574294 67.7176065788 201.85574294 67.7176065788 190.395266968 81.4281497388 c 128,-1,54
 178.934790995 95.1386928987 178.934790995 95.1386928987 172.571804566 104.690044841 c 128,-1,55
 166.208818137 114.241396784 166.208818137 114.241396784 161.611328125 123.22265625 c 0,56,57
 154.289306641 137.867431641 154.289306641 137.867431641 154.289306641 158.578125 c 128,-1,58
 154.289306641 179.288818359 154.289306641 179.288818359 161.611328125 193.93359375 c 128,-1,59
 168.933349609 208.578369141 168.933349609 208.578369141 179.2890625 208.578369141 c 128,-1,60
 189.644775391 208.578369141 189.644775391 208.578369141 196.966796875 193.93359375 c 1,61,-1
 197.16796875 194.3359375 l 1,62,63
 219.00205965 150.332964201 219.00205965 150.332964201 250 150 c 0,64,65
 281 150 281 150 303 194 c 128,-1,66
 325 238 325 238 325 300 c 128,-1,67
 325 362 325 362 303 406 c 128,-1,68
 281 450 281 450 250 450 c 0,69,70
 219.00205965 449.667035799 219.00205965 449.667035799 197.16796875 405.6640625 c 1,71,-1
 196.966796875 406.06640625 l 1,72,73
 189.644775391 391.421630859 189.644775391 391.421630859 179.2890625 391.421630859 c 128,-1,74
 168.933349609 391.421630859 168.933349609 391.421630859 161.611328125 406.06640625 c 128,-1,75
 154.289306641 420.711181641 154.289306641 420.711181641 154.289306641 441.421875 c 128,-1,76
 154.289306641 462.132568359 154.289306641 462.132568359 161.611328125 476.77734375 c 0,77,78
 166.203564951 485.749517455 166.203564951 485.749517455 172.562363526 495.296158777 c 128,-1,79
 178.9211621 504.842800099 178.9211621 504.842800099 190.38236914 518.558409704 c 128,-1,80
 201.843576181 532.274019309 201.843576181 532.274019309 217.580124756 541.030442224 c 128,-1,81
 233.316673332 549.786865139 233.316673332 549.786865139 250 550 c 0,46,47
250 350 m 128,-1,83
 260 350 260 350 267.5 335.5 c 128,-1,84
 275 321 275 321 275 300 c 128,-1,85
 275 279 275 279 267.5 264.5 c 128,-1,86
 260 250 260 250 250 250 c 128,-1,87
 240 250 240 250 232.5 264.5 c 128,-1,88
 225 279 225 279 225 300 c 128,-1,89
 225 321 225 321 232.5 335.5 c 128,-1,82
 240 350 240 350 250 350 c 128,-1,83
EndSplineSet
EndChar

StartChar: quotesingle
Encoding: 39 39 7
Width: 500
Flags: W
LayerCount: 2
Fore
SplineSet
250 750 m 128,-1,1
 260 750 260 750 267.5 735.5 c 128,-1,2
 275 721 275 721 275 700 c 128,-1,3
 275 679 275 679 267.5 664.5 c 128,-1,4
 260 650 260 650 250 650 c 128,-1,5
 240 650 240 650 232.5 664.5 c 128,-1,6
 225 679 225 679 225 700 c 128,-1,7
 225 721 225 721 232.5 735.5 c 128,-1,0
 240 750 240 750 250 750 c 128,-1,1
EndSplineSet
EndChar

StartChar: parenleft
Encoding: 40 40 8
Width: 500
Flags: W
LayerCount: 2
Fore
SplineSet
350 750 m 0,0,1
 360 750 360 750 367.5 735.5 c 128,-1,2
 375 721 375 721 375 700 c 128,-1,3
 375 679 375 679 367.5 664.5 c 128,-1,4
 360 650 360 650 350 650 c 0,5,6
 319 650 319 650 297 606 c 128,-1,7
 275 562 275 562 275 500 c 2,8,-1
 275 100 l 2,9,10
 275 38 275 38 297 -6 c 128,-1,11
 319 -50 319 -50 350 -50 c 0,12,13
 360 -50 360 -50 367.5 -64.5 c 128,-1,14
 375 -79 375 -79 375 -100 c 128,-1,15
 375 -121 375 -121 367.5 -135.5 c 128,-1,16
 360 -150 360 -150 350 -150 c 0,17,18
 298 -150 298 -150 261.5 -76.5 c 128,-1,19
 225 -3 225 -3 225 100 c 2,20,-1
 225 500 l 2,21,22
 225 603 225 603 261.5 676.5 c 128,-1,23
 298 750 298 750 350 750 c 0,0,1
EndSplineSet
EndChar

StartChar: parenright
Encoding: 41 41 9
Width: 500
Flags: W
LayerCount: 2
Fore
SplineSet
150 750 m 0,0,1
 202 750 202 750 238.5 676.5 c 128,-1,2
 275 603 275 603 275 500 c 2,3,-1
 275 100 l 2,4,5
 275 -3 275 -3 238.5 -76.5 c 128,-1,6
 202 -150 202 -150 150 -150 c 0,7,8
 140 -150 140 -150 132.5 -135.5 c 128,-1,9
 125 -121 125 -121 125 -100 c 128,-1,10
 125 -79 125 -79 132.5 -64.5 c 128,-1,11
 140 -50 140 -50 150 -50 c 0,12,13
 181 -50 181 -50 203 -6 c 128,-1,14
 225 38 225 38 225 100 c 2,15,-1
 225 500 l 2,16,17
 225 562 225 562 203 606 c 128,-1,18
 181 650 181 650 150 650 c 0,19,20
 140 650 140 650 132.5 664.5 c 128,-1,21
 125 679 125 679 125 700 c 128,-1,22
 125 721 125 721 132.5 735.5 c 128,-1,23
 140 750 140 750 150 750 c 0,0,1
EndSplineSet
EndChar

StartChar: asterisk
Encoding: 42 42 10
Width: 500
Flags: W
LayerCount: 2
Fore
SplineSet
250 750 m 128,-1,1
 260 750 260 750 267.5 735.5 c 128,-1,2
 275 721 275 721 275 700 c 2,3,-1
 275 420.7109375 l 1,4,-1
 373.744140625 618.19921875 l 1,5,6
 381.069824219 632.850585938 381.069824219 632.850585938 391.42578125 632.850585938 c 128,-1,7
 401.773925781 632.850585938 401.773925781 632.850585938 409.099609375 618.19921875 c 128,-1,8
 416.42578125 603.546875 416.42578125 603.546875 416.42578125 582.836914062 c 128,-1,9
 416.42578125 562.140625 416.42578125 562.140625 409.099609375 547.48828125 c 2,10,-1
 285.35546875 300 l 1,11,-1
 316.291503906 238.124891493 l 0,12,13
 347.227539063 176.249782986 347.227539063 176.249782986 378.163574219 114.377712674 c 128,-1,14
 409.099609375 52.5056423611 409.099609375 52.5056423611 409.099609375 52.51171875 c 1,15,16
 416.42578125 37.859375 416.42578125 37.859375 416.42578125 17.1494140625 c 128,-1,17
 416.42578125 -3.546875 416.42578125 -3.546875 409.099609375 -18.19921875 c 128,-1,18
 401.773925781 -32.8505859375 401.773925781 -32.8505859375 391.41796875 -32.8505859375 c 128,-1,19
 381.069824219 -32.8505859375 381.069824219 -32.8505859375 373.744140625 -18.19921875 c 2,20,-1
 275 179.2890625 l 1,21,-1
 275 -100 l 2,22,23
 275 -121 275 -121 267.5 -135.5 c 128,-1,24
 260 -150 260 -150 250 -150 c 128,-1,25
 240 -150 240 -150 232.5 -135.5 c 128,-1,26
 225 -121 225 -121 225 -100 c 2,27,-1
 225 179.2890625 l 1,28,-1
 126.255859375 -18.19921875 l 1,29,30
 118.930175781 -32.8505859375 118.930175781 -32.8505859375 108.57421875 -32.8505859375 c 128,-1,31
 98.2260742188 -32.8505859375 98.2260742188 -32.8505859375 90.900390625 -18.19921875 c 128,-1,32
 83.57421875 -3.546875 83.57421875 -3.546875 83.57421875 17.1630859375 c 128,-1,33
 83.57421875 37.859375 83.57421875 37.859375 90.900390625 52.51171875 c 2,34,-1
 214.64453125 300 l 1,35,-1
 183.708496094 361.875108507 l 0,36,37
 152.772460937 423.750217014 152.772460937 423.750217014 121.836425781 485.622287326 c 128,-1,38
 90.900390625 547.494357639 90.900390625 547.494357639 90.900390625 547.48828125 c 1,39,40
 83.57421875 562.140625 83.57421875 562.140625 83.57421875 582.850585938 c 128,-1,41
 83.57421875 603.546875 83.57421875 603.546875 90.900390625 618.19921875 c 128,-1,42
 98.2260742188 632.850585938 98.2260742188 632.850585938 108.58203125 632.850585938 c 128,-1,43
 118.930175781 632.850585938 118.930175781 632.850585938 126.255859375 618.19921875 c 2,44,-1
 225 420.7109375 l 1,45,-1
 225 700 l 2,46,47
 225 721 225 721 232.5 735.5 c 128,-1,0
 240 750 240 750 250 750 c 128,-1,1
EndSplineSet
EndChar

StartChar: plus
Encoding: 43 43 11
Width: 500
Flags: W
LayerCount: 2
Fore
SplineSet
250 750 m 128,-1,1
 260 750 260 750 267.5 735.5 c 128,-1,2
 275 721 275 721 275 700 c 2,3,-1
 275 350 l 1,4,-1
 450 350 l 2,5,6
 460 350 460 350 467.5 335.5 c 128,-1,7
 475 321 475 321 475 300 c 128,-1,8
 475 279 475 279 467.5 264.5 c 128,-1,9
 460 250 460 250 450 250 c 2,10,-1
 275 250 l 1,11,-1
 275 -100 l 2,12,13
 275 -121 275 -121 267.5 -135.5 c 128,-1,14
 260 -150 260 -150 250 -150 c 128,-1,15
 240 -150 240 -150 232.5 -135.5 c 128,-1,16
 225 -121 225 -121 225 -100 c 2,17,-1
 225 250 l 1,18,-1
 50 250 l 2,19,20
 40 250 40 250 32.5 264.5 c 128,-1,21
 25 279 25 279 25 300 c 128,-1,22
 25 321 25 321 32.5 335.5 c 128,-1,23
 40 350 40 350 50 350 c 2,24,-1
 225 350 l 1,25,-1
 225 700 l 2,26,27
 225 721 225 721 232.5 735.5 c 128,-1,0
 240 750 240 750 250 750 c 128,-1,1
EndSplineSet
EndChar

StartChar: comma
Encoding: 44 44 12
Width: 500
Flags: W
LayerCount: 2
Fore
SplineSet
50 350 m 128,-1,1
 60 350 60 350 67.5 335.5 c 128,-1,2
 75 321 75 321 75 300 c 128,-1,3
 75 279 75 279 67.5 264.5 c 128,-1,4
 60 250 60 250 50 250 c 128,-1,5
 40 250 40 250 32.5 264.5 c 128,-1,6
 25 279 25 279 25 300 c 128,-1,7
 25 321 25 321 32.5 335.5 c 128,-1,0
 40 350 40 350 50 350 c 128,-1,1
250 350 m 128,-1,9
 260 350 260 350 267.5 335.5 c 128,-1,10
 275 321 275 321 275 300 c 128,-1,11
 275 279 275 279 267.5 264.5 c 128,-1,12
 260 250 260 250 250 250 c 128,-1,13
 240 250 240 250 232.5 264.5 c 128,-1,14
 225 279 225 279 225 300 c 128,-1,15
 225 321 225 321 232.5 335.5 c 128,-1,8
 240 350 240 350 250 350 c 128,-1,9
450 350 m 128,-1,17
 460 350 460 350 467.5 335.5 c 128,-1,18
 475 321 475 321 475 300 c 128,-1,19
 475 279 475 279 467.5 264.5 c 128,-1,20
 460 250 460 250 450 250 c 128,-1,21
 440 250 440 250 432.5 264.5 c 128,-1,22
 425 279 425 279 425 300 c 128,-1,23
 425 321 425 321 432.5 335.5 c 128,-1,16
 440 350 440 350 450 350 c 128,-1,17
EndSplineSet
EndChar

StartChar: hyphen
Encoding: 45 45 13
Width: 500
Flags: W
LayerCount: 2
Fore
SplineSet
50 350 m 2,0,-1
 450 350 l 2,1,2
 460 350 460 350 467.5 335.5 c 128,-1,3
 475 321 475 321 475 300 c 128,-1,4
 475 279 475 279 467.5 264.5 c 128,-1,5
 460 250 460 250 450 250 c 2,6,-1
 50 250 l 2,7,8
 40 250 40 250 32.5 264.5 c 128,-1,9
 25 279 25 279 25 300 c 128,-1,10
 25 321 25 321 32.5 335.5 c 128,-1,11
 40 350 40 350 50 350 c 2,0,-1
EndSplineSet
EndChar

StartChar: period
Encoding: 46 46 14
Width: 500
Flags: W
LayerCount: 2
Fore
SplineSet
250 750 m 128,-1,1
 260 750 260 750 267.5 735.5 c 128,-1,2
 275 721 275 721 275 700 c 128,-1,3
 275 679 275 679 267.5 664.5 c 128,-1,4
 260 650 260 650 250 650 c 128,-1,5
 240 650 240 650 232.5 664.5 c 128,-1,6
 225 679 225 679 225 700 c 128,-1,7
 225 721 225 721 232.5 735.5 c 128,-1,0
 240 750 240 750 250 750 c 128,-1,1
50 350 m 128,-1,9
 60 350 60 350 67.5 335.5 c 128,-1,10
 75 321 75 321 75 300 c 128,-1,11
 75 279 75 279 67.5 264.5 c 128,-1,12
 60 250 60 250 50 250 c 128,-1,13
 40 250 40 250 32.5 264.5 c 128,-1,14
 25 279 25 279 25 300 c 128,-1,15
 25 321 25 321 32.5 335.5 c 128,-1,8
 40 350 40 350 50 350 c 128,-1,9
250 350 m 128,-1,17
 260 350 260 350 267.5 335.5 c 128,-1,18
 275 321 275 321 275 300 c 128,-1,19
 275 279 275 279 267.5 264.5 c 128,-1,20
 260 250 260 250 250 250 c 128,-1,21
 240 250 240 250 232.5 264.5 c 128,-1,22
 225 279 225 279 225 300 c 128,-1,23
 225 321 225 321 232.5 335.5 c 128,-1,16
 240 350 240 350 250 350 c 128,-1,17
450 350 m 128,-1,25
 460 350 460 350 467.5 335.5 c 128,-1,26
 475 321 475 321 475 300 c 128,-1,27
 475 279 475 279 467.5 264.5 c 128,-1,28
 460 250 460 250 450 250 c 128,-1,29
 440 250 440 250 432.5 264.5 c 128,-1,30
 425 279 425 279 425 300 c 128,-1,31
 425 321 425 321 432.5 335.5 c 128,-1,24
 440 350 440 350 450 350 c 128,-1,25
250 -50 m 128,-1,33
 260 -50 260 -50 267.5 -64.5 c 128,-1,34
 275 -79 275 -79 275 -100 c 128,-1,35
 275 -121 275 -121 267.5 -135.5 c 128,-1,36
 260 -150 260 -150 250 -150 c 128,-1,37
 240 -150 240 -150 232.5 -135.5 c 128,-1,38
 225 -121 225 -121 225 -100 c 128,-1,39
 225 -79 225 -79 232.5 -64.5 c 128,-1,32
 240 -50 240 -50 250 -50 c 128,-1,33
EndSplineSet
EndChar

StartChar: slash
Encoding: 47 47 15
Width: 500
Flags: W
LayerCount: 2
Fore
SplineSet
387.51171875 632.2265625 m 0,0,1
 389.478210449 632.849609375 389.478210449 632.849609375 391.42578125 632.849609375 c 0,2,3
 401.773623602 632.849609375 401.773623602 632.849609375 409.099609375 618.19921875 c 128,-1,4
 416.42578125 603.546875 416.42578125 603.546875 416.42578125 582.836914062 c 128,-1,5
 416.42578125 562.140625 416.42578125 562.140625 409.099609375 547.48828125 c 2,6,-1
 126.255859375 -18.19921875 l 1,7,8
 118.930175781 -32.8505859375 118.930175781 -32.8505859375 108.57421875 -32.8505859375 c 128,-1,9
 98.2260742188 -32.8505859375 98.2260742188 -32.8505859375 90.900390625 -18.19921875 c 128,-1,10
 83.57421875 -3.546875 83.57421875 -3.546875 83.57421875 17.1630859375 c 128,-1,11
 83.57421875 37.859375 83.57421875 37.859375 90.900390625 52.51171875 c 2,12,-1
 373.744140625 618.19921875 l 1,13,14
 379.488874044 629.687147506 379.488874044 629.687147506 387.51171875 632.2265625 c 0,0,1
EndSplineSet
EndChar

StartChar: zero
Encoding: 48 48 16
Width: 500
Flags: W
LayerCount: 2
Fore
SplineSet
250 550 m 128,-1,1
 302 550 302 550 338.5 476.5 c 128,-1,2
 375 403 375 403 375 300 c 128,-1,3
 375 197 375 197 338.5 123.5 c 128,-1,4
 302 50 302 50 250 50 c 128,-1,5
 198 50 198 50 161.5 123.5 c 128,-1,6
 125 197 125 197 125 300 c 128,-1,7
 125 403 125 403 161.5 476.5 c 128,-1,0
 198 550 198 550 250 550 c 128,-1,1
250 450 m 128,-1,9
 219 450 219 450 197 406 c 128,-1,10
 175 362 175 362 175 300 c 128,-1,11
 175 238 175 238 197 194 c 128,-1,12
 219 150 219 150 250 150 c 128,-1,13
 281 150 281 150 303 194 c 128,-1,14
 325 238 325 238 325 300 c 128,-1,15
 325 362 325 362 303 406 c 128,-1,8
 281 450 281 450 250 450 c 128,-1,9
EndSplineSet
EndChar

StartChar: one
Encoding: 49 49 17
Width: 500
Flags: W
LayerCount: 2
Fore
SplineSet
250 750 m 0,0,-1
 249.999023438 750.000976562 l 0,1,2
 250.605541992 750.000976562 250.605541992 750.000976562 251.2265625 749.94140625 c 2,3,-1
 251.244140625 749.9375 l 1,4,5
 312.046487454 749.264881095 312.046487454 749.264881095 363.576694048 688.896292104 c 128,-1,6
 415.106900641 628.527703113 415.106900641 628.527703113 445.049608036 525.123239146 c 128,-1,7
 474.992315431 421.71877518 474.992315431 421.71877518 475 300 c 0,8,9
 475 114 475 114 409 -18 c 128,-1,10
 343 -150 343 -150 250 -150 c 0,11,12
 189.57877547 -149.877536227 189.57877547 -149.877536227 138.161855734 -90.6586623085 c 128,-1,13
 86.7449359988 -31.4397883903 86.7449359988 -31.4397883903 56.4774671822 70.4542352251 c 128,-1,14
 26.2099983656 172.348258841 26.2099983656 172.348258841 25.255859375 292.875 c 0,15,16
 25 296.42449422 25 296.42449422 25 300 c 0,17,18
 25 321 25 321 32.5 335.5 c 128,-1,19
 40 350 40 350 50 350 c 128,-1,20
 60 350 60 350 67.5 335.5 c 128,-1,21
 75 321 75 321 75 300 c 0,22,23
 75 155 75 155 126.5 52.5 c 128,-1,24
 178 -50 178 -50 250 -50 c 128,-1,25
 322 -50 322 -50 373.5 52.5 c 128,-1,26
 425 155 425 155 425 300 c 128,-1,27
 425 445 425 445 373.5 547.5 c 128,-1,28
 322 650 322 650 250 650 c 0,29,30
 240 650 240 650 232.5 664.5 c 128,-1,31
 225 679 225 679 225 700 c 128,-1,32
 225 721 225 721 232.5 735.5 c 128,-1,33
 240 750 240 750 250 750 c 0,0,-1
250 550 m 128,-1,35
 302 550 302 550 338.5 476.5 c 128,-1,36
 375 403 375 403 375 300 c 128,-1,37
 375 197 375 197 338.5 123.5 c 128,-1,38
 302 50 302 50 250 50 c 128,-1,39
 198 50 198 50 161.5 123.5 c 128,-1,40
 125 197 125 197 125 300 c 128,-1,41
 125 403 125 403 161.5 476.5 c 128,-1,34
 198 550 198 550 250 550 c 128,-1,35
250 450 m 128,-1,43
 219 450 219 450 197 406 c 128,-1,44
 175 362 175 362 175 300 c 128,-1,45
 175 238 175 238 197 194 c 128,-1,46
 219 150 219 150 250 150 c 128,-1,47
 281 150 281 150 303 194 c 128,-1,48
 325 238 325 238 325 300 c 128,-1,49
 325 362 325 362 303 406 c 128,-1,42
 281 450 281 450 250 450 c 128,-1,43
EndSplineSet
EndChar

StartChar: two
Encoding: 50 50 18
Width: 500
Flags: W
LayerCount: 2
Fore
SplineSet
108.578125 632.84375 m 128,-1,1
 118.93359375 632.84375 118.93359375 632.84375 126.255859375 618.19921875 c 128,-1,2
 133.58203125 603.546875 133.58203125 603.546875 133.58203125 582.836914062 c 128,-1,3
 133.58203125 562.140625 133.58203125 562.140625 126.255859375 547.48828125 c 0,4,5
 74.974609375 444.92578125 74.974609375 444.92578125 74.974609375 299.951171875 c 128,-1,6
 74.974609375 155.07421875 74.974609375 155.07421875 126.255859375 52.51171875 c 0,7,8
 150.479635295 4.06342011494 150.479635295 4.06342011494 182.46010583 -22.9936805675 c 128,-1,9
 214.440576366 -50.05078125 214.440576366 -50.05078125 250.024414062 -50.05078125 c 128,-1,10
 285.602796674 -50.05078125 285.602796674 -50.05078125 317.559343257 -22.9981555004 c 128,-1,11
 349.515889841 4.05447024929 349.515889841 4.05447024929 373.744140625 52.51171875 c 0,12,13
 425.025390625 155.07421875 425.025390625 155.07421875 425.025390625 300.048828125 c 128,-1,14
 425.025390625 444.92578125 425.025390625 444.92578125 373.744140625 547.48828125 c 0,15,16
 366.41796875 562.140625 366.41796875 562.140625 366.41796875 582.850585938 c 128,-1,17
 366.41796875 603.546875 366.41796875 603.546875 373.744140625 618.19921875 c 128,-1,18
 381.069824219 632.850585938 381.069824219 632.850585938 391.42578125 632.850585938 c 128,-1,19
 401.773925781 632.850585938 401.773925781 632.850585938 409.099609375 618.19921875 c 1,20,-1
 409.09765625 618.1953125 l 0,21,22
 409.527247848 617.340439589 409.527247848 617.340439589 409.9453125 616.421875 c 2,23,-1
 409.955078125 616.390625 l 1,24,25
 475.008789062 484.837494882 475.008789062 484.837494882 475.008789062 299.895507812 c 0,26,27
 475.008789062 113.657826807 475.008789062 113.657826807 409.09765625 -18.19921875 c 0,28,29
 377.952606624 -80.4885712074 377.952606624 -80.4885712074 336.835114372 -115.275535604 c 128,-1,30
 295.71762212 -150.0625 295.71762212 -150.0625 249.967773438 -150.0625 c 128,-1,31
 204.224907271 -150.0625 204.224907271 -150.0625 163.138037716 -115.281263445 c 128,-1,32
 122.051168161 -80.5000268902 122.051168161 -80.5000268902 90.900390625 -18.19921875 c 0,33,34
 25.1474609375 113.573716961 25.1474609375 113.573716961 25.1474609375 299.776367188 c 0,35,36
 25.1474609375 481.886193436 25.1474609375 481.886193436 88.5625 612.796875 c 0,37,38
 89.634139181 615.665257047 89.634139181 615.665257047 90.900390625 618.19921875 c 0,39,0
 98.22265625 632.84375 98.22265625 632.84375 108.578125 632.84375 c 128,-1,1
250 550 m 128,-1,41
 302 550 302 550 338.5 476.5 c 128,-1,42
 375 403 375 403 375 300 c 128,-1,43
 375 197 375 197 338.5 123.5 c 128,-1,44
 302 50 302 50 250 50 c 128,-1,45
 198 50 198 50 161.5 123.5 c 128,-1,46
 125 197 125 197 125 300 c 128,-1,47
 125 403 125 403 161.5 476.5 c 128,-1,40
 198 550 198 550 250 550 c 128,-1,41
250 450 m 128,-1,49
 219 450 219 450 197 406 c 128,-1,50
 175 362 175 362 175 300 c 128,-1,51
 175 238 175 238 197 194 c 128,-1,52
 219 150 219 150 250 150 c 128,-1,53
 281 150 281 150 303 194 c 128,-1,54
 325 238 325 238 325 300 c 128,-1,55
 325 362 325 362 303 406 c 128,-1,48
 281 450 281 450 250 450 c 128,-1,49
EndSplineSet
EndChar

StartChar: three
Encoding: 51 51 19
Width: 500
Flags: W
LayerCount: 2
Fore
SplineSet
250 750 m 0,0,1
 260 750 260 750 267.5 735.5 c 128,-1,2
 275 721 275 721 275 700 c 128,-1,3
 275 679 275 679 267.5 664.5 c 128,-1,4
 260 650 260 650 250 650 c 0,5,6
 178 650 178 650 126.5 547.5 c 128,-1,7
 75 445 75 445 75 300 c 128,-1,8
 75 155 75 155 126.5 52.5 c 128,-1,9
 178 -50 178 -50 250 -50 c 128,-1,10
 322 -50 322 -50 373.5 52.5 c 128,-1,11
 425 155 425 155 425 300 c 0,12,13
 425 321 425 321 432.5 335.5 c 128,-1,14
 440 350 440 350 450 350 c 128,-1,15
 460 350 460 350 467.5 335.5 c 128,-1,16
 475 321 475 321 475 300 c 0,17,-1
 475 300.002929688 l 0,18,19
 475 298.767089844 475 298.767089844 474.970703125 297.546875 c 2,20,-1
 474.96875 297.51171875 l 1,21,22
 474.632440418 175.906978296 474.632440418 175.906978296 444.448155924 72.8463947591 c 128,-1,23
 414.26387143 -30.2141887782 414.26387143 -30.2141887782 362.561609701 -90.0996499674 c 128,-1,24
 310.859347972 -149.985111157 310.859347972 -149.985111157 250 -150 c 0,25,26
 157 -150 157 -150 91 -18 c 128,-1,27
 25 114 25 114 25 300 c 0,28,29
 25.060991715 420.842836817 25.060991715 420.842836817 54.6703633081 523.676506271 c 128,-1,30
 84.2797349013 626.510175724 84.2797349013 626.510175724 135.226772109 687.044847896 c 128,-1,31
 186.173809316 747.579520068 186.173809316 747.579520068 246.4375 749.48828125 c 0,32,33
 248.20726107 749.998562359 248.20726107 749.998562359 250 750 c 0,0,1
250 550 m 128,-1,35
 302 550 302 550 338.5 476.5 c 128,-1,36
 375 403 375 403 375 300 c 128,-1,37
 375 197 375 197 338.5 123.5 c 128,-1,38
 302 50 302 50 250 50 c 128,-1,39
 198 50 198 50 161.5 123.5 c 128,-1,40
 125 197 125 197 125 300 c 128,-1,41
 125 403 125 403 161.5 476.5 c 128,-1,34
 198 550 198 550 250 550 c 128,-1,35
250 450 m 128,-1,43
 219 450 219 450 197 406 c 128,-1,44
 175 362 175 362 175 300 c 128,-1,45
 175 238 175 238 197 194 c 128,-1,46
 219 150 219 150 250 150 c 128,-1,47
 281 150 281 150 303 194 c 128,-1,48
 325 238 325 238 325 300 c 128,-1,49
 325 362 325 362 303 406 c 128,-1,42
 281 450 281 450 250 450 c 128,-1,43
EndSplineSet
EndChar

StartChar: four
Encoding: 52 52 20
Width: 500
Flags: W
LayerCount: 2
Fore
SplineSet
234.634765625 748.90625 m 0,0,1
 242.766875756 750.021484375 242.766875756 750.021484375 250.05078125 750.021484375 c 0,2,3
 295.787232945 750.021484375 295.787232945 750.021484375 336.868804211 715.250536497 c 128,-1,4
 377.950375478 680.479588619 377.950375478 680.479588619 409.099609375 618.1953125 c 0,5,6
 475.03125 486.33203125 475.03125 486.33203125 475.03125 299.935546875 c 128,-1,7
 475.03125 113.6640625 475.03125 113.6640625 409.099609375 -18.19921875 c 0,8,9
 377.969893159 -80.331719115 377.969893159 -80.331719115 336.888745279 -115.017910339 c 128,-1,10
 295.8075974 -149.704101562 295.8075974 -149.704101562 250.111328125 -149.704101562 c 0,11,12
 205.315989586 -149.704101562 205.315989586 -149.704101562 164.949611638 -116.305495474 c 128,-1,13
 124.583233691 -82.9068893864 124.583233691 -82.9068893864 93.6015625 -22.875 c 0,14,15
 92.1644808456 -20.7259428661 92.1644808456 -20.7259428661 90.900390625 -18.19921875 c 0,16,17
 83.57421875 -3.546875 83.57421875 -3.546875 83.57421875 17.1630859375 c 128,-1,18
 83.57421875 37.859375 83.57421875 37.859375 90.900390625 52.51171875 c 128,-1,19
 98.2260742188 67.1630859375 98.2260742188 67.1630859375 108.58203125 67.1630859375 c 128,-1,20
 118.930175781 67.1630859375 118.930175781 67.1630859375 126.255859375 52.51171875 c 0,21,22
 150.479635295 4.06342011494 150.479635295 4.06342011494 182.46010583 -22.9936805675 c 128,-1,23
 214.440576366 -50.05078125 214.440576366 -50.05078125 250.024414062 -50.05078125 c 128,-1,24
 285.602796674 -50.05078125 285.602796674 -50.05078125 317.559343257 -22.9981555004 c 128,-1,25
 349.515889841 4.05447024929 349.515889841 4.05447024929 373.744140625 52.51171875 c 0,26,27
 425.025390625 155.07421875 425.025390625 155.07421875 425.025390625 300.048828125 c 128,-1,28
 425.025390625 444.92578125 425.025390625 444.92578125 373.744140625 547.48828125 c 0,29,30
 349.520364705 595.936579885 349.520364705 595.936579885 317.53989417 622.993680568 c 128,-1,31
 285.559423634 650.05078125 285.559423634 650.05078125 249.975585938 650.05078125 c 128,-1,32
 214.397203326 650.05078125 214.397203326 650.05078125 182.440656743 622.9981555 c 128,-1,33
 150.484110159 595.945529751 150.484110159 595.945529751 126.255859375 547.48828125 c 0,34,35
 118.930175781 532.836914062 118.930175781 532.836914062 108.57421875 532.836914062 c 128,-1,36
 98.2260742188 532.836914062 98.2260742188 532.836914062 90.900390625 547.48828125 c 128,-1,37
 83.57421875 562.140625 83.57421875 562.140625 83.57421875 582.850585938 c 128,-1,38
 83.57421875 603.546875 83.57421875 603.546875 90.900390625 618.19921875 c 1,39,-1
 90.90234375 618.1953125 l 0,40,41
 91.3375223833 619.068590429 91.3375223833 619.068590429 91.7890625 619.890625 c 2,42,-1
 91.8046875 619.91015625 l 1,43,44
 120.138022139 675.954270175 120.138022139 675.954270175 156.890076105 709.620161671 c 128,-1,45
 193.64213007 743.286053168 193.64213007 743.286053168 234.634765625 748.90625 c 0,0,1
250 550 m 128,-1,47
 302 550 302 550 338.5 476.5 c 128,-1,48
 375 403 375 403 375 300 c 128,-1,49
 375 197 375 197 338.5 123.5 c 128,-1,50
 302 50 302 50 250 50 c 128,-1,51
 198 50 198 50 161.5 123.5 c 128,-1,52
 125 197 125 197 125 300 c 128,-1,53
 125 403 125 403 161.5 476.5 c 128,-1,46
 198 550 198 550 250 550 c 128,-1,47
250 450 m 128,-1,55
 219 450 219 450 197 406 c 128,-1,56
 175 362 175 362 175 300 c 128,-1,57
 175 238 175 238 197 194 c 128,-1,58
 219 150 219 150 250 150 c 128,-1,59
 281 150 281 150 303 194 c 128,-1,60
 325 238 325 238 325 300 c 128,-1,61
 325 362 325 362 303 406 c 128,-1,54
 281 450 281 450 250 450 c 128,-1,55
EndSplineSet
EndChar

StartChar: five
Encoding: 53 53 21
Width: 500
Flags: W
LayerCount: 2
Fore
SplineSet
234.634765625 748.90625 m 0,0,1
 241.313559166 749.690429688 241.313559166 749.690429688 247.635742188 749.690429688 c 0,2,3
 254.966879791 749.690429688 254.966879791 749.690429688 262.255859375 748.75390625 c 0,4,-1
 262.512695312 748.754882812 l 0,5,6
 263.284057617 748.754882812 263.284057617 748.754882812 264.193359375 748.7421875 c 0,7,8
 279.674450873 746.726004873 279.674450873 746.726004873 294.861328125 740.484375 c 2,9,-1
 294.861328125 740.484375 l 0,10,-1
 295.583984375 740.2734375 l 1,11,12
 359.508091582 713.727809168 359.508091582 713.727809168 406.3984375 622.875 c 0,13,14
 406.984396595 621.92080726 406.984396595 621.92080726 407.53515625 620.90625 c 0,15,16
 408.345196719 619.617747566 408.345196719 619.617747566 409.099609375 618.19921875 c 2,17,-1
 409.099609375 618.1953125 l 1,18,-1
 409.1171875 618.15625 l 1,19,20
 475.030273438 486.296878912 475.030273438 486.296878912 475.030273438 299.93359375 c 128,-1,21
 475.030273438 113.663690294 475.030273438 113.663690294 409.099609375 -18.19921875 c 1,22,-1
 409.056640625 -18.2734375 l 0,23,24
 408.651150414 -19.0872734873 408.651150414 -19.0872734873 408.2109375 -19.890625 c 2,25,-1
 408.1953125 -19.91015625 l 0,26,27
 404.161201789 -27.1715555297 404.161201789 -27.1715555297 399.958984375 -34.03125 c 0,28,29
 392.517647494 -48.011634335 392.517647494 -48.011634335 384.482421875 -60.57421875 c 0,30,31
 377.212885614 -70.7756107323 377.212885614 -70.7756107323 369.57421875 -79.7890625 c 0,32,33
 363.834354051 -87.5964498918 363.834354051 -87.5964498918 357.861328125 -94.6875 c 0,34,35
 347.932897635 -105.048950754 347.932897635 -105.048950754 337.53515625 -113.390625 c 0,36,37
 333.360624007 -117.369176731 333.360624007 -117.369176731 329.099609375 -121.0078125 c 0,38,39
 317.072792236 -129.699136811 317.072792236 -129.699136811 304.6328125 -135.609375 c 0,40,41
 301.698067889 -137.39548286 301.698067889 -137.39548286 298.765625 -139.0078125 c 0,42,43
 284.973985187 -144.921273223 284.973985187 -144.921273223 270.921875 -147.34375 c 0,44,45
 269.213245948 -147.852392353 269.213245948 -147.852392353 267.48046875 -148.3125 c 0,46,47
 259.164412611 -149.538085938 259.164412611 -149.538085938 251.126953125 -149.538085938 c 0,48,49
 244.414817366 -149.538085938 244.414817366 -149.538085938 237.744140625 -148.75390625 c 0,50,-1
 237.487304688 -148.754882812 l 0,51,52
 236.715942383 -148.754882812 236.715942383 -148.754882812 235.806640625 -148.7421875 c 0,53,54
 220.325549127 -146.726004873 220.325549127 -146.726004873 205.138671875 -140.484375 c 2,55,-1
 205.138671875 -140.484375 l 0,56,-1
 204.416015625 -140.2734375 l 1,57,58
 140.491908418 -113.727809168 140.491908418 -113.727809168 93.6015625 -22.875 c 0,59,60
 93.0156034053 -21.9208072597 93.0156034053 -21.9208072597 92.46484375 -20.90625 c 0,61,62
 91.6548032806 -19.6177475657 91.6548032806 -19.6177475657 90.900390625 -18.19921875 c 2,63,-1
 90.900390625 -18.1953125 l 1,64,-1
 90.89453125 -18.18359375 l 1,65,66
 24.96875 113.679035163 24.96875 113.679035163 24.96875 300.064453125 c 128,-1,67
 24.96875 486.3359375 24.96875 486.3359375 90.900390625 618.19921875 c 1,68,-1
 90.943359375 618.2734375 l 0,69,70
 91.3488495862 619.087273487 91.3488495862 619.087273487 91.7890625 619.890625 c 2,71,-1
 91.8046875 619.91015625 l 0,72,73
 95.838798211 627.17155553 95.838798211 627.17155553 100.041015625 634.03125 c 0,74,75
 107.482352506 648.011634335 107.482352506 648.011634335 115.517578125 660.57421875 c 0,76,77
 122.787114386 670.775610732 122.787114386 670.775610732 130.42578125 679.7890625 c 0,78,79
 136.165645949 687.596449892 136.165645949 687.596449892 142.138671875 694.6875 c 0,80,81
 152.067102365 705.048950754 152.067102365 705.048950754 162.46484375 713.390625 c 0,82,83
 166.639375993 717.369176731 166.639375993 717.369176731 170.900390625 721.0078125 c 0,84,85
 182.927207764 729.699136811 182.927207764 729.699136811 195.3671875 735.609375 c 0,86,87
 198.301932111 737.39548286 198.301932111 737.39548286 201.234375 739.0078125 c 0,88,89
 215.026014813 744.921273223 215.026014813 744.921273223 229.078125 747.34375 c 0,90,91
 230.786754052 747.852392353 230.786754052 747.852392353 232.51953125 748.3125 c 0,92,93
 233.536076612 748.607990933 233.536076612 748.607990933 234.634765625 748.90625 c 0,0,1
250 650 m 0,94,95
 193.138895157 650 193.138895157 650 147.13671875 583.15625 c 0,96,97
 135.996149754 566.968862007 135.996149754 566.968862007 126.255859375 547.48828125 c 0,98,99
 74.974609375 444.92578125 74.974609375 444.92578125 74.974609375 299.951171875 c 128,-1,100
 74.974609375 155.07421875 74.974609375 155.07421875 126.255859375 52.51171875 c 0,101,102
 150.493180352 4.0370767952 150.493180352 4.0370767952 182.378309192 -22.9868326962 c 128,-1,103
 214.263438032 -50.0107421875 214.263438032 -50.0107421875 249.830078125 -50.0107421875 c 0,104,105
 263.740849633 -50.0107421875 263.740849633 -50.0107421875 277.376953125 -45.69140625 c 0,106,107
 333.536801652 -27.9014212191 333.536801652 -27.9014212191 373.744140625 52.51171875 c 0,108,109
 425.025390625 155.07421875 425.025390625 155.07421875 425.025390625 300.048828125 c 128,-1,110
 425.025390625 444.92578125 425.025390625 444.92578125 373.744140625 547.48828125 c 0,111,112
 349.523587762 595.929386976 349.523587762 595.929386976 317.555320863 622.964693488 c 128,-1,113
 285.587053963 650 285.587053963 650 250 650 c 0,94,95
250 550 m 128,-1,115
 302 550 302 550 338.5 476.5 c 128,-1,116
 375 403 375 403 375 300 c 128,-1,117
 375 197 375 197 338.5 123.5 c 128,-1,118
 302 50 302 50 250 50 c 128,-1,119
 198 50 198 50 161.5 123.5 c 128,-1,120
 125 197 125 197 125 300 c 128,-1,121
 125 403 125 403 161.5 476.5 c 128,-1,114
 198 550 198 550 250 550 c 128,-1,115
250 450 m 128,-1,123
 219 450 219 450 197 406 c 128,-1,124
 175 362 175 362 175 300 c 128,-1,125
 175 238 175 238 197 194 c 128,-1,126
 219 150 219 150 250 150 c 128,-1,127
 281 150 281 150 303 194 c 128,-1,128
 325 238 325 238 325 300 c 128,-1,129
 325 362 325 362 303 406 c 128,-1,122
 281 450 281 450 250 450 c 128,-1,123
EndSplineSet
EndChar

StartChar: six
Encoding: 54 54 22
Width: 500
Flags: W
LayerCount: 2
Fore
SplineSet
264.0546875 748.78125 m 0,0,1
 346.829287668 738.299979166 346.829287668 738.299979166 406.3984375 622.875 c 0,2,3
 407.835519154 620.725942866 407.835519154 620.725942866 409.099609375 618.19921875 c 0,4,5
 416.42578125 603.546875 416.42578125 603.546875 416.42578125 582.836914062 c 128,-1,6
 416.42578125 562.140625 416.42578125 562.140625 409.099609375 547.48828125 c 128,-1,7
 401.773925781 532.836914062 401.773925781 532.836914062 391.41796875 532.836914062 c 128,-1,8
 381.069824219 532.836914062 381.069824219 532.836914062 373.744140625 547.48828125 c 0,9,10
 349.520364705 595.936579885 349.520364705 595.936579885 317.53989417 622.993680568 c 128,-1,11
 285.559423634 650.05078125 285.559423634 650.05078125 249.975585938 650.05078125 c 128,-1,12
 214.397203326 650.05078125 214.397203326 650.05078125 182.440656743 622.9981555 c 128,-1,13
 150.484110159 595.945529751 150.484110159 595.945529751 126.255859375 547.48828125 c 0,14,15
 74.974609375 444.92578125 74.974609375 444.92578125 74.974609375 299.951171875 c 128,-1,16
 74.974609375 155.07421875 74.974609375 155.07421875 126.255859375 52.51171875 c 0,17,18
 150.479635295 4.06342011494 150.479635295 4.06342011494 182.46010583 -22.9936805675 c 128,-1,19
 214.440576366 -50.05078125 214.440576366 -50.05078125 250.024414062 -50.05078125 c 128,-1,20
 285.602796674 -50.05078125 285.602796674 -50.05078125 317.559343257 -22.9981555004 c 128,-1,21
 349.515889841 4.05447024929 349.515889841 4.05447024929 373.744140625 52.51171875 c 0,22,23
 381.069824219 67.1630859375 381.069824219 67.1630859375 391.42578125 67.1630859375 c 128,-1,24
 401.773925781 67.1630859375 401.773925781 67.1630859375 409.099609375 52.51171875 c 128,-1,25
 416.42578125 37.859375 416.42578125 37.859375 416.42578125 17.1494140625 c 128,-1,26
 416.42578125 -3.546875 416.42578125 -3.546875 409.099609375 -18.19921875 c 1,27,-1
 409.09765625 -18.1953125 l 0,28,29
 408.662477617 -19.0685904286 408.662477617 -19.0685904286 408.2109375 -19.890625 c 2,30,-1
 408.1953125 -19.91015625 l 1,31,32
 377.105305042 -81.4053560803 377.105305042 -81.4053560803 336.235216433 -115.711955384 c 128,-1,33
 295.365127824 -150.018554688 295.365127824 -150.018554688 249.947265625 -150.018554688 c 0,34,35
 204.211618576 -150.018554688 204.211618576 -150.018554688 163.13065653 -115.248394668 c 128,-1,36
 122.049694485 -80.4782346482 122.049694485 -80.4782346482 90.900390625 -18.1953125 c 0,37,38
 24.96875 113.66796875 24.96875 113.66796875 24.96875 300.064453125 c 128,-1,39
 24.96875 486.3359375 24.96875 486.3359375 90.900390625 618.19921875 c 0,40,41
 122.050470261 680.37311007 122.050470261 680.37311007 163.014328141 715.031769879 c 128,-1,42
 203.97818602 749.690429688 203.97818602 749.690429688 249.650390625 749.690429688 c 0,43,44
 256.879818024 749.690429688 256.879818024 749.690429688 264.0546875 748.78125 c 0,0,1
250 550 m 128,-1,46
 302 550 302 550 338.5 476.5 c 128,-1,47
 375 403 375 403 375 300 c 128,-1,48
 375 197 375 197 338.5 123.5 c 128,-1,49
 302 50 302 50 250 50 c 128,-1,50
 198 50 198 50 161.5 123.5 c 128,-1,51
 125 197 125 197 125 300 c 128,-1,52
 125 403 125 403 161.5 476.5 c 128,-1,45
 198 550 198 550 250 550 c 128,-1,46
250 450 m 128,-1,54
 219 450 219 450 197 406 c 128,-1,55
 175 362 175 362 175 300 c 128,-1,56
 175 238 175 238 197 194 c 128,-1,57
 219 150 219 150 250 150 c 128,-1,58
 281 150 281 150 303 194 c 128,-1,59
 325 238 325 238 325 300 c 128,-1,60
 325 362 325 362 303 406 c 128,-1,53
 281 450 281 450 250 450 c 128,-1,54
EndSplineSet
EndChar

StartChar: seven
Encoding: 55 55 23
Width: 500
Flags: W
LayerCount: 2
Fore
SplineSet
250 750 m 0,0,1
 343 750 343 750 409 618 c 128,-1,2
 475 486 475 486 475 300 c 0,3,4
 474.939008285 179.157163183 474.939008285 179.157163183 445.329636692 76.3234937293 c 128,-1,5
 415.720265099 -26.5101757241 415.720265099 -26.5101757241 364.773227891 -87.0448478959 c 128,-1,6
 313.826190684 -147.579520068 313.826190684 -147.579520068 253.5625 -149.48828125 c 0,7,8
 251.79273893 -149.998562359 251.79273893 -149.998562359 250 -150 c 0,9,10
 240 -150 240 -150 232.5 -135.5 c 128,-1,11
 225 -121 225 -121 225 -100 c 128,-1,12
 225 -79 225 -79 232.5 -64.5 c 128,-1,13
 240 -50 240 -50 250 -50 c 0,14,15
 322 -50 322 -50 373.5 52.5 c 128,-1,16
 425 155 425 155 425 300 c 128,-1,17
 425 445 425 445 373.5 547.5 c 128,-1,18
 322 650 322 650 250 650 c 128,-1,19
 178 650 178 650 126.5 547.5 c 128,-1,20
 75 445 75 445 75 300 c 0,21,22
 75 279 75 279 67.5 264.5 c 128,-1,23
 60 250 60 250 50 250 c 128,-1,24
 40 250 40 250 32.5 264.5 c 128,-1,25
 25 279 25 279 25 300 c 0,26,-1
 25 299.997070312 l 0,27,28
 25 301.232910156 25 301.232910156 25.029296875 302.453125 c 2,29,-1
 25.03125 302.48828125 l 1,30,31
 25.3675595821 424.093021704 25.3675595821 424.093021704 55.5518440759 527.153605241 c 128,-1,32
 85.7361285698 630.214188778 85.7361285698 630.214188778 137.438390299 690.099649967 c 128,-1,33
 189.140652028 749.985111157 189.140652028 749.985111157 250 750 c 0,0,1
250 550 m 128,-1,35
 302 550 302 550 338.5 476.5 c 128,-1,36
 375 403 375 403 375 300 c 128,-1,37
 375 197 375 197 338.5 123.5 c 128,-1,38
 302 50 302 50 250 50 c 128,-1,39
 198 50 198 50 161.5 123.5 c 128,-1,40
 125 197 125 197 125 300 c 128,-1,41
 125 403 125 403 161.5 476.5 c 128,-1,34
 198 550 198 550 250 550 c 128,-1,35
250 450 m 128,-1,43
 219 450 219 450 197 406 c 128,-1,44
 175 362 175 362 175 300 c 128,-1,45
 175 238 175 238 197 194 c 128,-1,46
 219 150 219 150 250 150 c 128,-1,47
 281 150 281 150 303 194 c 128,-1,48
 325 238 325 238 325 300 c 128,-1,49
 325 362 325 362 303 406 c 128,-1,42
 281 450 281 450 250 450 c 128,-1,43
EndSplineSet
EndChar

StartChar: eight
Encoding: 56 56 24
Width: 500
Flags: W
LayerCount: 2
Fore
SplineSet
233.94921875 748.85546875 m 0,0,1
 242.404418635 750.064453125 242.404418635 750.064453125 250.03125 750.064453125 c 0,2,3
 295.774731949 750.064453125 295.774731949 750.064453125 336.861739329 715.282698603 c 128,-1,4
 377.948746709 680.500944081 377.948746709 680.500944081 409.099609375 618.19921875 c 0,5,6
 474.852539062 486.426283039 474.852539062 486.426283039 474.852539062 300.223632812 c 0,7,8
 474.852539062 118.113806564 474.852539062 118.113806564 411.4375 -12.796875 c 0,9,10
 410.365860819 -15.665257047 410.365860819 -15.665257047 409.099609375 -18.19921875 c 0,11,12
 401.773925781 -32.8505859375 401.773925781 -32.8505859375 391.41796875 -32.8505859375 c 128,-1,13
 381.069824219 -32.8505859375 381.069824219 -32.8505859375 373.744140625 -18.19921875 c 128,-1,14
 366.41796875 -3.546875 366.41796875 -3.546875 366.41796875 17.1630859375 c 128,-1,15
 366.41796875 37.859375 366.41796875 37.859375 373.744140625 52.51171875 c 0,16,17
 425.025390625 155.07421875 425.025390625 155.07421875 425.025390625 300.048828125 c 128,-1,18
 425.025390625 444.92578125 425.025390625 444.92578125 373.744140625 547.48828125 c 0,19,20
 349.520364705 595.936579885 349.520364705 595.936579885 317.53989417 622.993680568 c 128,-1,21
 285.559423634 650.05078125 285.559423634 650.05078125 249.975585938 650.05078125 c 128,-1,22
 214.397203326 650.05078125 214.397203326 650.05078125 182.440656743 622.9981555 c 128,-1,23
 150.484110159 595.945529751 150.484110159 595.945529751 126.255859375 547.48828125 c 0,24,25
 74.974609375 444.92578125 74.974609375 444.92578125 74.974609375 299.951171875 c 128,-1,26
 74.974609375 155.07421875 74.974609375 155.07421875 126.255859375 52.51171875 c 0,27,28
 133.58203125 37.859375 133.58203125 37.859375 133.58203125 17.1494140625 c 128,-1,29
 133.58203125 -3.546875 133.58203125 -3.546875 126.255859375 -18.19921875 c 128,-1,30
 118.930175781 -32.8505859375 118.930175781 -32.8505859375 108.57421875 -32.8505859375 c 128,-1,31
 98.2260742188 -32.8505859375 98.2260742188 -32.8505859375 90.900390625 -18.19921875 c 1,32,-1
 90.90234375 -18.1953125 l 0,33,34
 90.4727521525 -17.3404395885 90.4727521525 -17.3404395885 90.0546875 -16.421875 c 2,35,-1
 90.044921875 -16.390625 l 1,36,37
 24.9912109375 115.162505118 24.9912109375 115.162505118 24.9912109375 300.104492188 c 0,38,39
 24.9912109375 486.342173193 24.9912109375 486.342173193 90.90234375 618.19921875 c 0,40,41
 119.187289267 674.769109783 119.187289267 674.769109783 156.004490218 708.870379175 c 128,-1,42
 192.821691169 742.971648567 192.821691169 742.971648567 233.94921875 748.85546875 c 0,0,1
250 550 m 128,-1,44
 302 550 302 550 338.5 476.5 c 128,-1,45
 375 403 375 403 375 300 c 128,-1,46
 375 197 375 197 338.5 123.5 c 128,-1,47
 302 50 302 50 250 50 c 128,-1,48
 198 50 198 50 161.5 123.5 c 128,-1,49
 125 197 125 197 125 300 c 128,-1,50
 125 403 125 403 161.5 476.5 c 128,-1,43
 198 550 198 550 250 550 c 128,-1,44
250 450 m 128,-1,52
 219 450 219 450 197 406 c 128,-1,53
 175 362 175 362 175 300 c 128,-1,54
 175 238 175 238 197 194 c 128,-1,55
 219 150 219 150 250 150 c 128,-1,56
 281 150 281 150 303 194 c 128,-1,57
 325 238 325 238 325 300 c 128,-1,58
 325 362 325 362 303 406 c 128,-1,51
 281 450 281 450 250 450 c 128,-1,52
EndSplineSet
EndChar

StartChar: nine
Encoding: 57 57 25
Width: 500
Flags: W
LayerCount: 2
Fore
SplineSet
250 750 m 0,0,1
 310.42122453 749.877536227 310.42122453 749.877536227 361.838144266 690.658662308 c 128,-1,2
 413.255064001 631.43978839 413.255064001 631.43978839 443.522532818 529.545764775 c 128,-1,3
 473.790001634 427.651741159 473.790001634 427.651741159 474.744140625 307.125 c 0,4,5
 475 303.57550578 475 303.57550578 475 300 c 0,6,7
 475 279 475 279 467.5 264.5 c 128,-1,8
 460 250 460 250 450 250 c 128,-1,9
 440 250 440 250 432.5 264.5 c 128,-1,10
 425 279 425 279 425 300 c 0,11,12
 425 445 425 445 373.5 547.5 c 128,-1,13
 322 650 322 650 250 650 c 128,-1,14
 178 650 178 650 126.5 547.5 c 128,-1,15
 75 445 75 445 75 300 c 128,-1,16
 75 155 75 155 126.5 52.5 c 128,-1,17
 178 -50 178 -50 250 -50 c 0,18,19
 260 -50 260 -50 267.5 -64.5 c 128,-1,20
 275 -79 275 -79 275 -100 c 128,-1,21
 275 -121 275 -121 267.5 -135.5 c 128,-1,22
 260 -150 260 -150 250 -150 c 0,23,-1
 250.000976562 -150.000976562 l 0,24,25
 249.394458008 -150.000976562 249.394458008 -150.000976562 248.7734375 -149.94140625 c 2,26,-1
 248.755859375 -149.9375 l 1,27,28
 187.953512546 -149.264881095 187.953512546 -149.264881095 136.423305952 -88.8962921038 c 128,-1,29
 84.8930993592 -28.5277031129 84.8930993592 -28.5277031129 54.9503919643 74.8767608538 c 128,-1,30
 25.0076845693 178.28122482 25.0076845693 178.28122482 25 300 c 0,31,32
 25 486 25 486 91 618 c 128,-1,33
 157 750 157 750 250 750 c 0,0,1
250 550 m 128,-1,35
 302 550 302 550 338.5 476.5 c 128,-1,36
 375 403 375 403 375 300 c 128,-1,37
 375 197 375 197 338.5 123.5 c 128,-1,38
 302 50 302 50 250 50 c 128,-1,39
 198 50 198 50 161.5 123.5 c 128,-1,40
 125 197 125 197 125 300 c 128,-1,41
 125 403 125 403 161.5 476.5 c 128,-1,34
 198 550 198 550 250 550 c 128,-1,35
250 450 m 128,-1,43
 219 450 219 450 197 406 c 128,-1,44
 175 362 175 362 175 300 c 128,-1,45
 175 238 175 238 197 194 c 128,-1,46
 219 150 219 150 250 150 c 128,-1,47
 281 150 281 150 303 194 c 128,-1,48
 325 238 325 238 325 300 c 128,-1,49
 325 362 325 362 303 406 c 128,-1,42
 281 450 281 450 250 450 c 128,-1,43
EndSplineSet
EndChar

StartChar: colon
Encoding: 58 58 26
Width: 500
Flags: W
LayerCount: 2
Fore
SplineSet
104.66796875 632.2265625 m 0,0,1
 106.634460449 632.849609375 106.634460449 632.849609375 108.58203125 632.849609375 c 0,2,3
 118.929873602 632.849609375 118.929873602 632.849609375 126.255859375 618.19921875 c 2,4,-1
 196.966796875 476.774305556 l 0,5,6
 267.677734375 335.349392361 267.677734375 335.349392361 338.388671875 193.927517361 c 128,-1,7
 409.099609375 52.5056423611 409.099609375 52.5056423611 409.099609375 52.51171875 c 1,8,9
 416.42578125 37.859375 416.42578125 37.859375 416.42578125 17.1494140625 c 128,-1,10
 416.42578125 -3.546875 416.42578125 -3.546875 409.099609375 -18.19921875 c 128,-1,11
 401.773925781 -32.8505859375 401.773925781 -32.8505859375 391.41796875 -32.8505859375 c 128,-1,12
 381.069824219 -32.8505859375 381.069824219 -32.8505859375 373.744140625 -18.19921875 c 2,13,-1
 303.033203125 123.225694444 l 0,14,15
 232.322265625 264.650607639 232.322265625 264.650607639 161.611328125 406.072482639 c 128,-1,16
 90.900390625 547.494357639 90.900390625 547.494357639 90.900390625 547.48828125 c 1,17,18
 83.57421875 562.140625 83.57421875 562.140625 83.57421875 582.850585938 c 128,-1,19
 83.57421875 603.546875 83.57421875 603.546875 90.900390625 618.19921875 c 0,20,21
 96.6451240435 629.687147506 96.6451240435 629.687147506 104.66796875 632.2265625 c 0,0,1
250 750 m 128,-1,23
 260 750 260 750 267.5 735.5 c 128,-1,24
 275 721 275 721 275 700 c 128,-1,25
 275 679 275 679 267.5 664.5 c 128,-1,26
 260 650 260 650 250 650 c 128,-1,27
 240 650 240 650 232.5 664.5 c 128,-1,28
 225 679 225 679 225 700 c 128,-1,29
 225 721 225 721 232.5 735.5 c 128,-1,22
 240 750 240 750 250 750 c 128,-1,23
50 350 m 128,-1,31
 60 350 60 350 67.5 335.5 c 128,-1,32
 75 321 75 321 75 300 c 128,-1,33
 75 279 75 279 67.5 264.5 c 128,-1,34
 60 250 60 250 50 250 c 128,-1,35
 40 250 40 250 32.5 264.5 c 128,-1,36
 25 279 25 279 25 300 c 128,-1,37
 25 321 25 321 32.5 335.5 c 128,-1,30
 40 350 40 350 50 350 c 128,-1,31
250 350 m 128,-1,39
 260 350 260 350 267.5 335.5 c 128,-1,40
 275 321 275 321 275 300 c 128,-1,41
 275 279 275 279 267.5 264.5 c 128,-1,42
 260 250 260 250 250 250 c 128,-1,43
 240 250 240 250 232.5 264.5 c 128,-1,44
 225 279 225 279 225 300 c 128,-1,45
 225 321 225 321 232.5 335.5 c 128,-1,38
 240 350 240 350 250 350 c 128,-1,39
450 350 m 128,-1,47
 460 350 460 350 467.5 335.5 c 128,-1,48
 475 321 475 321 475 300 c 128,-1,49
 475 279 475 279 467.5 264.5 c 128,-1,50
 460 250 460 250 450 250 c 128,-1,51
 440 250 440 250 432.5 264.5 c 128,-1,52
 425 279 425 279 425 300 c 128,-1,53
 425 321 425 321 432.5 335.5 c 128,-1,46
 440 350 440 350 450 350 c 128,-1,47
250 -50 m 128,-1,55
 260 -50 260 -50 267.5 -64.5 c 128,-1,56
 275 -79 275 -79 275 -100 c 128,-1,57
 275 -121 275 -121 267.5 -135.5 c 128,-1,58
 260 -150 260 -150 250 -150 c 128,-1,59
 240 -150 240 -150 232.5 -135.5 c 128,-1,60
 225 -121 225 -121 225 -100 c 128,-1,61
 225 -79 225 -79 232.5 -64.5 c 128,-1,54
 240 -50 240 -50 250 -50 c 128,-1,55
EndSplineSet
EndChar

StartChar: semicolon
Encoding: 59 59 27
Width: 500
Flags: W
LayerCount: 2
Fore
SplineSet
104.66796875 632.2265625 m 0,0,1
 106.634460449 632.849609375 106.634460449 632.849609375 108.58203125 632.849609375 c 0,2,3
 118.929873602 632.849609375 118.929873602 632.849609375 126.255859375 618.19921875 c 2,4,-1
 196.966796875 476.774305556 l 0,5,6
 267.677734375 335.349392361 267.677734375 335.349392361 338.388671875 193.927517361 c 128,-1,7
 409.099609375 52.5056423611 409.099609375 52.5056423611 409.099609375 52.51171875 c 1,8,9
 416.42578125 37.859375 416.42578125 37.859375 416.42578125 17.1494140625 c 128,-1,10
 416.42578125 -3.546875 416.42578125 -3.546875 409.099609375 -18.19921875 c 128,-1,11
 401.773925781 -32.8505859375 401.773925781 -32.8505859375 391.41796875 -32.8505859375 c 128,-1,12
 381.069824219 -32.8505859375 381.069824219 -32.8505859375 373.744140625 -18.19921875 c 2,13,-1
 303.033203125 123.225694444 l 0,14,15
 232.322265625 264.650607639 232.322265625 264.650607639 161.611328125 406.072482639 c 128,-1,16
 90.900390625 547.494357639 90.900390625 547.494357639 90.900390625 547.48828125 c 1,17,18
 83.57421875 562.140625 83.57421875 562.140625 83.57421875 582.850585938 c 128,-1,19
 83.57421875 603.546875 83.57421875 603.546875 90.900390625 618.19921875 c 0,20,21
 96.6451240435 629.687147506 96.6451240435 629.687147506 104.66796875 632.2265625 c 0,0,1
50 350 m 128,-1,23
 60 350 60 350 67.5 335.5 c 128,-1,24
 75 321 75 321 75 300 c 128,-1,25
 75 279 75 279 67.5 264.5 c 128,-1,26
 60 250 60 250 50 250 c 128,-1,27
 40 250 40 250 32.5 264.5 c 128,-1,28
 25 279 25 279 25 300 c 128,-1,29
 25 321 25 321 32.5 335.5 c 128,-1,22
 40 350 40 350 50 350 c 128,-1,23
250 350 m 128,-1,31
 260 350 260 350 267.5 335.5 c 128,-1,32
 275 321 275 321 275 300 c 128,-1,33
 275 279 275 279 267.5 264.5 c 128,-1,34
 260 250 260 250 250 250 c 128,-1,35
 240 250 240 250 232.5 264.5 c 128,-1,36
 225 279 225 279 225 300 c 128,-1,37
 225 321 225 321 232.5 335.5 c 128,-1,30
 240 350 240 350 250 350 c 128,-1,31
450 350 m 128,-1,39
 460 350 460 350 467.5 335.5 c 128,-1,40
 475 321 475 321 475 300 c 128,-1,41
 475 279 475 279 467.5 264.5 c 128,-1,42
 460 250 460 250 450 250 c 128,-1,43
 440 250 440 250 432.5 264.5 c 128,-1,44
 425 279 425 279 425 300 c 128,-1,45
 425 321 425 321 432.5 335.5 c 128,-1,38
 440 350 440 350 450 350 c 128,-1,39
EndSplineSet
EndChar

StartChar: less
Encoding: 60 60 28
Width: 500
Flags: W
LayerCount: 2
Fore
SplineSet
250 550 m 0,0,1
 266.678808614 549.786857716 266.678808614 549.786857716 282.411532837 541.034625569 c 128,-1,2
 298.14425706 532.282393421 298.14425706 532.282393421 309.604733032 518.571850261 c 128,-1,3
 321.065209005 504.861307101 321.065209005 504.861307101 327.428195434 495.309955159 c 128,-1,4
 333.791181863 485.758603216 333.791181863 485.758603216 338.388671875 476.77734375 c 0,5,6
 345.710693359 462.132568359 345.710693359 462.132568359 345.710693359 441.421875 c 128,-1,7
 345.710693359 420.711181641 345.710693359 420.711181641 338.388671875 406.06640625 c 128,-1,8
 331.066650391 391.421630859 331.066650391 391.421630859 320.7109375 391.421630859 c 128,-1,9
 310.355224609 391.421630859 310.355224609 391.421630859 303.033203125 406.06640625 c 1,10,-1
 302.83203125 405.6640625 l 1,11,12
 280.99794035 449.667035799 280.99794035 449.667035799 250 450 c 0,13,14
 219 450 219 450 197 406 c 128,-1,15
 175 362 175 362 175 300 c 128,-1,16
 175 238 175 238 197 194 c 128,-1,17
 219 150 219 150 250 150 c 0,18,19
 280.99794035 150.332964201 280.99794035 150.332964201 302.83203125 194.3359375 c 1,20,-1
 303.033203125 193.93359375 l 1,21,22
 310.355224609 208.578369141 310.355224609 208.578369141 320.7109375 208.578369141 c 128,-1,23
 331.066650391 208.578369141 331.066650391 208.578369141 338.388671875 193.93359375 c 128,-1,24
 345.710693359 179.288818359 345.710693359 179.288818359 345.710693359 158.578125 c 128,-1,25
 345.710693359 137.867431641 345.710693359 137.867431641 338.388671875 123.22265625 c 0,26,27
 333.796435049 114.250482545 333.796435049 114.250482545 327.437636474 104.703841223 c 128,-1,28
 321.0788379 95.1571999009 321.0788379 95.1571999009 309.61763086 81.4415902957 c 128,-1,29
 298.156423819 67.7259806906 298.156423819 67.7259806906 282.419875244 58.9695577756 c 128,-1,30
 266.683326668 50.2131348606 266.683326668 50.2131348606 250 50 c 0,31,32
 198 50 198 50 161.5 123 c 128,-1,33
 125 196 125 196 125 300 c 128,-1,34
 125 404 125 404 161.5 477 c 128,-1,35
 198 550 198 550 250 550 c 0,0,1
EndSplineSet
EndChar

StartChar: equal
Encoding: 61 61 29
Width: 500
Flags: W
LayerCount: 2
Fore
SplineSet
250 550 m 0,0,1
 266.678795902 549.786857879 266.678795902 549.786857879 282.411240749 541.034862246 c 128,-1,2
 298.143685596 532.282866613 298.143685596 532.282866613 309.60452158 518.571613584 c 128,-1,3
 321.065357564 504.860360555 321.065357564 504.860360555 327.427628688 495.310191836 c 128,-1,4
 333.789899813 485.760023117 333.789899813 485.760023117 338.388671875 476.77734375 c 0,5,6
 345.710693359 462.132568359 345.710693359 462.132568359 345.710693359 441.421875 c 128,-1,7
 345.710693359 420.711181641 345.710693359 420.711181641 338.388671875 406.06640625 c 128,-1,8
 331.066650391 391.421630859 331.066650391 391.421630859 320.7109375 391.421630859 c 128,-1,9
 310.355224609 391.421630859 310.355224609 391.421630859 303.033203125 406.06640625 c 0,10,11
 281.065615992 450 281.065615992 450 250 450 c 128,-1,12
 218.932803492 450 218.932803492 450 196.966796875 406.06640625 c 0,13,14
 189.644775391 391.421630859 189.644775391 391.421630859 179.2890625 391.421630859 c 128,-1,15
 168.933349609 391.421630859 168.933349609 391.421630859 161.611328125 406.06640625 c 128,-1,16
 154.289306641 420.711181641 154.289306641 420.711181641 154.289306641 441.421875 c 128,-1,17
 154.289306641 462.132568359 154.289306641 462.132568359 161.611328125 476.77734375 c 0,18,19
 166.203564951 485.749517455 166.203564951 485.749517455 172.562363526 495.296158777 c 128,-1,20
 178.9211621 504.842800099 178.9211621 504.842800099 190.38236914 518.558409704 c 128,-1,21
 201.843576181 532.274019309 201.843576181 532.274019309 217.580124756 541.030442224 c 128,-1,22
 233.316673332 549.786865139 233.316673332 549.786865139 250 550 c 0,0,1
179.2890625 208.578125 m 0,23,-1
 179.325195312 208.584960938 l 0,24,25
 189.66008764 208.584960938 189.66008764 208.584960938 196.966796875 193.93359375 c 0,26,27
 218.934384008 150 218.934384008 150 250 150 c 128,-1,28
 281.067196508 150 281.067196508 150 303.033203125 193.93359375 c 0,29,30
 310.355224609 208.578369141 310.355224609 208.578369141 320.7109375 208.578369141 c 128,-1,31
 331.066650391 208.578369141 331.066650391 208.578369141 338.388671875 193.93359375 c 128,-1,32
 345.710693359 179.288818359 345.710693359 179.288818359 345.710693359 158.578125 c 128,-1,33
 345.710693359 137.867431641 345.710693359 137.867431641 338.388671875 123.22265625 c 0,34,35
 333.796435049 114.250482545 333.796435049 114.250482545 327.437636474 104.703841223 c 128,-1,36
 321.0788379 95.1571999009 321.0788379 95.1571999009 309.61763086 81.4415902957 c 128,-1,37
 298.156423819 67.7259806906 298.156423819 67.7259806906 282.419875244 58.9695577756 c 128,-1,38
 266.683326668 50.2131348606 266.683326668 50.2131348606 250 50 c 0,39,40
 233.321191386 50.2131422836 233.321191386 50.2131422836 217.588467163 58.9653744312 c 128,-1,41
 201.85574294 67.7176065788 201.85574294 67.7176065788 190.395266968 81.4281497388 c 128,-1,42
 178.934790995 95.1386928987 178.934790995 95.1386928987 172.571804566 104.690044841 c 128,-1,43
 166.208818137 114.241396784 166.208818137 114.241396784 161.611328125 123.22265625 c 0,44,45
 154.289306641 137.867431641 154.289306641 137.867431641 154.289306641 158.578125 c 128,-1,46
 154.289306641 179.288818359 154.289306641 179.288818359 161.611328125 193.93359375 c 128,-1,47
 168.914628244 208.578125 168.914628244 208.578125 179.254882812 208.578125 c 0,48,-1
 179.2890625 208.578125 l 0,23,-1
EndSplineSet
EndChar

StartChar: greater
Encoding: 62 62 30
Width: 500
Flags: W
LayerCount: 2
Fore
SplineSet
250 550 m 0,0,1
 302 550 302 550 338.5 477 c 128,-1,2
 375 404 375 404 375 300 c 128,-1,3
 375 196 375 196 338.5 123 c 128,-1,4
 302 50 302 50 250 50 c 0,5,6
 233.321191386 50.2131422836 233.321191386 50.2131422836 217.588467163 58.9653744312 c 128,-1,7
 201.85574294 67.7176065788 201.85574294 67.7176065788 190.395266968 81.4281497388 c 128,-1,8
 178.934790995 95.1386928987 178.934790995 95.1386928987 172.571804566 104.690044841 c 128,-1,9
 166.208818137 114.241396784 166.208818137 114.241396784 161.611328125 123.22265625 c 0,10,11
 154.289306641 137.867431641 154.289306641 137.867431641 154.289306641 158.578125 c 128,-1,12
 154.289306641 179.288818359 154.289306641 179.288818359 161.611328125 193.93359375 c 128,-1,13
 168.933349609 208.578369141 168.933349609 208.578369141 179.2890625 208.578369141 c 128,-1,14
 189.644775391 208.578369141 189.644775391 208.578369141 196.966796875 193.93359375 c 1,15,-1
 197.16796875 194.3359375 l 1,16,17
 219.00205965 150.332964201 219.00205965 150.332964201 250 150 c 0,18,19
 281 150 281 150 303 194 c 128,-1,20
 325 238 325 238 325 300 c 128,-1,21
 325 362 325 362 303 406 c 128,-1,22
 281 450 281 450 250 450 c 0,23,24
 219.00205965 449.667035799 219.00205965 449.667035799 197.16796875 405.6640625 c 1,25,-1
 196.966796875 406.06640625 l 1,26,27
 189.644775391 391.421630859 189.644775391 391.421630859 179.2890625 391.421630859 c 128,-1,28
 168.933349609 391.421630859 168.933349609 391.421630859 161.611328125 406.06640625 c 128,-1,29
 154.289306641 420.711181641 154.289306641 420.711181641 154.289306641 441.421875 c 128,-1,30
 154.289306641 462.132568359 154.289306641 462.132568359 161.611328125 476.77734375 c 0,31,32
 166.203564951 485.749517455 166.203564951 485.749517455 172.562363526 495.296158777 c 128,-1,33
 178.9211621 504.842800099 178.9211621 504.842800099 190.38236914 518.558409704 c 128,-1,34
 201.843576181 532.274019309 201.843576181 532.274019309 217.580124756 541.030442224 c 128,-1,35
 233.316673332 549.786865139 233.316673332 549.786865139 250 550 c 0,0,1
EndSplineSet
EndChar

StartChar: question
Encoding: 63 63 31
Width: 500
Flags: W
LayerCount: 2
Fore
SplineSet
250 750 m 128,-1,1
 260 750 260 750 267.5 735.5 c 128,-1,2
 275 721 275 721 275 700 c 128,-1,3
 275 679 275 679 267.5 664.5 c 128,-1,4
 260 650 260 650 250 650 c 128,-1,5
 240 650 240 650 232.5 664.5 c 128,-1,6
 225 679 225 679 225 700 c 128,-1,7
 225 721 225 721 232.5 735.5 c 128,-1,0
 240 750 240 750 250 750 c 128,-1,1
250 350 m 128,-1,9
 260 350 260 350 267.5 335.5 c 128,-1,10
 275 321 275 321 275 300 c 128,-1,11
 275 279 275 279 267.5 264.5 c 128,-1,12
 260 250 260 250 250 250 c 128,-1,13
 240 250 240 250 232.5 264.5 c 128,-1,14
 225 279 225 279 225 300 c 128,-1,15
 225 321 225 321 232.5 335.5 c 128,-1,8
 240 350 240 350 250 350 c 128,-1,9
250 -50 m 128,-1,17
 260 -50 260 -50 267.5 -64.5 c 128,-1,18
 275 -79 275 -79 275 -100 c 128,-1,19
 275 -121 275 -121 267.5 -135.5 c 128,-1,20
 260 -150 260 -150 250 -150 c 128,-1,21
 240 -150 240 -150 232.5 -135.5 c 128,-1,22
 225 -121 225 -121 225 -100 c 128,-1,23
 225 -79 225 -79 232.5 -64.5 c 128,-1,16
 240 -50 240 -50 250 -50 c 128,-1,17
EndSplineSet
EndChar

StartChar: at
Encoding: 64 64 32
Width: 500
Flags: W
LayerCount: 2
Fore
SplineSet
234.634765625 748.90625 m 0,0,1
 241.313559166 749.690429688 241.313559166 749.690429688 247.635742188 749.690429688 c 0,2,3
 254.966879791 749.690429688 254.966879791 749.690429688 262.255859375 748.75390625 c 0,4,-1
 262.512695312 748.754882812 l 0,5,6
 263.284057617 748.754882812 263.284057617 748.754882812 264.193359375 748.7421875 c 0,7,8
 279.674450873 746.726004873 279.674450873 746.726004873 294.861328125 740.484375 c 2,9,-1
 294.861328125 740.484375 l 0,10,-1
 295.583984375 740.2734375 l 1,11,12
 359.508091582 713.727809168 359.508091582 713.727809168 406.3984375 622.875 c 0,13,14
 406.984396595 621.92080726 406.984396595 621.92080726 407.53515625 620.90625 c 0,15,16
 408.345196719 619.617747566 408.345196719 619.617747566 409.099609375 618.19921875 c 2,17,-1
 409.099609375 618.1953125 l 1,18,-1
 409.1171875 618.15625 l 1,19,20
 475.030273438 486.296878912 475.030273438 486.296878912 475.030273438 299.93359375 c 128,-1,21
 475.030273438 113.663690294 475.030273438 113.663690294 409.099609375 -18.19921875 c 1,22,-1
 409.056640625 -18.2734375 l 0,23,24
 408.651150414 -19.0872734873 408.651150414 -19.0872734873 408.2109375 -19.890625 c 2,25,-1
 408.1953125 -19.91015625 l 0,26,27
 404.161201789 -27.1715555297 404.161201789 -27.1715555297 399.958984375 -34.03125 c 0,28,29
 392.517647494 -48.011634335 392.517647494 -48.011634335 384.482421875 -60.57421875 c 0,30,31
 377.212885614 -70.7756107323 377.212885614 -70.7756107323 369.57421875 -79.7890625 c 0,32,33
 363.834354051 -87.5964498918 363.834354051 -87.5964498918 357.861328125 -94.6875 c 0,34,35
 347.932897635 -105.048950754 347.932897635 -105.048950754 337.53515625 -113.390625 c 0,36,37
 333.360624007 -117.369176731 333.360624007 -117.369176731 329.099609375 -121.0078125 c 0,38,39
 317.072792236 -129.699136811 317.072792236 -129.699136811 304.6328125 -135.609375 c 0,40,41
 301.698067889 -137.39548286 301.698067889 -137.39548286 298.765625 -139.0078125 c 0,42,43
 284.973985187 -144.921273223 284.973985187 -144.921273223 270.921875 -147.34375 c 0,44,45
 269.213245948 -147.852392353 269.213245948 -147.852392353 267.48046875 -148.3125 c 0,46,47
 259.164412611 -149.538085938 259.164412611 -149.538085938 251.126953125 -149.538085938 c 0,48,49
 244.414817366 -149.538085938 244.414817366 -149.538085938 237.744140625 -148.75390625 c 0,50,-1
 237.487304688 -148.754882812 l 0,51,52
 236.715942383 -148.754882812 236.715942383 -148.754882812 235.806640625 -148.7421875 c 0,53,54
 220.325549127 -146.726004873 220.325549127 -146.726004873 205.138671875 -140.484375 c 2,55,-1
 205.138671875 -140.484375 l 0,56,-1
 204.416015625 -140.2734375 l 1,57,58
 140.491908418 -113.727809168 140.491908418 -113.727809168 93.6015625 -22.875 c 0,59,60
 93.0156034053 -21.9208072597 93.0156034053 -21.9208072597 92.46484375 -20.90625 c 0,61,62
 91.6548032806 -19.6177475657 91.6548032806 -19.6177475657 90.900390625 -18.19921875 c 2,63,-1
 90.900390625 -18.1953125 l 1,64,-1
 90.89453125 -18.18359375 l 1,65,66
 24.96875 113.679035163 24.96875 113.679035163 24.96875 300.064453125 c 128,-1,67
 24.96875 486.3359375 24.96875 486.3359375 90.900390625 618.19921875 c 1,68,-1
 90.943359375 618.2734375 l 0,69,70
 91.3488495862 619.087273487 91.3488495862 619.087273487 91.7890625 619.890625 c 2,71,-1
 91.8046875 619.91015625 l 0,72,73
 95.838798211 627.17155553 95.838798211 627.17155553 100.041015625 634.03125 c 0,74,75
 107.482352506 648.011634335 107.482352506 648.011634335 115.517578125 660.57421875 c 0,76,77
 122.787114386 670.775610732 122.787114386 670.775610732 130.42578125 679.7890625 c 0,78,79
 136.165645949 687.596449892 136.165645949 687.596449892 142.138671875 694.6875 c 0,80,81
 152.067102365 705.048950754 152.067102365 705.048950754 162.46484375 713.390625 c 0,82,83
 166.639375993 717.369176731 166.639375993 717.369176731 170.900390625 721.0078125 c 0,84,85
 182.927207764 729.699136811 182.927207764 729.699136811 195.3671875 735.609375 c 0,86,87
 198.301932111 737.39548286 198.301932111 737.39548286 201.234375 739.0078125 c 0,88,89
 215.026014813 744.921273223 215.026014813 744.921273223 229.078125 747.34375 c 0,90,91
 230.786754052 747.852392353 230.786754052 747.852392353 232.51953125 748.3125 c 0,92,93
 233.536076612 748.607990933 233.536076612 748.607990933 234.634765625 748.90625 c 0,0,1
250 650 m 0,94,95
 193.138895157 650 193.138895157 650 147.13671875 583.15625 c 0,96,97
 146.195749122 581.570430579 146.195749122 581.570430579 145.32421875 580.0625 c 1,98,-1
 181.150390625 508.41015625 l 1,99,100
 212.451806609 549.885889314 212.451806609 549.885889314 250 550 c 0,101,102
 302 550 302 550 338.5 476.5 c 128,-1,103
 375 403 375 403 375 300 c 0,104,105
 374.94366735 224.904244079 374.94366735 224.904244079 354.205078125 162.30078125 c 1,106,-1
 390.103515625 90.50390625 l 1,107,108
 424.975585938 183.776359849 424.975585938 183.776359849 424.975585938 300.147460938 c 0,109,110
 424.975585938 444.946349269 424.975585938 444.946349269 373.744140625 547.48828125 c 0,111,112
 349.523587762 595.929386976 349.523587762 595.929386976 317.555320863 622.964693488 c 128,-1,113
 285.587053963 650 285.587053963 650 250 650 c 0,94,95
109.96875 509.3515625 m 1,114,115
 75.0966796875 416.079108901 75.0966796875 416.079108901 75.0966796875 299.70703125 c 0,116,117
 75.0966796875 155.029251795 75.0966796875 155.029251795 126.255859375 52.51171875 c 0,118,119
 150.493180352 4.0370767952 150.493180352 4.0370767952 182.378309192 -22.9868326962 c 128,-1,120
 214.263438032 -50.0107421875 214.263438032 -50.0107421875 249.830078125 -50.0107421875 c 0,121,122
 263.740849633 -50.0107421875 263.740849633 -50.0107421875 277.376953125 -45.69140625 c 0,123,124
 320.081221721 -31.9809961908 320.081221721 -31.9809961908 354.67578125 19.9375 c 1,125,-1
 318.849609375 91.58984375 l 1,126,127
 287.548193391 50.1141106858 287.548193391 50.1141106858 250 50 c 0,128,129
 198 50 198 50 161.5 123.5 c 128,-1,130
 125 197 125 197 125 300 c 0,131,132
 125.05633265 375.095755921 125.05633265 375.095755921 145.794921875 437.69921875 c 1,133,-1
 109.96875 509.3515625 l 1,114,115
250 450 m 0,134,135
 233.094914628 449.702106693 233.094914628 449.702106693 217.890625 434.9296875 c 1,136,-1
 317.46484375 235.78125 l 1,137,138
 324.850320856 266.18834494 324.850320856 266.18834494 325 300 c 0,139,140
 325 362 325 362 303 406 c 128,-1,141
 281 450 281 450 250 450 c 0,134,135
182.53515625 364.21875 m 1,142,143
 175.149679144 333.81165506 175.149679144 333.81165506 175 300 c 0,144,145
 175 238 175 238 197 194 c 128,-1,146
 219 150 219 150 250 150 c 0,147,148
 266.905085372 150.297893307 266.905085372 150.297893307 282.109375 165.0703125 c 1,149,-1
 182.53515625 364.21875 l 1,142,143
EndSplineSet
EndChar

StartChar: A
Encoding: 65 65 33
Width: 500
Flags: W
LayerCount: 2
Fore
SplineSet
250 750 m 0,0,1
 310.42122453 749.877536227 310.42122453 749.877536227 361.838144266 690.658662308 c 128,-1,2
 413.255064001 631.43978839 413.255064001 631.43978839 443.522532818 529.545764775 c 128,-1,3
 473.790001634 427.651741159 473.790001634 427.651741159 474.744140625 307.125 c 0,4,5
 475 303.57550578 475 303.57550578 475 300 c 0,6,7
 475 279 475 279 467.5 264.5 c 128,-1,8
 460 250 460 250 450 250 c 128,-1,9
 440 250 440 250 432.5 264.5 c 128,-1,10
 425 279 425 279 425 300 c 0,11,12
 425 445 425 445 373.5 547.5 c 128,-1,13
 322 650 322 650 250 650 c 0,14,15
 191.88667949 649.671012924 191.88667949 649.671012924 145.416015625 579.880859375 c 1,16,-1
 175.980577257 518.747992622 l 0,17,18
 206.545138889 457.615125868 206.545138889 457.615125868 237.110568576 396.483778212 c 128,-1,19
 267.675998264 335.352430556 267.675998264 335.352430556 267.677734375 335.35546875 c 1,20,21
 275 320.7109375 275 320.7109375 275 300 c 0,22,23
 275 279 275 279 267.5 264.5 c 128,-1,24
 260 250 260 250 250 250 c 0,25,26
 239.659860931 250.074790397 239.659860931 250.074790397 232.3671875 264.734375 c 1,27,-1
 232.322265625 264.64453125 l 1,28,-1
 109.986328125 509.31640625 l 1,29,30
 83.2274062072 438.022872939 83.2274062072 438.022872939 76.78125 349.810546875 c 0,31,32
 75 325.03108481 75 325.03108481 75 300 c 0,33,34
 75 279 75 279 67.5 264.5 c 128,-1,35
 60 250 60 250 50 250 c 128,-1,36
 40 250 40 250 32.5 264.5 c 128,-1,37
 25 279 25 279 25 300 c 0,38,39
 25.2236170122 310.779782677 25.2236170122 310.779782677 25.708984375 321.595703125 c 0,40,41
 25.9775654394 340.999963039 25.9775654394 340.999963039 27.078125 360.265625 c 0,42,43
 27.9208254734 369.793600931 27.9208254734 369.793600931 28.95703125 379.15625 c 0,44,45
 30.5038115145 398.670265919 30.5038115145 398.670265919 32.90625 417.880859375 c 0,46,47
 34.2537391096 426.368863919 34.2537391096 426.368863919 35.7734375 434.775390625 c 0,48,49
 38.6617957328 454.405637922 38.6617957328 454.405637922 42.42578125 473.419921875 c 0,50,51
 44.3040163984 481.433920519 44.3040163984 481.433920519 46.34765625 489.328125 c 0,52,53
 50.4961020535 508.082618148 50.4961020535 508.082618148 55.482421875 526.009765625 c 0,54,55
 57.8463201969 533.395121631 57.8463201969 533.395121631 60.349609375 540.58203125 c 0,56,57
 65.7071112251 558.190879243 65.7071112251 558.190879243 71.849609375 574.75 c 0,58,59
 74.5994020303 581.270648024 74.5994020303 581.270648024 77.513671875 587.66796875 c 0,60,61
 83.6174625194 602.771869944 83.6174625194 602.771869944 90.357421875 616.78515625 c 0,62,63
 90.6325840381 617.529001218 90.6325840381 617.529001218 90.900390625 618.19921875 c 0,64,-1
 91.166015625 618.6171875 l 0,65,-1
 91.25390625 618.81640625 l 0,66,67
 94.3814102677 624.515995162 94.3814102677 624.515995162 97.62109375 629.986328125 c 0,68,69
 105.17406106 644.455318184 105.17406106 644.455318184 113.35546875 657.447265625 c 0,70,71
 116.894183723 662.373625766 116.894183723 662.373625766 120.5078125 667.00390625 c 0,72,73
 128.879217342 679.292314408 128.879217342 679.292314408 137.783203125 689.990234375 c 0,74,75
 141.77002289 694.122751872 141.77002289 694.122751872 145.83984375 697.935546875 c 0,76,77
 154.779499554 707.747328228 154.779499554 707.747328228 164.123046875 715.900390625 c 0,78,79
 168.572019717 719.130892702 168.572019717 719.130892702 173.08203125 721.982421875 c 0,80,81
 182.363457673 729.189927519 182.363457673 729.189927519 191.919921875 734.7265625 c 0,82,83
 197.471446083 737.230075016 197.471446083 737.230075016 203.078125 739.16796875 c 0,84,85
 211.830172552 743.371918371 211.830172552 743.371918371 220.71484375 746.162109375 c 0,86,87
 235.300162935 749.995695089 235.300162935 749.995695089 250 750 c 0,0,1
EndSplineSet
EndChar

StartChar: B
Encoding: 66 66 34
Width: 500
Flags: W
LayerCount: 2
Fore
SplineSet
264.0546875 748.78125 m 0,0,1
 346.829287668 738.299979166 346.829287668 738.299979166 406.3984375 622.875 c 0,2,3
 407.835519154 620.725942866 407.835519154 620.725942866 409.099609375 618.19921875 c 0,4,5
 416.42578125 603.546875 416.42578125 603.546875 416.42578125 582.836914062 c 128,-1,6
 416.42578125 562.140625 416.42578125 562.140625 409.099609375 547.48828125 c 128,-1,7
 401.773925781 532.836914062 401.773925781 532.836914062 391.41796875 532.836914062 c 128,-1,8
 381.069824219 532.836914062 381.069824219 532.836914062 373.744140625 547.48828125 c 0,9,10
 349.520364705 595.936579885 349.520364705 595.936579885 317.53989417 622.993680568 c 128,-1,11
 285.559423634 650.05078125 285.559423634 650.05078125 249.975585938 650.05078125 c 128,-1,12
 214.397203326 650.05078125 214.397203326 650.05078125 182.440656743 622.9981555 c 128,-1,13
 150.484110159 595.945529751 150.484110159 595.945529751 126.255859375 547.48828125 c 0,14,15
 74.974609375 444.92578125 74.974609375 444.92578125 74.974609375 299.951171875 c 128,-1,16
 74.974609375 155.07421875 74.974609375 155.07421875 126.255859375 52.51171875 c 0,17,18
 150.479635295 4.06342011494 150.479635295 4.06342011494 182.46010583 -22.9936805675 c 128,-1,19
 214.440576366 -50.05078125 214.440576366 -50.05078125 250.024414062 -50.05078125 c 128,-1,20
 285.602796674 -50.05078125 285.602796674 -50.05078125 317.559343257 -22.9981555004 c 128,-1,21
 349.515889841 4.05447024929 349.515889841 4.05447024929 373.744140625 52.51171875 c 0,22,23
 381.069824219 67.1630859375 381.069824219 67.1630859375 391.42578125 67.1630859375 c 128,-1,24
 401.773925781 67.1630859375 401.773925781 67.1630859375 409.099609375 52.51171875 c 128,-1,25
 416.42578125 37.859375 416.42578125 37.859375 416.42578125 17.1494140625 c 128,-1,26
 416.42578125 -3.546875 416.42578125 -3.546875 409.099609375 -18.19921875 c 1,27,-1
 409.09765625 -18.1953125 l 0,28,29
 408.662477617 -19.0685904286 408.662477617 -19.0685904286 408.2109375 -19.890625 c 2,30,-1
 408.1953125 -19.91015625 l 1,31,32
 377.105305042 -81.4053560803 377.105305042 -81.4053560803 336.235216433 -115.711955384 c 128,-1,33
 295.365127824 -150.018554688 295.365127824 -150.018554688 249.947265625 -150.018554688 c 0,34,35
 204.211618576 -150.018554688 204.211618576 -150.018554688 163.13065653 -115.248394668 c 128,-1,36
 122.049694485 -80.4782346482 122.049694485 -80.4782346482 90.900390625 -18.1953125 c 0,37,38
 24.96875 113.66796875 24.96875 113.66796875 24.96875 300.064453125 c 128,-1,39
 24.96875 486.3359375 24.96875 486.3359375 90.900390625 618.19921875 c 0,40,41
 122.050470261 680.37311007 122.050470261 680.37311007 163.014328141 715.031769879 c 128,-1,42
 203.97818602 749.690429688 203.97818602 749.690429688 249.650390625 749.690429688 c 0,43,44
 256.879818024 749.690429688 256.879818024 749.690429688 264.0546875 748.78125 c 0,0,1
104.66796875 632.2265625 m 0,45,46
 106.634460449 632.849609375 106.634460449 632.849609375 108.58203125 632.849609375 c 0,47,48
 118.929873602 632.849609375 118.929873602 632.849609375 126.255859375 618.19921875 c 2,49,-1
 196.966796875 476.774305556 l 0,50,51
 267.677734375 335.349392361 267.677734375 335.349392361 338.388671875 193.927517361 c 128,-1,52
 409.099609375 52.5056423611 409.099609375 52.5056423611 409.099609375 52.51171875 c 1,53,54
 416.42578125 37.859375 416.42578125 37.859375 416.42578125 17.1494140625 c 128,-1,55
 416.42578125 -3.546875 416.42578125 -3.546875 409.099609375 -18.19921875 c 128,-1,56
 401.773925781 -32.8505859375 401.773925781 -32.8505859375 391.41796875 -32.8505859375 c 128,-1,57
 381.069824219 -32.8505859375 381.069824219 -32.8505859375 373.744140625 -18.19921875 c 2,58,-1
 303.033203125 123.225694444 l 0,59,60
 232.322265625 264.650607639 232.322265625 264.650607639 161.611328125 406.072482639 c 128,-1,61
 90.900390625 547.494357639 90.900390625 547.494357639 90.900390625 547.48828125 c 1,62,63
 83.57421875 562.140625 83.57421875 562.140625 83.57421875 582.850585938 c 128,-1,64
 83.57421875 603.546875 83.57421875 603.546875 90.900390625 618.19921875 c 0,65,66
 96.6451240435 629.687147506 96.6451240435 629.687147506 104.66796875 632.2265625 c 0,45,46
EndSplineSet
EndChar

StartChar: C
Encoding: 67 67 35
Width: 500
Flags: W
LayerCount: 2
Fore
SplineSet
234.634765625 748.90625 m 0,0,1
 242.766875756 750.021484375 242.766875756 750.021484375 250.05078125 750.021484375 c 0,2,3
 295.787232945 750.021484375 295.787232945 750.021484375 336.868804211 715.250536497 c 128,-1,4
 377.950375478 680.479588619 377.950375478 680.479588619 409.099609375 618.1953125 c 0,5,6
 475.03125 486.33203125 475.03125 486.33203125 475.03125 299.935546875 c 128,-1,7
 475.03125 113.6640625 475.03125 113.6640625 409.099609375 -18.19921875 c 0,8,9
 377.969893159 -80.331719115 377.969893159 -80.331719115 336.888745279 -115.017910339 c 128,-1,10
 295.8075974 -149.704101562 295.8075974 -149.704101562 250.111328125 -149.704101562 c 0,11,12
 205.315989586 -149.704101562 205.315989586 -149.704101562 164.949611638 -116.305495474 c 128,-1,13
 124.583233691 -82.9068893864 124.583233691 -82.9068893864 93.6015625 -22.875 c 0,14,15
 92.1644808456 -20.7259428661 92.1644808456 -20.7259428661 90.900390625 -18.19921875 c 0,16,17
 83.57421875 -3.546875 83.57421875 -3.546875 83.57421875 17.1630859375 c 128,-1,18
 83.57421875 37.859375 83.57421875 37.859375 90.900390625 52.51171875 c 128,-1,19
 98.2260742188 67.1630859375 98.2260742188 67.1630859375 108.58203125 67.1630859375 c 128,-1,20
 118.930175781 67.1630859375 118.930175781 67.1630859375 126.255859375 52.51171875 c 0,21,22
 150.479635295 4.06342011494 150.479635295 4.06342011494 182.46010583 -22.9936805675 c 128,-1,23
 214.440576366 -50.05078125 214.440576366 -50.05078125 250.024414062 -50.05078125 c 128,-1,24
 285.602796674 -50.05078125 285.602796674 -50.05078125 317.559343257 -22.9981555004 c 128,-1,25
 349.515889841 4.05447024929 349.515889841 4.05447024929 373.744140625 52.51171875 c 0,26,27
 425.025390625 155.07421875 425.025390625 155.07421875 425.025390625 300.048828125 c 128,-1,28
 425.025390625 444.92578125 425.025390625 444.92578125 373.744140625 547.48828125 c 0,29,30
 349.520364705 595.936579885 349.520364705 595.936579885 317.53989417 622.993680568 c 128,-1,31
 285.559423634 650.05078125 285.559423634 650.05078125 249.975585938 650.05078125 c 128,-1,32
 214.397203326 650.05078125 214.397203326 650.05078125 182.440656743 622.9981555 c 128,-1,33
 150.484110159 595.945529751 150.484110159 595.945529751 126.255859375 547.48828125 c 0,34,35
 118.930175781 532.836914062 118.930175781 532.836914062 108.57421875 532.836914062 c 128,-1,36
 98.2260742188 532.836914062 98.2260742188 532.836914062 90.900390625 547.48828125 c 128,-1,37
 83.57421875 562.140625 83.57421875 562.140625 83.57421875 582.850585938 c 128,-1,38
 83.57421875 603.546875 83.57421875 603.546875 90.900390625 618.19921875 c 1,39,-1
 90.90234375 618.1953125 l 0,40,41
 91.3375223833 619.068590429 91.3375223833 619.068590429 91.7890625 619.890625 c 2,42,-1
 91.8046875 619.91015625 l 1,43,44
 120.138022139 675.954270175 120.138022139 675.954270175 156.890076105 709.620161671 c 128,-1,45
 193.64213007 743.286053168 193.64213007 743.286053168 234.634765625 748.90625 c 0,0,1
104.66796875 632.2265625 m 0,46,47
 106.634460449 632.849609375 106.634460449 632.849609375 108.58203125 632.849609375 c 0,48,49
 118.929873602 632.849609375 118.929873602 632.849609375 126.255859375 618.19921875 c 2,50,-1
 196.966796875 476.774305556 l 0,51,52
 267.677734375 335.349392361 267.677734375 335.349392361 338.388671875 193.927517361 c 128,-1,53
 409.099609375 52.5056423611 409.099609375 52.5056423611 409.099609375 52.51171875 c 1,54,55
 416.42578125 37.859375 416.42578125 37.859375 416.42578125 17.1494140625 c 128,-1,56
 416.42578125 -3.546875 416.42578125 -3.546875 409.099609375 -18.19921875 c 128,-1,57
 401.773925781 -32.8505859375 401.773925781 -32.8505859375 391.41796875 -32.8505859375 c 128,-1,58
 381.069824219 -32.8505859375 381.069824219 -32.8505859375 373.744140625 -18.19921875 c 2,59,-1
 303.033203125 123.225694444 l 0,60,61
 232.322265625 264.650607639 232.322265625 264.650607639 161.611328125 406.072482639 c 128,-1,62
 90.900390625 547.494357639 90.900390625 547.494357639 90.900390625 547.48828125 c 1,63,64
 83.57421875 562.140625 83.57421875 562.140625 83.57421875 582.850585938 c 128,-1,65
 83.57421875 603.546875 83.57421875 603.546875 90.900390625 618.19921875 c 0,66,67
 96.6451240435 629.687147506 96.6451240435 629.687147506 104.66796875 632.2265625 c 0,46,47
EndSplineSet
EndChar

StartChar: D
Encoding: 68 68 36
Width: 500
Flags: W
LayerCount: 2
Fore
SplineSet
108.578125 632.84375 m 128,-1,1
 118.93359375 632.84375 118.93359375 632.84375 126.255859375 618.19921875 c 128,-1,2
 133.58203125 603.546875 133.58203125 603.546875 133.58203125 582.836914062 c 128,-1,3
 133.58203125 562.140625 133.58203125 562.140625 126.255859375 547.48828125 c 0,4,5
 74.974609375 444.92578125 74.974609375 444.92578125 74.974609375 299.951171875 c 128,-1,6
 74.974609375 155.07421875 74.974609375 155.07421875 126.255859375 52.51171875 c 0,7,8
 150.479635295 4.06342011494 150.479635295 4.06342011494 182.46010583 -22.9936805675 c 128,-1,9
 214.440576366 -50.05078125 214.440576366 -50.05078125 250.024414062 -50.05078125 c 128,-1,10
 285.602796674 -50.05078125 285.602796674 -50.05078125 317.559343257 -22.9981555004 c 128,-1,11
 349.515889841 4.05447024929 349.515889841 4.05447024929 373.744140625 52.51171875 c 0,12,13
 425.025390625 155.07421875 425.025390625 155.07421875 425.025390625 300.048828125 c 128,-1,14
 425.025390625 444.92578125 425.025390625 444.92578125 373.744140625 547.48828125 c 0,15,16
 366.41796875 562.140625 366.41796875 562.140625 366.41796875 582.850585938 c 128,-1,17
 366.41796875 603.546875 366.41796875 603.546875 373.744140625 618.19921875 c 128,-1,18
 381.069824219 632.850585938 381.069824219 632.850585938 391.42578125 632.850585938 c 128,-1,19
 401.773925781 632.850585938 401.773925781 632.850585938 409.099609375 618.19921875 c 1,20,-1
 409.09765625 618.1953125 l 0,21,22
 409.527247848 617.340439589 409.527247848 617.340439589 409.9453125 616.421875 c 2,23,-1
 409.955078125 616.390625 l 1,24,25
 475.008789062 484.837494882 475.008789062 484.837494882 475.008789062 299.895507812 c 0,26,27
 475.008789062 113.657826807 475.008789062 113.657826807 409.09765625 -18.19921875 c 0,28,29
 377.952606624 -80.4885712074 377.952606624 -80.4885712074 336.835114372 -115.275535604 c 128,-1,30
 295.71762212 -150.0625 295.71762212 -150.0625 249.967773438 -150.0625 c 128,-1,31
 204.224907271 -150.0625 204.224907271 -150.0625 163.138037716 -115.281263445 c 128,-1,32
 122.051168161 -80.5000268902 122.051168161 -80.5000268902 90.900390625 -18.19921875 c 0,33,34
 25.1474609375 113.573716961 25.1474609375 113.573716961 25.1474609375 299.776367188 c 0,35,36
 25.1474609375 481.886193436 25.1474609375 481.886193436 88.5625 612.796875 c 0,37,38
 89.634139181 615.665257047 89.634139181 615.665257047 90.900390625 618.19921875 c 0,39,0
 98.22265625 632.84375 98.22265625 632.84375 108.578125 632.84375 c 128,-1,1
104.66796875 632.2265625 m 0,40,41
 106.634460449 632.849609375 106.634460449 632.849609375 108.58203125 632.849609375 c 0,42,43
 118.929873602 632.849609375 118.929873602 632.849609375 126.255859375 618.19921875 c 2,44,-1
 196.966796875 476.774305556 l 0,45,46
 267.677734375 335.349392361 267.677734375 335.349392361 338.388671875 193.927517361 c 128,-1,47
 409.099609375 52.5056423611 409.099609375 52.5056423611 409.099609375 52.51171875 c 1,48,49
 416.42578125 37.859375 416.42578125 37.859375 416.42578125 17.1494140625 c 128,-1,50
 416.42578125 -3.546875 416.42578125 -3.546875 409.099609375 -18.19921875 c 128,-1,51
 401.773925781 -32.8505859375 401.773925781 -32.8505859375 391.41796875 -32.8505859375 c 128,-1,52
 381.069824219 -32.8505859375 381.069824219 -32.8505859375 373.744140625 -18.19921875 c 2,53,-1
 303.033203125 123.225694444 l 0,54,55
 232.322265625 264.650607639 232.322265625 264.650607639 161.611328125 406.072482639 c 128,-1,56
 90.900390625 547.494357639 90.900390625 547.494357639 90.900390625 547.48828125 c 1,57,58
 83.57421875 562.140625 83.57421875 562.140625 83.57421875 582.850585938 c 128,-1,59
 83.57421875 603.546875 83.57421875 603.546875 90.900390625 618.19921875 c 0,60,61
 96.6451240435 629.687147506 96.6451240435 629.687147506 104.66796875 632.2265625 c 0,40,41
EndSplineSet
EndChar

StartChar: E
Encoding: 69 69 37
Width: 500
Flags: W
LayerCount: 2
Fore
SplineSet
106.794921875 632.71484375 m 0,0,1
 107.74137931 632.849609375 107.74137931 632.849609375 108.58203125 632.849609375 c 0,2,3
 118.929873602 632.849609375 118.929873602 632.849609375 126.255859375 618.19921875 c 2,4,-1
 161.610460069 547.486762153 l 0,5,6
 196.965060764 476.774305556 196.965060764 476.774305556 232.320529514 406.063368056 c 128,-1,7
 267.675998264 335.352430556 267.675998264 335.352430556 267.677734375 335.35546875 c 1,8,9
 275 320.7109375 275 320.7109375 275 300 c 0,10,11
 275 279 275 279 267.5 264.5 c 128,-1,12
 260 250 260 250 250 250 c 0,13,14
 239.659860931 250.074790397 239.659860931 250.074790397 232.3671875 264.734375 c 1,15,-1
 232.322265625 264.64453125 l 1,16,-1
 196.966796875 335.358506944 l 0,17,18
 161.611328125 406.072482639 161.611328125 406.072482639 126.255859375 476.783420139 c 128,-1,19
 90.900390625 547.494357639 90.900390625 547.494357639 90.900390625 547.48828125 c 1,20,21
 83.57421875 562.140625 83.57421875 562.140625 83.57421875 582.850585938 c 128,-1,22
 83.57421875 603.546875 83.57421875 603.546875 90.900390625 618.19921875 c 0,23,24
 97.4930486302 631.38453476 97.4930486302 631.38453476 106.794921875 632.71484375 c 0,0,1
EndSplineSet
EndChar

StartChar: F
Encoding: 70 70 38
Width: 500
Flags: W
LayerCount: 2
Fore
SplineSet
233.94921875 748.85546875 m 0,0,1
 242.404418635 750.064453125 242.404418635 750.064453125 250.03125 750.064453125 c 0,2,3
 295.774731949 750.064453125 295.774731949 750.064453125 336.861739329 715.282698603 c 128,-1,4
 377.948746709 680.500944081 377.948746709 680.500944081 409.099609375 618.19921875 c 0,5,6
 474.852539062 486.426283039 474.852539062 486.426283039 474.852539062 300.223632812 c 0,7,8
 474.852539062 118.113806564 474.852539062 118.113806564 411.4375 -12.796875 c 0,9,10
 410.365860819 -15.665257047 410.365860819 -15.665257047 409.099609375 -18.19921875 c 0,11,12
 401.773925781 -32.8505859375 401.773925781 -32.8505859375 391.41796875 -32.8505859375 c 128,-1,13
 381.069824219 -32.8505859375 381.069824219 -32.8505859375 373.744140625 -18.19921875 c 128,-1,14
 366.41796875 -3.546875 366.41796875 -3.546875 366.41796875 17.1630859375 c 128,-1,15
 366.41796875 37.859375 366.41796875 37.859375 373.744140625 52.51171875 c 0,16,17
 425.025390625 155.07421875 425.025390625 155.07421875 425.025390625 300.048828125 c 128,-1,18
 425.025390625 444.92578125 425.025390625 444.92578125 373.744140625 547.48828125 c 0,19,20
 349.520364705 595.936579885 349.520364705 595.936579885 317.53989417 622.993680568 c 128,-1,21
 285.559423634 650.05078125 285.559423634 650.05078125 249.975585938 650.05078125 c 128,-1,22
 214.397203326 650.05078125 214.397203326 650.05078125 182.440656743 622.9981555 c 128,-1,23
 150.484110159 595.945529751 150.484110159 595.945529751 126.255859375 547.48828125 c 0,24,25
 74.974609375 444.92578125 74.974609375 444.92578125 74.974609375 299.951171875 c 128,-1,26
 74.974609375 155.07421875 74.974609375 155.07421875 126.255859375 52.51171875 c 0,27,28
 133.58203125 37.859375 133.58203125 37.859375 133.58203125 17.1494140625 c 128,-1,29
 133.58203125 -3.546875 133.58203125 -3.546875 126.255859375 -18.19921875 c 128,-1,30
 118.930175781 -32.8505859375 118.930175781 -32.8505859375 108.57421875 -32.8505859375 c 128,-1,31
 98.2260742188 -32.8505859375 98.2260742188 -32.8505859375 90.900390625 -18.19921875 c 1,32,-1
 90.90234375 -18.1953125 l 0,33,34
 90.4727521525 -17.3404395885 90.4727521525 -17.3404395885 90.0546875 -16.421875 c 2,35,-1
 90.044921875 -16.390625 l 1,36,37
 24.9912109375 115.162505118 24.9912109375 115.162505118 24.9912109375 300.104492188 c 0,38,39
 24.9912109375 486.342173193 24.9912109375 486.342173193 90.90234375 618.19921875 c 0,40,41
 119.187289267 674.769109783 119.187289267 674.769109783 156.004490218 708.870379175 c 128,-1,42
 192.821691169 742.971648567 192.821691169 742.971648567 233.94921875 748.85546875 c 0,0,1
EndSplineSet
EndChar

StartChar: G
Encoding: 71 71 39
Width: 500
Flags: W
LayerCount: 2
Fore
SplineSet
250 750 m 0,0,-1
 249.999023438 750.000976562 l 0,1,2
 250.605541992 750.000976562 250.605541992 750.000976562 251.2265625 749.94140625 c 2,3,-1
 251.244140625 749.9375 l 1,4,5
 312.046487454 749.264881095 312.046487454 749.264881095 363.576694048 688.896292104 c 128,-1,6
 415.106900641 628.527703113 415.106900641 628.527703113 445.049608036 525.123239146 c 128,-1,7
 474.992315431 421.71877518 474.992315431 421.71877518 475 300 c 0,8,9
 475 114 475 114 409 -18 c 128,-1,10
 343 -150 343 -150 250 -150 c 0,11,12
 189.57877547 -149.877536227 189.57877547 -149.877536227 138.161855734 -90.6586623085 c 128,-1,13
 86.7449359988 -31.4397883903 86.7449359988 -31.4397883903 56.4774671822 70.4542352251 c 128,-1,14
 26.2099983656 172.348258841 26.2099983656 172.348258841 25.255859375 292.875 c 0,15,16
 25 296.42449422 25 296.42449422 25 300 c 0,17,18
 25 321 25 321 32.5 335.5 c 128,-1,19
 40 350 40 350 50 350 c 128,-1,20
 60 350 60 350 67.5 335.5 c 128,-1,21
 75 321 75 321 75 300 c 0,22,23
 75 155 75 155 126.5 52.5 c 128,-1,24
 178 -50 178 -50 250 -50 c 128,-1,25
 322 -50 322 -50 373.5 52.5 c 128,-1,26
 425 155 425 155 425 300 c 128,-1,27
 425 445 425 445 373.5 547.5 c 128,-1,28
 322 650 322 650 250 650 c 0,29,30
 240 650 240 650 232.5 664.5 c 128,-1,31
 225 679 225 679 225 700 c 128,-1,32
 225 721 225 721 232.5 735.5 c 128,-1,33
 240 750 240 750 250 750 c 0,0,-1
104.66796875 632.2265625 m 0,34,35
 106.634460449 632.849609375 106.634460449 632.849609375 108.58203125 632.849609375 c 0,36,37
 118.929873602 632.849609375 118.929873602 632.849609375 126.255859375 618.19921875 c 2,38,-1
 196.966796875 476.774305556 l 0,39,40
 267.677734375 335.349392361 267.677734375 335.349392361 338.388671875 193.927517361 c 128,-1,41
 409.099609375 52.5056423611 409.099609375 52.5056423611 409.099609375 52.51171875 c 1,42,43
 416.42578125 37.859375 416.42578125 37.859375 416.42578125 17.1494140625 c 128,-1,44
 416.42578125 -3.546875 416.42578125 -3.546875 409.099609375 -18.19921875 c 128,-1,45
 401.773925781 -32.8505859375 401.773925781 -32.8505859375 391.41796875 -32.8505859375 c 128,-1,46
 381.069824219 -32.8505859375 381.069824219 -32.8505859375 373.744140625 -18.19921875 c 2,47,-1
 303.033203125 123.225694444 l 0,48,49
 232.322265625 264.650607639 232.322265625 264.650607639 161.611328125 406.072482639 c 128,-1,50
 90.900390625 547.494357639 90.900390625 547.494357639 90.900390625 547.48828125 c 1,51,52
 83.57421875 562.140625 83.57421875 562.140625 83.57421875 582.850585938 c 128,-1,53
 83.57421875 603.546875 83.57421875 603.546875 90.900390625 618.19921875 c 0,54,55
 96.6451240435 629.687147506 96.6451240435 629.687147506 104.66796875 632.2265625 c 0,34,35
EndSplineSet
EndChar

StartChar: H
Encoding: 72 72 40
Width: 500
Flags: W
LayerCount: 2
Fore
SplineSet
250 750 m 0,0,1
 343 750 343 750 409 618 c 128,-1,2
 475 486 475 486 475 300 c 0,3,4
 474.939008285 179.157163183 474.939008285 179.157163183 445.329636692 76.3234937293 c 128,-1,5
 415.720265099 -26.5101757241 415.720265099 -26.5101757241 364.773227891 -87.0448478959 c 128,-1,6
 313.826190684 -147.579520068 313.826190684 -147.579520068 253.5625 -149.48828125 c 0,7,8
 251.79273893 -149.998562359 251.79273893 -149.998562359 250 -150 c 0,9,10
 240 -150 240 -150 232.5 -135.5 c 128,-1,11
 225 -121 225 -121 225 -100 c 128,-1,12
 225 -79 225 -79 232.5 -64.5 c 128,-1,13
 240 -50 240 -50 250 -50 c 0,14,15
 322 -50 322 -50 373.5 52.5 c 128,-1,16
 425 155 425 155 425 300 c 128,-1,17
 425 445 425 445 373.5 547.5 c 128,-1,18
 322 650 322 650 250 650 c 128,-1,19
 178 650 178 650 126.5 547.5 c 128,-1,20
 75 445 75 445 75 300 c 0,21,22
 75 279 75 279 67.5 264.5 c 128,-1,23
 60 250 60 250 50 250 c 128,-1,24
 40 250 40 250 32.5 264.5 c 128,-1,25
 25 279 25 279 25 300 c 0,26,-1
 25 299.997070312 l 0,27,28
 25 301.232910156 25 301.232910156 25.029296875 302.453125 c 2,29,-1
 25.03125 302.48828125 l 1,30,31
 25.3675595821 424.093021704 25.3675595821 424.093021704 55.5518440759 527.153605241 c 128,-1,32
 85.7361285698 630.214188778 85.7361285698 630.214188778 137.438390299 690.099649967 c 128,-1,33
 189.140652028 749.985111157 189.140652028 749.985111157 250 750 c 0,0,1
EndSplineSet
EndChar

StartChar: I
Encoding: 73 73 41
Width: 500
Flags: W
LayerCount: 2
Fore
SplineSet
250 750 m 0,0,1
 310.42122453 749.877536227 310.42122453 749.877536227 361.838144266 690.658662308 c 128,-1,2
 413.255064001 631.43978839 413.255064001 631.43978839 443.522532818 529.545764775 c 128,-1,3
 473.790001634 427.651741159 473.790001634 427.651741159 474.744140625 307.125 c 0,4,5
 475 303.57550578 475 303.57550578 475 300 c 0,6,7
 475 279 475 279 467.5 264.5 c 128,-1,8
 460 250 460 250 450 250 c 128,-1,9
 440 250 440 250 432.5 264.5 c 128,-1,10
 425 279 425 279 425 300 c 0,11,12
 425 445 425 445 373.5 547.5 c 128,-1,13
 322 650 322 650 250 650 c 0,14,15
 184.379362274 650 184.379362274 650 135.179102199 563.877686412 c 128,-1,16
 85.978842123 477.755372825 85.978842123 477.755372825 76.78125 349.810546875 c 0,17,18
 75 325.03108481 75 325.03108481 75 300 c 0,19,20
 75 279 75 279 67.5 264.5 c 128,-1,21
 60 250 60 250 50 250 c 128,-1,22
 40 250 40 250 32.5 264.5 c 128,-1,23
 25 279 25 279 25 300 c 0,24,25
 25.2236170122 310.779782677 25.2236170122 310.779782677 25.708984375 321.595703125 c 0,26,27
 25.9775654394 340.999963039 25.9775654394 340.999963039 27.078125 360.265625 c 0,28,29
 27.9208254734 369.793600931 27.9208254734 369.793600931 28.95703125 379.15625 c 0,30,31
 30.5038115145 398.670265919 30.5038115145 398.670265919 32.90625 417.880859375 c 0,32,33
 34.2537391096 426.368863919 34.2537391096 426.368863919 35.7734375 434.775390625 c 0,34,35
 38.6617957328 454.405637922 38.6617957328 454.405637922 42.42578125 473.419921875 c 0,36,37
 44.3040163984 481.433920519 44.3040163984 481.433920519 46.34765625 489.328125 c 0,38,39
 50.4961020535 508.082618148 50.4961020535 508.082618148 55.482421875 526.009765625 c 0,40,41
 57.8463201969 533.395121631 57.8463201969 533.395121631 60.349609375 540.58203125 c 0,42,43
 65.7071112251 558.190879243 65.7071112251 558.190879243 71.849609375 574.75 c 0,44,45
 74.5994020303 581.270648024 74.5994020303 581.270648024 77.513671875 587.66796875 c 0,46,47
 84.0270141725 603.883643954 84.0270141725 603.883643954 91.25390625 618.81640625 c 0,48,49
 94.3814102677 624.515995162 94.3814102677 624.515995162 97.62109375 629.986328125 c 0,50,51
 105.17406106 644.455318184 105.17406106 644.455318184 113.35546875 657.447265625 c 0,52,53
 116.894183723 662.373625766 116.894183723 662.373625766 120.5078125 667.00390625 c 0,54,55
 128.879217342 679.292314408 128.879217342 679.292314408 137.783203125 689.990234375 c 0,56,57
 141.77002289 694.122751872 141.77002289 694.122751872 145.83984375 697.935546875 c 0,58,59
 154.779499554 707.747328228 154.779499554 707.747328228 164.123046875 715.900390625 c 0,60,61
 168.572019717 719.130892702 168.572019717 719.130892702 173.08203125 721.982421875 c 0,62,63
 182.363457673 729.189927519 182.363457673 729.189927519 191.919921875 734.7265625 c 0,64,65
 197.471446083 737.230075016 197.471446083 737.230075016 203.078125 739.16796875 c 0,66,67
 211.830172552 743.371918371 211.830172552 743.371918371 220.71484375 746.162109375 c 0,68,69
 235.300162935 749.995695089 235.300162935 749.995695089 250 750 c 0,0,1
EndSplineSet
EndChar

StartChar: J
Encoding: 74 74 42
Width: 500
Flags: W
LayerCount: 2
Fore
SplineSet
250 750 m 0,0,1
 260 750 260 750 267.5 735.5 c 128,-1,2
 275 721 275 721 275 700 c 128,-1,3
 275 679 275 679 267.5 664.5 c 128,-1,4
 260 650 260 650 250 650 c 0,5,6
 178 650 178 650 126.5 547.5 c 128,-1,7
 75 445 75 445 75 300 c 128,-1,8
 75 155 75 155 126.5 52.5 c 128,-1,9
 178 -50 178 -50 250 -50 c 128,-1,10
 322 -50 322 -50 373.5 52.5 c 128,-1,11
 425 155 425 155 425 300 c 0,12,13
 425 321 425 321 432.5 335.5 c 128,-1,14
 440 350 440 350 450 350 c 128,-1,15
 460 350 460 350 467.5 335.5 c 128,-1,16
 475 321 475 321 475 300 c 0,17,-1
 475 300.002929688 l 0,18,19
 475 298.767089844 475 298.767089844 474.970703125 297.546875 c 2,20,-1
 474.96875 297.51171875 l 1,21,22
 474.632440418 175.906978296 474.632440418 175.906978296 444.448155924 72.8463947591 c 128,-1,23
 414.26387143 -30.2141887782 414.26387143 -30.2141887782 362.561609701 -90.0996499674 c 128,-1,24
 310.859347972 -149.985111157 310.859347972 -149.985111157 250 -150 c 0,25,26
 157 -150 157 -150 91 -18 c 128,-1,27
 25 114 25 114 25 300 c 0,28,29
 25.060991715 420.842836817 25.060991715 420.842836817 54.6703633081 523.676506271 c 128,-1,30
 84.2797349013 626.510175724 84.2797349013 626.510175724 135.226772109 687.044847896 c 128,-1,31
 186.173809316 747.579520068 186.173809316 747.579520068 246.4375 749.48828125 c 0,32,33
 248.20726107 749.998562359 248.20726107 749.998562359 250 750 c 0,0,1
104.66796875 632.2265625 m 0,34,35
 106.634460449 632.849609375 106.634460449 632.849609375 108.58203125 632.849609375 c 0,36,37
 118.929873602 632.849609375 118.929873602 632.849609375 126.255859375 618.19921875 c 2,38,-1
 196.966796875 476.774305556 l 0,39,40
 267.677734375 335.349392361 267.677734375 335.349392361 338.388671875 193.927517361 c 128,-1,41
 409.099609375 52.5056423611 409.099609375 52.5056423611 409.099609375 52.51171875 c 1,42,43
 416.42578125 37.859375 416.42578125 37.859375 416.42578125 17.1494140625 c 128,-1,44
 416.42578125 -3.546875 416.42578125 -3.546875 409.099609375 -18.19921875 c 128,-1,45
 401.773925781 -32.8505859375 401.773925781 -32.8505859375 391.41796875 -32.8505859375 c 128,-1,46
 381.069824219 -32.8505859375 381.069824219 -32.8505859375 373.744140625 -18.19921875 c 2,47,-1
 303.033203125 123.225694444 l 0,48,49
 232.322265625 264.650607639 232.322265625 264.650607639 161.611328125 406.072482639 c 128,-1,50
 90.900390625 547.494357639 90.900390625 547.494357639 90.900390625 547.48828125 c 1,51,52
 83.57421875 562.140625 83.57421875 562.140625 83.57421875 582.850585938 c 128,-1,53
 83.57421875 603.546875 83.57421875 603.546875 90.900390625 618.19921875 c 0,54,55
 96.6451240435 629.687147506 96.6451240435 629.687147506 104.66796875 632.2265625 c 0,34,35
250 550 m 128,-1,57
 302 550 302 550 338.5 476.5 c 128,-1,58
 375 403 375 403 375 300 c 128,-1,59
 375 197 375 197 338.5 123.5 c 128,-1,60
 302 50 302 50 250 50 c 128,-1,61
 198 50 198 50 161.5 123.5 c 128,-1,62
 125 197 125 197 125 300 c 128,-1,63
 125 403 125 403 161.5 476.5 c 128,-1,56
 198 550 198 550 250 550 c 128,-1,57
250 450 m 128,-1,65
 219 450 219 450 197 406 c 128,-1,66
 175 362 175 362 175 300 c 128,-1,67
 175 238 175 238 197 194 c 128,-1,68
 219 150 219 150 250 150 c 128,-1,69
 281 150 281 150 303 194 c 128,-1,70
 325 238 325 238 325 300 c 128,-1,71
 325 362 325 362 303 406 c 128,-1,64
 281 450 281 450 250 450 c 128,-1,65
EndSplineSet
EndChar

StartChar: K
Encoding: 75 75 43
Width: 500
Flags: W
LayerCount: 2
Fore
SplineSet
250 750 m 0,0,-1
 249.999023438 750.000976562 l 0,1,2
 250.605541992 750.000976562 250.605541992 750.000976562 251.2265625 749.94140625 c 2,3,-1
 251.244140625 749.9375 l 1,4,5
 312.046487454 749.264881095 312.046487454 749.264881095 363.576694048 688.896292104 c 128,-1,6
 415.106900641 628.527703113 415.106900641 628.527703113 445.049608036 525.123239146 c 128,-1,7
 474.992315431 421.71877518 474.992315431 421.71877518 475 300 c 0,8,9
 475 114 475 114 409 -18 c 128,-1,10
 343 -150 343 -150 250 -150 c 0,11,12
 189.57877547 -149.877536227 189.57877547 -149.877536227 138.161855734 -90.6586623085 c 128,-1,13
 86.7449359988 -31.4397883903 86.7449359988 -31.4397883903 56.4774671822 70.4542352251 c 128,-1,14
 26.2099983656 172.348258841 26.2099983656 172.348258841 25.255859375 292.875 c 0,15,16
 25 296.42449422 25 296.42449422 25 300 c 0,17,18
 25 321 25 321 32.5 335.5 c 128,-1,19
 40 350 40 350 50 350 c 128,-1,20
 60 350 60 350 67.5 335.5 c 128,-1,21
 75 321 75 321 75 300 c 0,22,23
 75 155 75 155 126.5 52.5 c 128,-1,24
 178 -50 178 -50 250 -50 c 128,-1,25
 322 -50 322 -50 373.5 52.5 c 128,-1,26
 425 155 425 155 425 300 c 128,-1,27
 425 445 425 445 373.5 547.5 c 128,-1,28
 322 650 322 650 250 650 c 0,29,30
 240 650 240 650 232.5 664.5 c 128,-1,31
 225 679 225 679 225 700 c 128,-1,32
 225 721 225 721 232.5 735.5 c 128,-1,33
 240 750 240 750 250 750 c 0,0,-1
EndSplineSet
EndChar

StartChar: L
Encoding: 76 76 44
Width: 500
Flags: W
LayerCount: 2
Fore
SplineSet
234.634765625 748.90625 m 0,0,1
 241.313559166 749.690429688 241.313559166 749.690429688 247.635742188 749.690429688 c 0,2,3
 254.966879791 749.690429688 254.966879791 749.690429688 262.255859375 748.75390625 c 0,4,-1
 262.512695312 748.754882812 l 0,5,6
 263.284057617 748.754882812 263.284057617 748.754882812 264.193359375 748.7421875 c 0,7,8
 279.674450873 746.726004873 279.674450873 746.726004873 294.861328125 740.484375 c 2,9,-1
 294.861328125 740.484375 l 0,10,-1
 295.583984375 740.2734375 l 1,11,12
 359.508091582 713.727809168 359.508091582 713.727809168 406.3984375 622.875 c 0,13,14
 406.984396595 621.92080726 406.984396595 621.92080726 407.53515625 620.90625 c 0,15,16
 408.345196719 619.617747566 408.345196719 619.617747566 409.099609375 618.19921875 c 2,17,-1
 409.099609375 618.1953125 l 1,18,-1
 409.1171875 618.15625 l 1,19,20
 475.030273438 486.296878912 475.030273438 486.296878912 475.030273438 299.93359375 c 128,-1,21
 475.030273438 113.663690294 475.030273438 113.663690294 409.099609375 -18.19921875 c 1,22,-1
 409.056640625 -18.2734375 l 0,23,24
 408.651150414 -19.0872734873 408.651150414 -19.0872734873 408.2109375 -19.890625 c 2,25,-1
 408.1953125 -19.91015625 l 0,26,27
 404.161201789 -27.1715555297 404.161201789 -27.1715555297 399.958984375 -34.03125 c 0,28,29
 392.517647494 -48.011634335 392.517647494 -48.011634335 384.482421875 -60.57421875 c 0,30,31
 377.212885614 -70.7756107323 377.212885614 -70.7756107323 369.57421875 -79.7890625 c 0,32,33
 363.834354051 -87.5964498918 363.834354051 -87.5964498918 357.861328125 -94.6875 c 0,34,35
 347.932897635 -105.048950754 347.932897635 -105.048950754 337.53515625 -113.390625 c 0,36,37
 333.360624007 -117.369176731 333.360624007 -117.369176731 329.099609375 -121.0078125 c 0,38,39
 317.072792236 -129.699136811 317.072792236 -129.699136811 304.6328125 -135.609375 c 0,40,41
 301.698067889 -137.39548286 301.698067889 -137.39548286 298.765625 -139.0078125 c 0,42,43
 284.973985187 -144.921273223 284.973985187 -144.921273223 270.921875 -147.34375 c 0,44,45
 269.213245948 -147.852392353 269.213245948 -147.852392353 267.48046875 -148.3125 c 0,46,47
 259.164412611 -149.538085938 259.164412611 -149.538085938 251.126953125 -149.538085938 c 0,48,49
 244.414817366 -149.538085938 244.414817366 -149.538085938 237.744140625 -148.75390625 c 0,50,-1
 237.487304688 -148.754882812 l 0,51,52
 236.715942383 -148.754882812 236.715942383 -148.754882812 235.806640625 -148.7421875 c 0,53,54
 220.325549127 -146.726004873 220.325549127 -146.726004873 205.138671875 -140.484375 c 2,55,-1
 205.138671875 -140.484375 l 0,56,-1
 204.416015625 -140.2734375 l 1,57,58
 140.491908418 -113.727809168 140.491908418 -113.727809168 93.6015625 -22.875 c 0,59,60
 93.0156034053 -21.9208072597 93.0156034053 -21.9208072597 92.46484375 -20.90625 c 0,61,62
 91.6548032806 -19.6177475657 91.6548032806 -19.6177475657 90.900390625 -18.19921875 c 2,63,-1
 90.900390625 -18.1953125 l 1,64,-1
 90.89453125 -18.18359375 l 1,65,66
 24.96875 113.679035163 24.96875 113.679035163 24.96875 300.064453125 c 128,-1,67
 24.96875 486.3359375 24.96875 486.3359375 90.900390625 618.19921875 c 1,68,-1
 90.943359375 618.2734375 l 0,69,70
 91.3488495862 619.087273487 91.3488495862 619.087273487 91.7890625 619.890625 c 2,71,-1
 91.8046875 619.91015625 l 0,72,73
 95.838798211 627.17155553 95.838798211 627.17155553 100.041015625 634.03125 c 0,74,75
 107.482352506 648.011634335 107.482352506 648.011634335 115.517578125 660.57421875 c 0,76,77
 122.787114386 670.775610732 122.787114386 670.775610732 130.42578125 679.7890625 c 0,78,79
 136.165645949 687.596449892 136.165645949 687.596449892 142.138671875 694.6875 c 0,80,81
 152.067102365 705.048950754 152.067102365 705.048950754 162.46484375 713.390625 c 0,82,83
 166.639375993 717.369176731 166.639375993 717.369176731 170.900390625 721.0078125 c 0,84,85
 182.927207764 729.699136811 182.927207764 729.699136811 195.3671875 735.609375 c 0,86,87
 198.301932111 737.39548286 198.301932111 737.39548286 201.234375 739.0078125 c 0,88,89
 215.026014813 744.921273223 215.026014813 744.921273223 229.078125 747.34375 c 0,90,91
 230.786754052 747.852392353 230.786754052 747.852392353 232.51953125 748.3125 c 0,92,93
 233.536076612 748.607990933 233.536076612 748.607990933 234.634765625 748.90625 c 0,0,1
250 650 m 0,94,95
 193.138895157 650 193.138895157 650 147.13671875 583.15625 c 0,96,97
 135.996149754 566.968862007 135.996149754 566.968862007 126.255859375 547.48828125 c 0,98,99
 74.974609375 444.92578125 74.974609375 444.92578125 74.974609375 299.951171875 c 128,-1,100
 74.974609375 155.07421875 74.974609375 155.07421875 126.255859375 52.51171875 c 0,101,102
 150.493180352 4.0370767952 150.493180352 4.0370767952 182.378309192 -22.9868326962 c 128,-1,103
 214.263438032 -50.0107421875 214.263438032 -50.0107421875 249.830078125 -50.0107421875 c 0,104,105
 263.740849633 -50.0107421875 263.740849633 -50.0107421875 277.376953125 -45.69140625 c 0,106,107
 333.536801652 -27.9014212191 333.536801652 -27.9014212191 373.744140625 52.51171875 c 0,108,109
 425.025390625 155.07421875 425.025390625 155.07421875 425.025390625 300.048828125 c 128,-1,110
 425.025390625 444.92578125 425.025390625 444.92578125 373.744140625 547.48828125 c 0,111,112
 349.523587762 595.929386976 349.523587762 595.929386976 317.555320863 622.964693488 c 128,-1,113
 285.587053963 650 285.587053963 650 250 650 c 0,94,95
104.66796875 632.2265625 m 0,114,115
 106.634460449 632.849609375 106.634460449 632.849609375 108.58203125 632.849609375 c 0,116,117
 118.929873602 632.849609375 118.929873602 632.849609375 126.255859375 618.19921875 c 2,118,-1
 196.966796875 476.774305556 l 0,119,120
 267.677734375 335.349392361 267.677734375 335.349392361 338.388671875 193.927517361 c 128,-1,121
 409.099609375 52.5056423611 409.099609375 52.5056423611 409.099609375 52.51171875 c 1,122,123
 416.42578125 37.859375 416.42578125 37.859375 416.42578125 17.1494140625 c 128,-1,124
 416.42578125 -3.546875 416.42578125 -3.546875 409.099609375 -18.19921875 c 128,-1,125
 401.773925781 -32.8505859375 401.773925781 -32.8505859375 391.41796875 -32.8505859375 c 128,-1,126
 381.069824219 -32.8505859375 381.069824219 -32.8505859375 373.744140625 -18.19921875 c 2,127,-1
 303.033203125 123.225694444 l 0,128,129
 232.322265625 264.650607639 232.322265625 264.650607639 161.611328125 406.072482639 c 128,-1,130
 90.900390625 547.494357639 90.900390625 547.494357639 90.900390625 547.48828125 c 1,131,132
 83.57421875 562.140625 83.57421875 562.140625 83.57421875 582.850585938 c 128,-1,133
 83.57421875 603.546875 83.57421875 603.546875 90.900390625 618.19921875 c 0,134,135
 96.6451240435 629.687147506 96.6451240435 629.687147506 104.66796875 632.2265625 c 0,114,115
EndSplineSet
EndChar

StartChar: M
Encoding: 77 77 45
Width: 500
Flags: W
LayerCount: 2
Fore
SplineSet
250 750 m 0,0,1
 310.42122453 749.877536227 310.42122453 749.877536227 361.838144266 690.658662308 c 128,-1,2
 413.255064001 631.43978839 413.255064001 631.43978839 443.522532818 529.545764775 c 128,-1,3
 473.790001634 427.651741159 473.790001634 427.651741159 474.744140625 307.125 c 0,4,5
 475 303.57550578 475 303.57550578 475 300 c 0,6,7
 475 279 475 279 467.5 264.5 c 128,-1,8
 460 250 460 250 450 250 c 128,-1,9
 440 250 440 250 432.5 264.5 c 128,-1,10
 425 279 425 279 425 300 c 0,11,12
 425 445 425 445 373.5 547.5 c 128,-1,13
 322 650 322 650 250 650 c 128,-1,14
 178 650 178 650 126.5 547.5 c 128,-1,15
 75 445 75 445 75 300 c 128,-1,16
 75 155 75 155 126.5 52.5 c 128,-1,17
 178 -50 178 -50 250 -50 c 0,18,19
 260 -50 260 -50 267.5 -64.5 c 128,-1,20
 275 -79 275 -79 275 -100 c 128,-1,21
 275 -121 275 -121 267.5 -135.5 c 128,-1,22
 260 -150 260 -150 250 -150 c 0,23,-1
 250.000976562 -150.000976562 l 0,24,25
 249.394458008 -150.000976562 249.394458008 -150.000976562 248.7734375 -149.94140625 c 2,26,-1
 248.755859375 -149.9375 l 1,27,28
 187.953512546 -149.264881095 187.953512546 -149.264881095 136.423305952 -88.8962921038 c 128,-1,29
 84.8930993592 -28.5277031129 84.8930993592 -28.5277031129 54.9503919643 74.8767608538 c 128,-1,30
 25.0076845693 178.28122482 25.0076845693 178.28122482 25 300 c 0,31,32
 25 486 25 486 91 618 c 128,-1,33
 157 750 157 750 250 750 c 0,0,1
EndSplineSet
EndChar

StartChar: N
Encoding: 78 78 46
Width: 500
Flags: W
LayerCount: 2
Fore
SplineSet
250 750 m 0,0,1
 310.42122453 749.877536227 310.42122453 749.877536227 361.838144266 690.658662308 c 128,-1,2
 413.255064001 631.43978839 413.255064001 631.43978839 443.522532818 529.545764775 c 128,-1,3
 473.790001634 427.651741159 473.790001634 427.651741159 474.744140625 307.125 c 0,4,5
 475 303.57550578 475 303.57550578 475 300 c 0,6,7
 475 279 475 279 467.5 264.5 c 128,-1,8
 460 250 460 250 450 250 c 128,-1,9
 440 250 440 250 432.5 264.5 c 128,-1,10
 425 279 425 279 425 300 c 0,11,12
 425 445 425 445 373.5 547.5 c 128,-1,13
 322 650 322 650 250 650 c 128,-1,14
 178 650 178 650 126.5 547.5 c 128,-1,15
 75 445 75 445 75 300 c 128,-1,16
 75 155 75 155 126.5 52.5 c 128,-1,17
 178 -50 178 -50 250 -50 c 0,18,19
 260 -50 260 -50 267.5 -64.5 c 128,-1,20
 275 -79 275 -79 275 -100 c 128,-1,21
 275 -121 275 -121 267.5 -135.5 c 128,-1,22
 260 -150 260 -150 250 -150 c 0,23,-1
 250.000976562 -150.000976562 l 0,24,25
 249.394458008 -150.000976562 249.394458008 -150.000976562 248.7734375 -149.94140625 c 2,26,-1
 248.755859375 -149.9375 l 1,27,28
 187.953512546 -149.264881095 187.953512546 -149.264881095 136.423305952 -88.8962921038 c 128,-1,29
 84.8930993592 -28.5277031129 84.8930993592 -28.5277031129 54.9503919643 74.8767608538 c 128,-1,30
 25.0076845693 178.28122482 25.0076845693 178.28122482 25 300 c 0,31,32
 25 486 25 486 91 618 c 128,-1,33
 157 750 157 750 250 750 c 0,0,1
104.66796875 632.2265625 m 0,34,35
 106.634460449 632.849609375 106.634460449 632.849609375 108.58203125 632.849609375 c 0,36,37
 118.929873602 632.849609375 118.929873602 632.849609375 126.255859375 618.19921875 c 2,38,-1
 196.966796875 476.774305556 l 0,39,40
 267.677734375 335.349392361 267.677734375 335.349392361 338.388671875 193.927517361 c 128,-1,41
 409.099609375 52.5056423611 409.099609375 52.5056423611 409.099609375 52.51171875 c 1,42,43
 416.42578125 37.859375 416.42578125 37.859375 416.42578125 17.1494140625 c 128,-1,44
 416.42578125 -3.546875 416.42578125 -3.546875 409.099609375 -18.19921875 c 128,-1,45
 401.773925781 -32.8505859375 401.773925781 -32.8505859375 391.41796875 -32.8505859375 c 128,-1,46
 381.069824219 -32.8505859375 381.069824219 -32.8505859375 373.744140625 -18.19921875 c 2,47,-1
 303.033203125 123.225694444 l 0,48,49
 232.322265625 264.650607639 232.322265625 264.650607639 161.611328125 406.072482639 c 128,-1,50
 90.900390625 547.494357639 90.900390625 547.494357639 90.900390625 547.48828125 c 1,51,52
 83.57421875 562.140625 83.57421875 562.140625 83.57421875 582.850585938 c 128,-1,53
 83.57421875 603.546875 83.57421875 603.546875 90.900390625 618.19921875 c 0,54,55
 96.6451240435 629.687147506 96.6451240435 629.687147506 104.66796875 632.2265625 c 0,34,35
EndSplineSet
EndChar

StartChar: O
Encoding: 79 79 47
Width: 500
Flags: W
LayerCount: 2
Fore
SplineSet
50 350 m 128,-1,1
 60 350 60 350 67.5 335.5 c 128,-1,2
 75 321 75 321 75 300 c 0,3,4
 75 155 75 155 126.5 52.5 c 128,-1,5
 178 -50 178 -50 250 -50 c 0,6,7
 262.515304338 -50 262.515304338 -50 274.904296875 -46.4375 c 0,8,9
 319.009340881 -33.5471880556 319.009340881 -33.5471880556 354.658203125 19.97265625 c 1,10,-1
 232.322265625 264.64453125 l 1,11,-1
 232.3671875 264.734375 l 1,12,13
 225.03666216 279.319609 225.03666216 279.319609 225 300 c 0,14,15
 225 321 225 321 232.5 335.5 c 128,-1,16
 240 350 240 350 250 350 c 0,17,18
 260.35546875 350 260.35546875 350 267.677734375 335.35546875 c 2,19,-1
 389.94140625 90.830078125 l 1,20,21
 424.836234736 183.775937046 424.836234736 183.775937046 425 300 c 0,22,23
 425 321 425 321 432.5 335.5 c 128,-1,24
 440 350 440 350 450 350 c 128,-1,25
 460 350 460 350 467.5 335.5 c 128,-1,26
 475 321 475 321 475 300 c 0,27,28
 474.776382988 289.220217323 474.776382988 289.220217323 474.291015625 278.404296875 c 0,29,30
 474.022434561 259.000036961 474.022434561 259.000036961 472.921875 239.734375 c 0,31,32
 472.079174527 230.206399069 472.079174527 230.206399069 471.04296875 220.84375 c 0,33,34
 469.496188486 201.329734081 469.496188486 201.329734081 467.09375 182.119140625 c 0,35,36
 465.74626089 173.631136081 465.74626089 173.631136081 464.2265625 165.224609375 c 0,37,38
 461.338204267 145.594362078 461.338204267 145.594362078 457.57421875 126.580078125 c 0,39,40
 455.695983602 118.566079481 455.695983602 118.566079481 453.65234375 110.671875 c 0,41,42
 449.503897946 91.9173818516 449.503897946 91.9173818516 444.517578125 73.990234375 c 0,43,44
 442.153679803 66.6048783694 442.153679803 66.6048783694 439.650390625 59.41796875 c 0,45,46
 434.292888775 41.8091207573 434.292888775 41.8091207573 428.150390625 25.25 c 0,47,48
 425.40059797 18.7293519755 425.40059797 18.7293519755 422.486328125 12.33203125 c 0,49,50
 417.20446484 -0.571742889249 417.20446484 -0.571742889249 411.478515625 -12.62109375 c 0,51,52
 410.395778997 -15.5761229393 410.395778997 -15.5761229393 409.099609375 -18.19921875 c 0,53,-1
 408.84765625 -18.5859375 l 0,54,-1
 408.74609375 -18.81640625 l 0,55,56
 405.618589732 -24.5159951619 405.618589732 -24.5159951619 402.37890625 -29.986328125 c 0,57,58
 394.82593894 -44.455318184 394.82593894 -44.455318184 386.64453125 -57.447265625 c 0,59,60
 383.105816277 -62.3736257657 383.105816277 -62.3736257657 379.4921875 -67.00390625 c 0,61,62
 371.120782658 -79.2923144077 371.120782658 -79.2923144077 362.216796875 -89.990234375 c 0,63,64
 358.22997711 -94.1227518722 358.22997711 -94.1227518722 354.16015625 -97.935546875 c 0,65,66
 345.220500446 -107.747328228 345.220500446 -107.747328228 335.876953125 -115.900390625 c 0,67,68
 331.427980283 -119.130892702 331.427980283 -119.130892702 326.91796875 -121.982421875 c 0,69,70
 317.636542327 -129.189927519 317.636542327 -129.189927519 308.080078125 -134.7265625 c 0,71,72
 302.528553917 -137.230075016 302.528553917 -137.230075016 296.921875 -139.16796875 c 0,73,74
 288.169827448 -143.371918371 288.169827448 -143.371918371 279.28515625 -146.162109375 c 0,75,76
 264.699837065 -149.995695089 264.699837065 -149.995695089 250 -150 c 0,77,78
 189.57877547 -149.877536227 189.57877547 -149.877536227 138.161855734 -90.6586623085 c 128,-1,79
 86.7449359988 -31.4397883903 86.7449359988 -31.4397883903 56.4774671822 70.4542352251 c 128,-1,80
 26.2099983656 172.348258841 26.2099983656 172.348258841 25.255859375 292.875 c 0,81,82
 25 296.42449422 25 296.42449422 25 300 c 0,83,84
 25 321 25 321 32.5 335.5 c 128,-1,0
 40 350 40 350 50 350 c 128,-1,1
EndSplineSet
EndChar

StartChar: P
Encoding: 80 80 48
Width: 500
Flags: W
LayerCount: 2
Fore
SplineSet
264.0546875 748.78125 m 0,0,1
 346.829287668 738.299979166 346.829287668 738.299979166 406.3984375 622.875 c 0,2,3
 407.835519154 620.725942866 407.835519154 620.725942866 409.099609375 618.19921875 c 0,4,5
 416.42578125 603.546875 416.42578125 603.546875 416.42578125 582.836914062 c 128,-1,6
 416.42578125 562.140625 416.42578125 562.140625 409.099609375 547.48828125 c 128,-1,7
 401.773925781 532.836914062 401.773925781 532.836914062 391.41796875 532.836914062 c 128,-1,8
 381.069824219 532.836914062 381.069824219 532.836914062 373.744140625 547.48828125 c 0,9,10
 349.520364705 595.936579885 349.520364705 595.936579885 317.53989417 622.993680568 c 128,-1,11
 285.559423634 650.05078125 285.559423634 650.05078125 249.975585938 650.05078125 c 128,-1,12
 214.397203326 650.05078125 214.397203326 650.05078125 182.440656743 622.9981555 c 128,-1,13
 150.484110159 595.945529751 150.484110159 595.945529751 126.255859375 547.48828125 c 0,14,15
 74.974609375 444.92578125 74.974609375 444.92578125 74.974609375 299.951171875 c 128,-1,16
 74.974609375 155.07421875 74.974609375 155.07421875 126.255859375 52.51171875 c 0,17,18
 150.479635295 4.06342011494 150.479635295 4.06342011494 182.46010583 -22.9936805675 c 128,-1,19
 214.440576366 -50.05078125 214.440576366 -50.05078125 250.024414062 -50.05078125 c 128,-1,20
 285.602796674 -50.05078125 285.602796674 -50.05078125 317.559343257 -22.9981555004 c 128,-1,21
 349.515889841 4.05447024929 349.515889841 4.05447024929 373.744140625 52.51171875 c 0,22,23
 381.069824219 67.1630859375 381.069824219 67.1630859375 391.42578125 67.1630859375 c 128,-1,24
 401.773925781 67.1630859375 401.773925781 67.1630859375 409.099609375 52.51171875 c 128,-1,25
 416.42578125 37.859375 416.42578125 37.859375 416.42578125 17.1494140625 c 128,-1,26
 416.42578125 -3.546875 416.42578125 -3.546875 409.099609375 -18.19921875 c 1,27,-1
 409.09765625 -18.1953125 l 0,28,29
 408.662477617 -19.0685904286 408.662477617 -19.0685904286 408.2109375 -19.890625 c 2,30,-1
 408.1953125 -19.91015625 l 1,31,32
 377.105305042 -81.4053560803 377.105305042 -81.4053560803 336.235216433 -115.711955384 c 128,-1,33
 295.365127824 -150.018554688 295.365127824 -150.018554688 249.947265625 -150.018554688 c 0,34,35
 204.211618576 -150.018554688 204.211618576 -150.018554688 163.13065653 -115.248394668 c 128,-1,36
 122.049694485 -80.4782346482 122.049694485 -80.4782346482 90.900390625 -18.1953125 c 0,37,38
 24.96875 113.66796875 24.96875 113.66796875 24.96875 300.064453125 c 128,-1,39
 24.96875 486.3359375 24.96875 486.3359375 90.900390625 618.19921875 c 0,40,41
 122.050470261 680.37311007 122.050470261 680.37311007 163.014328141 715.031769879 c 128,-1,42
 203.97818602 749.690429688 203.97818602 749.690429688 249.650390625 749.690429688 c 0,43,44
 256.879818024 749.690429688 256.879818024 749.690429688 264.0546875 748.78125 c 0,0,1
EndSplineSet
EndChar

StartChar: Q
Encoding: 81 81 49
Width: 500
Flags: W
LayerCount: 2
Fore
SplineSet
234.634765625 748.90625 m 0,0,1
 242.766875756 750.021484375 242.766875756 750.021484375 250.05078125 750.021484375 c 0,2,3
 295.787232945 750.021484375 295.787232945 750.021484375 336.868804211 715.250536497 c 128,-1,4
 377.950375478 680.479588619 377.950375478 680.479588619 409.099609375 618.1953125 c 0,5,6
 475.03125 486.33203125 475.03125 486.33203125 475.03125 299.935546875 c 128,-1,7
 475.03125 113.6640625 475.03125 113.6640625 409.099609375 -18.19921875 c 0,8,9
 377.969893159 -80.331719115 377.969893159 -80.331719115 336.888745279 -115.017910339 c 128,-1,10
 295.8075974 -149.704101562 295.8075974 -149.704101562 250.111328125 -149.704101562 c 0,11,12
 205.315989586 -149.704101562 205.315989586 -149.704101562 164.949611638 -116.305495474 c 128,-1,13
 124.583233691 -82.9068893864 124.583233691 -82.9068893864 93.6015625 -22.875 c 0,14,15
 92.1644808456 -20.7259428661 92.1644808456 -20.7259428661 90.900390625 -18.19921875 c 0,16,17
 83.57421875 -3.546875 83.57421875 -3.546875 83.57421875 17.1630859375 c 128,-1,18
 83.57421875 37.859375 83.57421875 37.859375 90.900390625 52.51171875 c 128,-1,19
 98.2260742188 67.1630859375 98.2260742188 67.1630859375 108.58203125 67.1630859375 c 128,-1,20
 118.930175781 67.1630859375 118.930175781 67.1630859375 126.255859375 52.51171875 c 0,21,22
 150.479635295 4.06342011494 150.479635295 4.06342011494 182.46010583 -22.9936805675 c 128,-1,23
 214.440576366 -50.05078125 214.440576366 -50.05078125 250.024414062 -50.05078125 c 128,-1,24
 285.602796674 -50.05078125 285.602796674 -50.05078125 317.559343257 -22.9981555004 c 128,-1,25
 349.515889841 4.05447024929 349.515889841 4.05447024929 373.744140625 52.51171875 c 0,26,27
 425.025390625 155.07421875 425.025390625 155.07421875 425.025390625 300.048828125 c 128,-1,28
 425.025390625 444.92578125 425.025390625 444.92578125 373.744140625 547.48828125 c 0,29,30
 349.520364705 595.936579885 349.520364705 595.936579885 317.53989417 622.993680568 c 128,-1,31
 285.559423634 650.05078125 285.559423634 650.05078125 249.975585938 650.05078125 c 128,-1,32
 214.397203326 650.05078125 214.397203326 650.05078125 182.440656743 622.9981555 c 128,-1,33
 150.484110159 595.945529751 150.484110159 595.945529751 126.255859375 547.48828125 c 0,34,35
 118.930175781 532.836914062 118.930175781 532.836914062 108.57421875 532.836914062 c 128,-1,36
 98.2260742188 532.836914062 98.2260742188 532.836914062 90.900390625 547.48828125 c 128,-1,37
 83.57421875 562.140625 83.57421875 562.140625 83.57421875 582.850585938 c 128,-1,38
 83.57421875 603.546875 83.57421875 603.546875 90.900390625 618.19921875 c 1,39,-1
 90.90234375 618.1953125 l 0,40,41
 91.3375223833 619.068590429 91.3375223833 619.068590429 91.7890625 619.890625 c 2,42,-1
 91.8046875 619.91015625 l 1,43,44
 120.138022139 675.954270175 120.138022139 675.954270175 156.890076105 709.620161671 c 128,-1,45
 193.64213007 743.286053168 193.64213007 743.286053168 234.634765625 748.90625 c 0,0,1
EndSplineSet
EndChar

StartChar: R
Encoding: 82 82 50
Width: 500
Flags: W
LayerCount: 2
Fore
SplineSet
234.634765625 748.90625 m 0,0,1
 241.313559166 749.690429688 241.313559166 749.690429688 247.635742188 749.690429688 c 0,2,3
 254.966879791 749.690429688 254.966879791 749.690429688 262.255859375 748.75390625 c 0,4,-1
 262.512695312 748.754882812 l 0,5,6
 263.284057617 748.754882812 263.284057617 748.754882812 264.193359375 748.7421875 c 0,7,8
 279.674450873 746.726004873 279.674450873 746.726004873 294.861328125 740.484375 c 2,9,-1
 294.861328125 740.484375 l 0,10,-1
 295.583984375 740.2734375 l 1,11,12
 359.508091582 713.727809168 359.508091582 713.727809168 406.3984375 622.875 c 0,13,14
 406.984396595 621.92080726 406.984396595 621.92080726 407.53515625 620.90625 c 0,15,16
 408.345196719 619.617747566 408.345196719 619.617747566 409.099609375 618.19921875 c 2,17,-1
 409.099609375 618.1953125 l 1,18,-1
 409.1171875 618.15625 l 1,19,20
 475.030273438 486.296878912 475.030273438 486.296878912 475.030273438 299.93359375 c 128,-1,21
 475.030273438 113.663690294 475.030273438 113.663690294 409.099609375 -18.19921875 c 1,22,-1
 409.056640625 -18.2734375 l 0,23,24
 408.651150414 -19.0872734873 408.651150414 -19.0872734873 408.2109375 -19.890625 c 2,25,-1
 408.1953125 -19.91015625 l 0,26,27
 404.161201789 -27.1715555297 404.161201789 -27.1715555297 399.958984375 -34.03125 c 0,28,29
 392.517647494 -48.011634335 392.517647494 -48.011634335 384.482421875 -60.57421875 c 0,30,31
 377.212885614 -70.7756107323 377.212885614 -70.7756107323 369.57421875 -79.7890625 c 0,32,33
 363.834354051 -87.5964498918 363.834354051 -87.5964498918 357.861328125 -94.6875 c 0,34,35
 347.932897635 -105.048950754 347.932897635 -105.048950754 337.53515625 -113.390625 c 0,36,37
 333.360624007 -117.369176731 333.360624007 -117.369176731 329.099609375 -121.0078125 c 0,38,39
 317.072792236 -129.699136811 317.072792236 -129.699136811 304.6328125 -135.609375 c 0,40,41
 301.698067889 -137.39548286 301.698067889 -137.39548286 298.765625 -139.0078125 c 0,42,43
 284.973985187 -144.921273223 284.973985187 -144.921273223 270.921875 -147.34375 c 0,44,45
 269.213245948 -147.852392353 269.213245948 -147.852392353 267.48046875 -148.3125 c 0,46,47
 259.164412611 -149.538085938 259.164412611 -149.538085938 251.126953125 -149.538085938 c 0,48,49
 244.414817366 -149.538085938 244.414817366 -149.538085938 237.744140625 -148.75390625 c 0,50,-1
 237.487304688 -148.754882812 l 0,51,52
 236.715942383 -148.754882812 236.715942383 -148.754882812 235.806640625 -148.7421875 c 0,53,54
 220.325549127 -146.726004873 220.325549127 -146.726004873 205.138671875 -140.484375 c 2,55,-1
 205.138671875 -140.484375 l 0,56,-1
 204.416015625 -140.2734375 l 1,57,58
 140.491908418 -113.727809168 140.491908418 -113.727809168 93.6015625 -22.875 c 0,59,60
 93.0156034053 -21.9208072597 93.0156034053 -21.9208072597 92.46484375 -20.90625 c 0,61,62
 91.6548032806 -19.6177475657 91.6548032806 -19.6177475657 90.900390625 -18.19921875 c 2,63,-1
 90.900390625 -18.1953125 l 1,64,-1
 90.89453125 -18.18359375 l 1,65,66
 24.96875 113.679035163 24.96875 113.679035163 24.96875 300.064453125 c 128,-1,67
 24.96875 486.3359375 24.96875 486.3359375 90.900390625 618.19921875 c 1,68,-1
 90.943359375 618.2734375 l 0,69,70
 91.3488495862 619.087273487 91.3488495862 619.087273487 91.7890625 619.890625 c 2,71,-1
 91.8046875 619.91015625 l 0,72,73
 95.838798211 627.17155553 95.838798211 627.17155553 100.041015625 634.03125 c 0,74,75
 107.482352506 648.011634335 107.482352506 648.011634335 115.517578125 660.57421875 c 0,76,77
 122.787114386 670.775610732 122.787114386 670.775610732 130.42578125 679.7890625 c 0,78,79
 136.165645949 687.596449892 136.165645949 687.596449892 142.138671875 694.6875 c 0,80,81
 152.067102365 705.048950754 152.067102365 705.048950754 162.46484375 713.390625 c 0,82,83
 166.639375993 717.369176731 166.639375993 717.369176731 170.900390625 721.0078125 c 0,84,85
 182.927207764 729.699136811 182.927207764 729.699136811 195.3671875 735.609375 c 0,86,87
 198.301932111 737.39548286 198.301932111 737.39548286 201.234375 739.0078125 c 0,88,89
 215.026014813 744.921273223 215.026014813 744.921273223 229.078125 747.34375 c 0,90,91
 230.786754052 747.852392353 230.786754052 747.852392353 232.51953125 748.3125 c 0,92,93
 233.536076612 748.607990933 233.536076612 748.607990933 234.634765625 748.90625 c 0,0,1
250 650 m 0,94,95
 193.138895157 650 193.138895157 650 147.13671875 583.15625 c 0,96,97
 135.996149754 566.968862007 135.996149754 566.968862007 126.255859375 547.48828125 c 0,98,99
 74.974609375 444.92578125 74.974609375 444.92578125 74.974609375 299.951171875 c 128,-1,100
 74.974609375 155.07421875 74.974609375 155.07421875 126.255859375 52.51171875 c 0,101,102
 150.493180352 4.0370767952 150.493180352 4.0370767952 182.378309192 -22.9868326962 c 128,-1,103
 214.263438032 -50.0107421875 214.263438032 -50.0107421875 249.830078125 -50.0107421875 c 0,104,105
 263.740849633 -50.0107421875 263.740849633 -50.0107421875 277.376953125 -45.69140625 c 0,106,107
 333.536801652 -27.9014212191 333.536801652 -27.9014212191 373.744140625 52.51171875 c 0,108,109
 425.025390625 155.07421875 425.025390625 155.07421875 425.025390625 300.048828125 c 128,-1,110
 425.025390625 444.92578125 425.025390625 444.92578125 373.744140625 547.48828125 c 0,111,112
 349.523587762 595.929386976 349.523587762 595.929386976 317.555320863 622.964693488 c 128,-1,113
 285.587053963 650 285.587053963 650 250 650 c 0,94,95
EndSplineSet
EndChar

StartChar: S
Encoding: 83 83 51
Width: 500
Flags: W
LayerCount: 2
Fore
SplineSet
250 750 m 0,0,1
 260 750 260 750 267.5 735.5 c 128,-1,2
 275 721 275 721 275 700 c 128,-1,3
 275 679 275 679 267.5 664.5 c 128,-1,4
 260 650 260 650 250 650 c 0,5,6
 178 650 178 650 126.5 547.5 c 128,-1,7
 75 445 75 445 75 300 c 128,-1,8
 75 155 75 155 126.5 52.5 c 128,-1,9
 178 -50 178 -50 250 -50 c 128,-1,10
 322 -50 322 -50 373.5 52.5 c 128,-1,11
 425 155 425 155 425 300 c 0,12,13
 425 321 425 321 432.5 335.5 c 128,-1,14
 440 350 440 350 450 350 c 128,-1,15
 460 350 460 350 467.5 335.5 c 128,-1,16
 475 321 475 321 475 300 c 0,17,-1
 475 300.002929688 l 0,18,19
 475 298.767089844 475 298.767089844 474.970703125 297.546875 c 2,20,-1
 474.96875 297.51171875 l 1,21,22
 474.632440418 175.906978296 474.632440418 175.906978296 444.448155924 72.8463947591 c 128,-1,23
 414.26387143 -30.2141887782 414.26387143 -30.2141887782 362.561609701 -90.0996499674 c 128,-1,24
 310.859347972 -149.985111157 310.859347972 -149.985111157 250 -150 c 0,25,26
 157 -150 157 -150 91 -18 c 128,-1,27
 25 114 25 114 25 300 c 0,28,29
 25.060991715 420.842836817 25.060991715 420.842836817 54.6703633081 523.676506271 c 128,-1,30
 84.2797349013 626.510175724 84.2797349013 626.510175724 135.226772109 687.044847896 c 128,-1,31
 186.173809316 747.579520068 186.173809316 747.579520068 246.4375 749.48828125 c 0,32,33
 248.20726107 749.998562359 248.20726107 749.998562359 250 750 c 0,0,1
EndSplineSet
EndChar

StartChar: T
Encoding: 84 84 52
Width: 500
Flags: W
LayerCount: 2
Fore
SplineSet
108.578125 632.84375 m 128,-1,1
 118.93359375 632.84375 118.93359375 632.84375 126.255859375 618.19921875 c 128,-1,2
 133.58203125 603.546875 133.58203125 603.546875 133.58203125 582.836914062 c 128,-1,3
 133.58203125 562.140625 133.58203125 562.140625 126.255859375 547.48828125 c 0,4,5
 74.974609375 444.92578125 74.974609375 444.92578125 74.974609375 299.951171875 c 128,-1,6
 74.974609375 155.07421875 74.974609375 155.07421875 126.255859375 52.51171875 c 0,7,8
 150.479635295 4.06342011494 150.479635295 4.06342011494 182.46010583 -22.9936805675 c 128,-1,9
 214.440576366 -50.05078125 214.440576366 -50.05078125 250.024414062 -50.05078125 c 128,-1,10
 285.602796674 -50.05078125 285.602796674 -50.05078125 317.559343257 -22.9981555004 c 128,-1,11
 349.515889841 4.05447024929 349.515889841 4.05447024929 373.744140625 52.51171875 c 0,12,13
 425.025390625 155.07421875 425.025390625 155.07421875 425.025390625 300.048828125 c 128,-1,14
 425.025390625 444.92578125 425.025390625 444.92578125 373.744140625 547.48828125 c 0,15,16
 366.41796875 562.140625 366.41796875 562.140625 366.41796875 582.850585938 c 128,-1,17
 366.41796875 603.546875 366.41796875 603.546875 373.744140625 618.19921875 c 128,-1,18
 381.069824219 632.850585938 381.069824219 632.850585938 391.42578125 632.850585938 c 128,-1,19
 401.773925781 632.850585938 401.773925781 632.850585938 409.099609375 618.19921875 c 1,20,-1
 409.09765625 618.1953125 l 0,21,22
 409.527247848 617.340439589 409.527247848 617.340439589 409.9453125 616.421875 c 2,23,-1
 409.955078125 616.390625 l 1,24,25
 475.008789062 484.837494882 475.008789062 484.837494882 475.008789062 299.895507812 c 0,26,27
 475.008789062 113.657826807 475.008789062 113.657826807 409.09765625 -18.19921875 c 0,28,29
 377.952606624 -80.4885712074 377.952606624 -80.4885712074 336.835114372 -115.275535604 c 128,-1,30
 295.71762212 -150.0625 295.71762212 -150.0625 249.967773438 -150.0625 c 128,-1,31
 204.224907271 -150.0625 204.224907271 -150.0625 163.138037716 -115.281263445 c 128,-1,32
 122.051168161 -80.5000268902 122.051168161 -80.5000268902 90.900390625 -18.19921875 c 0,33,34
 25.1474609375 113.573716961 25.1474609375 113.573716961 25.1474609375 299.776367188 c 0,35,36
 25.1474609375 481.886193436 25.1474609375 481.886193436 88.5625 612.796875 c 0,37,38
 89.634139181 615.665257047 89.634139181 615.665257047 90.900390625 618.19921875 c 0,39,0
 98.22265625 632.84375 98.22265625 632.84375 108.578125 632.84375 c 128,-1,1
EndSplineSet
EndChar

StartChar: U
Encoding: 85 85 53
Width: 500
Flags: W
LayerCount: 2
Fore
SplineSet
250 350 m 0,0,1
 260.35546875 350 260.35546875 350 267.677734375 335.35546875 c 2,2,-1
 303.033203125 264.641493056 l 0,3,4
 338.388671875 193.927517361 338.388671875 193.927517361 373.744140625 123.216579861 c 128,-1,5
 409.099609375 52.5056423611 409.099609375 52.5056423611 409.099609375 52.51171875 c 1,6,7
 416.42578125 37.859375 416.42578125 37.859375 416.42578125 17.1494140625 c 128,-1,8
 416.42578125 -3.546875 416.42578125 -3.546875 409.099609375 -18.19921875 c 128,-1,9
 401.773925781 -32.8505859375 401.773925781 -32.8505859375 391.41796875 -32.8505859375 c 128,-1,10
 381.069824219 -32.8505859375 381.069824219 -32.8505859375 373.744140625 -18.19921875 c 2,11,-1
 232.322265625 264.64453125 l 1,12,-1
 232.3671875 264.734375 l 1,13,14
 225.03666216 279.319609 225.03666216 279.319609 225 300 c 0,15,16
 225 321 225 321 232.5 335.5 c 128,-1,17
 240 350 240 350 250 350 c 0,0,1
EndSplineSet
EndChar

StartChar: V
Encoding: 86 86 54
Width: 500
Flags: W
LayerCount: 2
Fore
SplineSet
233.94921875 748.85546875 m 0,0,1
 242.404418635 750.064453125 242.404418635 750.064453125 250.03125 750.064453125 c 0,2,3
 295.774731949 750.064453125 295.774731949 750.064453125 336.861739329 715.282698603 c 128,-1,4
 377.948746709 680.500944081 377.948746709 680.500944081 409.099609375 618.19921875 c 0,5,6
 474.852539062 486.426283039 474.852539062 486.426283039 474.852539062 300.223632812 c 0,7,8
 474.852539062 118.113806564 474.852539062 118.113806564 411.4375 -12.796875 c 0,9,10
 410.365860819 -15.665257047 410.365860819 -15.665257047 409.099609375 -18.19921875 c 0,11,12
 401.773925781 -32.8505859375 401.773925781 -32.8505859375 391.41796875 -32.8505859375 c 128,-1,13
 381.069824219 -32.8505859375 381.069824219 -32.8505859375 373.744140625 -18.19921875 c 128,-1,14
 366.41796875 -3.546875 366.41796875 -3.546875 366.41796875 17.1630859375 c 128,-1,15
 366.41796875 37.859375 366.41796875 37.859375 373.744140625 52.51171875 c 0,16,17
 425.025390625 155.07421875 425.025390625 155.07421875 425.025390625 300.048828125 c 128,-1,18
 425.025390625 444.92578125 425.025390625 444.92578125 373.744140625 547.48828125 c 0,19,20
 349.520364705 595.936579885 349.520364705 595.936579885 317.53989417 622.993680568 c 128,-1,21
 285.559423634 650.05078125 285.559423634 650.05078125 249.975585938 650.05078125 c 128,-1,22
 214.397203326 650.05078125 214.397203326 650.05078125 182.440656743 622.9981555 c 128,-1,23
 150.484110159 595.945529751 150.484110159 595.945529751 126.255859375 547.48828125 c 0,24,25
 74.974609375 444.92578125 74.974609375 444.92578125 74.974609375 299.951171875 c 128,-1,26
 74.974609375 155.07421875 74.974609375 155.07421875 126.255859375 52.51171875 c 0,27,28
 133.58203125 37.859375 133.58203125 37.859375 133.58203125 17.1494140625 c 128,-1,29
 133.58203125 -3.546875 133.58203125 -3.546875 126.255859375 -18.19921875 c 128,-1,30
 118.930175781 -32.8505859375 118.930175781 -32.8505859375 108.57421875 -32.8505859375 c 128,-1,31
 98.2260742188 -32.8505859375 98.2260742188 -32.8505859375 90.900390625 -18.19921875 c 1,32,-1
 90.90234375 -18.1953125 l 0,33,34
 90.4727521525 -17.3404395885 90.4727521525 -17.3404395885 90.0546875 -16.421875 c 2,35,-1
 90.044921875 -16.390625 l 1,36,37
 24.9912109375 115.162505118 24.9912109375 115.162505118 24.9912109375 300.104492188 c 0,38,39
 24.9912109375 486.342173193 24.9912109375 486.342173193 90.90234375 618.19921875 c 0,40,41
 119.187289267 674.769109783 119.187289267 674.769109783 156.004490218 708.870379175 c 128,-1,42
 192.821691169 742.971648567 192.821691169 742.971648567 233.94921875 748.85546875 c 0,0,1
104.66796875 632.2265625 m 0,43,44
 106.634460449 632.849609375 106.634460449 632.849609375 108.58203125 632.849609375 c 0,45,46
 118.929873602 632.849609375 118.929873602 632.849609375 126.255859375 618.19921875 c 2,47,-1
 196.966796875 476.774305556 l 0,48,49
 267.677734375 335.349392361 267.677734375 335.349392361 338.388671875 193.927517361 c 128,-1,50
 409.099609375 52.5056423611 409.099609375 52.5056423611 409.099609375 52.51171875 c 1,51,52
 416.42578125 37.859375 416.42578125 37.859375 416.42578125 17.1494140625 c 128,-1,53
 416.42578125 -3.546875 416.42578125 -3.546875 409.099609375 -18.19921875 c 128,-1,54
 401.773925781 -32.8505859375 401.773925781 -32.8505859375 391.41796875 -32.8505859375 c 128,-1,55
 381.069824219 -32.8505859375 381.069824219 -32.8505859375 373.744140625 -18.19921875 c 2,56,-1
 303.033203125 123.225694444 l 0,57,58
 232.322265625 264.650607639 232.322265625 264.650607639 161.611328125 406.072482639 c 128,-1,59
 90.900390625 547.494357639 90.900390625 547.494357639 90.900390625 547.48828125 c 1,60,61
 83.57421875 562.140625 83.57421875 562.140625 83.57421875 582.850585938 c 128,-1,62
 83.57421875 603.546875 83.57421875 603.546875 90.900390625 618.19921875 c 0,63,64
 96.6451240435 629.687147506 96.6451240435 629.687147506 104.66796875 632.2265625 c 0,43,44
EndSplineSet
EndChar

StartChar: W
Encoding: 87 87 55
Width: 500
Flags: W
LayerCount: 2
Fore
SplineSet
50 350 m 128,-1,1
 60 350 60 350 67.5 335.5 c 128,-1,2
 75 321 75 321 75 300 c 0,3,4
 75 155 75 155 126.5 52.5 c 128,-1,5
 178 -50 178 -50 250 -50 c 0,6,7
 262.515304338 -50 262.515304338 -50 274.904296875 -46.4375 c 0,8,9
 338.877445175 -28.0423163506 338.877445175 -28.0423163506 381.938722588 70.3578382887 c 128,-1,10
 425 168.757992928 425 168.757992928 425 300 c 0,11,12
 425 321 425 321 432.5 335.5 c 128,-1,13
 440 350 440 350 450 350 c 128,-1,14
 460 350 460 350 467.5 335.5 c 128,-1,15
 475 321 475 321 475 300 c 0,16,17
 474.776382988 289.220217323 474.776382988 289.220217323 474.291015625 278.404296875 c 0,18,19
 474.022434561 259.000036961 474.022434561 259.000036961 472.921875 239.734375 c 0,20,21
 472.079174527 230.206399069 472.079174527 230.206399069 471.04296875 220.84375 c 0,22,23
 469.496188486 201.329734081 469.496188486 201.329734081 467.09375 182.119140625 c 0,24,25
 465.74626089 173.631136081 465.74626089 173.631136081 464.2265625 165.224609375 c 0,26,27
 461.338204267 145.594362078 461.338204267 145.594362078 457.57421875 126.580078125 c 0,28,29
 455.695983602 118.566079481 455.695983602 118.566079481 453.65234375 110.671875 c 0,30,31
 449.503897946 91.9173818516 449.503897946 91.9173818516 444.517578125 73.990234375 c 0,32,33
 442.153679803 66.6048783694 442.153679803 66.6048783694 439.650390625 59.41796875 c 0,34,35
 434.292888775 41.8091207573 434.292888775 41.8091207573 428.150390625 25.25 c 0,36,37
 425.40059797 18.7293519755 425.40059797 18.7293519755 422.486328125 12.33203125 c 0,38,39
 415.972985827 -3.88364395372 415.972985827 -3.88364395372 408.74609375 -18.81640625 c 0,40,41
 405.618589732 -24.5159951619 405.618589732 -24.5159951619 402.37890625 -29.986328125 c 0,42,43
 394.82593894 -44.455318184 394.82593894 -44.455318184 386.64453125 -57.447265625 c 0,44,45
 383.105816277 -62.3736257657 383.105816277 -62.3736257657 379.4921875 -67.00390625 c 0,46,47
 371.120782658 -79.2923144077 371.120782658 -79.2923144077 362.216796875 -89.990234375 c 0,48,49
 358.22997711 -94.1227518722 358.22997711 -94.1227518722 354.16015625 -97.935546875 c 0,50,51
 345.220500446 -107.747328228 345.220500446 -107.747328228 335.876953125 -115.900390625 c 0,52,53
 331.427980283 -119.130892702 331.427980283 -119.130892702 326.91796875 -121.982421875 c 0,54,55
 317.636542327 -129.189927519 317.636542327 -129.189927519 308.080078125 -134.7265625 c 0,56,57
 302.528553917 -137.230075016 302.528553917 -137.230075016 296.921875 -139.16796875 c 0,58,59
 288.169827448 -143.371918371 288.169827448 -143.371918371 279.28515625 -146.162109375 c 0,60,61
 264.699837065 -149.995695089 264.699837065 -149.995695089 250 -150 c 0,62,63
 189.57877547 -149.877536227 189.57877547 -149.877536227 138.161855734 -90.6586623085 c 128,-1,64
 86.7449359988 -31.4397883903 86.7449359988 -31.4397883903 56.4774671822 70.4542352251 c 128,-1,65
 26.2099983656 172.348258841 26.2099983656 172.348258841 25.255859375 292.875 c 0,66,67
 25 296.42449422 25 296.42449422 25 300 c 0,68,69
 25 321 25 321 32.5 335.5 c 128,-1,0
 40 350 40 350 50 350 c 128,-1,1
EndSplineSet
EndChar

StartChar: X
Encoding: 88 88 56
Width: 500
Flags: W
LayerCount: 2
Fore
SplineSet
250 750 m 0,0,1
 343 750 343 750 409 618 c 128,-1,2
 475 486 475 486 475 300 c 0,3,4
 474.939008285 179.157163183 474.939008285 179.157163183 445.329636692 76.3234937293 c 128,-1,5
 415.720265099 -26.5101757241 415.720265099 -26.5101757241 364.773227891 -87.0448478959 c 128,-1,6
 313.826190684 -147.579520068 313.826190684 -147.579520068 253.5625 -149.48828125 c 0,7,8
 251.79273893 -149.998562359 251.79273893 -149.998562359 250 -150 c 0,9,10
 240 -150 240 -150 232.5 -135.5 c 128,-1,11
 225 -121 225 -121 225 -100 c 128,-1,12
 225 -79 225 -79 232.5 -64.5 c 128,-1,13
 240 -50 240 -50 250 -50 c 0,14,15
 322 -50 322 -50 373.5 52.5 c 128,-1,16
 425 155 425 155 425 300 c 128,-1,17
 425 445 425 445 373.5 547.5 c 128,-1,18
 322 650 322 650 250 650 c 128,-1,19
 178 650 178 650 126.5 547.5 c 128,-1,20
 75 445 75 445 75 300 c 0,21,22
 75 279 75 279 67.5 264.5 c 128,-1,23
 60 250 60 250 50 250 c 128,-1,24
 40 250 40 250 32.5 264.5 c 128,-1,25
 25 279 25 279 25 300 c 0,26,-1
 25 299.997070312 l 0,27,28
 25 301.232910156 25 301.232910156 25.029296875 302.453125 c 2,29,-1
 25.03125 302.48828125 l 1,30,31
 25.3675595821 424.093021704 25.3675595821 424.093021704 55.5518440759 527.153605241 c 128,-1,32
 85.7361285698 630.214188778 85.7361285698 630.214188778 137.438390299 690.099649967 c 128,-1,33
 189.140652028 749.985111157 189.140652028 749.985111157 250 750 c 0,0,1
104.66796875 632.2265625 m 0,34,35
 106.634460449 632.849609375 106.634460449 632.849609375 108.58203125 632.849609375 c 0,36,37
 118.929873602 632.849609375 118.929873602 632.849609375 126.255859375 618.19921875 c 2,38,-1
 196.966796875 476.774305556 l 0,39,40
 267.677734375 335.349392361 267.677734375 335.349392361 338.388671875 193.927517361 c 128,-1,41
 409.099609375 52.5056423611 409.099609375 52.5056423611 409.099609375 52.51171875 c 1,42,43
 416.42578125 37.859375 416.42578125 37.859375 416.42578125 17.1494140625 c 128,-1,44
 416.42578125 -3.546875 416.42578125 -3.546875 409.099609375 -18.19921875 c 128,-1,45
 401.773925781 -32.8505859375 401.773925781 -32.8505859375 391.41796875 -32.8505859375 c 128,-1,46
 381.069824219 -32.8505859375 381.069824219 -32.8505859375 373.744140625 -18.19921875 c 2,47,-1
 303.033203125 123.225694444 l 0,48,49
 232.322265625 264.650607639 232.322265625 264.650607639 161.611328125 406.072482639 c 128,-1,50
 90.900390625 547.494357639 90.900390625 547.494357639 90.900390625 547.48828125 c 1,51,52
 83.57421875 562.140625 83.57421875 562.140625 83.57421875 582.850585938 c 128,-1,53
 83.57421875 603.546875 83.57421875 603.546875 90.900390625 618.19921875 c 0,54,55
 96.6451240435 629.687147506 96.6451240435 629.687147506 104.66796875 632.2265625 c 0,34,35
EndSplineSet
EndChar

StartChar: Y
Encoding: 89 89 57
Width: 500
Flags: W
LayerCount: 2
Fore
SplineSet
234.634765625 748.90625 m 0,0,1
 242.766875756 750.021484375 242.766875756 750.021484375 250.05078125 750.021484375 c 0,2,3
 295.787232945 750.021484375 295.787232945 750.021484375 336.868804211 715.250536497 c 128,-1,4
 377.950375478 680.479588619 377.950375478 680.479588619 409.099609375 618.1953125 c 0,5,6
 475.03125 486.33203125 475.03125 486.33203125 475.03125 299.935546875 c 128,-1,7
 475.03125 113.6640625 475.03125 113.6640625 409.099609375 -18.19921875 c 0,8,9
 377.969893159 -80.331719115 377.969893159 -80.331719115 336.888745279 -115.017910339 c 128,-1,10
 295.8075974 -149.704101562 295.8075974 -149.704101562 250.111328125 -149.704101562 c 0,11,12
 205.315989586 -149.704101562 205.315989586 -149.704101562 164.949611638 -116.305495474 c 128,-1,13
 124.583233691 -82.9068893864 124.583233691 -82.9068893864 93.6015625 -22.875 c 0,14,15
 92.1644808456 -20.7259428661 92.1644808456 -20.7259428661 90.900390625 -18.19921875 c 0,16,17
 83.57421875 -3.546875 83.57421875 -3.546875 83.57421875 17.1630859375 c 128,-1,18
 83.57421875 37.859375 83.57421875 37.859375 90.900390625 52.51171875 c 128,-1,19
 98.2260742188 67.1630859375 98.2260742188 67.1630859375 108.58203125 67.1630859375 c 128,-1,20
 118.930175781 67.1630859375 118.930175781 67.1630859375 126.255859375 52.51171875 c 0,21,22
 150.479635295 4.06342011494 150.479635295 4.06342011494 182.46010583 -22.9936805675 c 128,-1,23
 214.440576366 -50.05078125 214.440576366 -50.05078125 250.024414062 -50.05078125 c 128,-1,24
 285.602796674 -50.05078125 285.602796674 -50.05078125 317.559343257 -22.9981555004 c 128,-1,25
 349.515889841 4.05447024929 349.515889841 4.05447024929 373.744140625 52.51171875 c 0,26,27
 425.025390625 155.07421875 425.025390625 155.07421875 425.025390625 300.048828125 c 128,-1,28
 425.025390625 444.92578125 425.025390625 444.92578125 373.744140625 547.48828125 c 0,29,30
 349.520364705 595.936579885 349.520364705 595.936579885 317.53989417 622.993680568 c 128,-1,31
 285.559423634 650.05078125 285.559423634 650.05078125 249.975585938 650.05078125 c 128,-1,32
 214.397203326 650.05078125 214.397203326 650.05078125 182.440656743 622.9981555 c 128,-1,33
 150.484110159 595.945529751 150.484110159 595.945529751 126.255859375 547.48828125 c 0,34,35
 118.930175781 532.836914062 118.930175781 532.836914062 108.57421875 532.836914062 c 128,-1,36
 98.2260742188 532.836914062 98.2260742188 532.836914062 90.900390625 547.48828125 c 128,-1,37
 83.57421875 562.140625 83.57421875 562.140625 83.57421875 582.850585938 c 128,-1,38
 83.57421875 603.546875 83.57421875 603.546875 90.900390625 618.19921875 c 1,39,-1
 90.90234375 618.1953125 l 0,40,41
 91.3375223833 619.068590429 91.3375223833 619.068590429 91.7890625 619.890625 c 2,42,-1
 91.8046875 619.91015625 l 1,43,44
 120.138022139 675.954270175 120.138022139 675.954270175 156.890076105 709.620161671 c 128,-1,45
 193.64213007 743.286053168 193.64213007 743.286053168 234.634765625 748.90625 c 0,0,1
104.66796875 632.2265625 m 0,46,47
 106.634460449 632.849609375 106.634460449 632.849609375 108.58203125 632.849609375 c 0,48,49
 118.929873602 632.849609375 118.929873602 632.849609375 126.255859375 618.19921875 c 2,50,-1
 196.966796875 476.774305556 l 0,51,52
 267.677734375 335.349392361 267.677734375 335.349392361 338.388671875 193.927517361 c 128,-1,53
 409.099609375 52.5056423611 409.099609375 52.5056423611 409.099609375 52.51171875 c 1,54,55
 416.42578125 37.859375 416.42578125 37.859375 416.42578125 17.1494140625 c 128,-1,56
 416.42578125 -3.546875 416.42578125 -3.546875 409.099609375 -18.19921875 c 128,-1,57
 401.773925781 -32.8505859375 401.773925781 -32.8505859375 391.41796875 -32.8505859375 c 128,-1,58
 381.069824219 -32.8505859375 381.069824219 -32.8505859375 373.744140625 -18.19921875 c 2,59,-1
 303.033203125 123.225694444 l 0,60,61
 232.322265625 264.650607639 232.322265625 264.650607639 161.611328125 406.072482639 c 128,-1,62
 90.900390625 547.494357639 90.900390625 547.494357639 90.900390625 547.48828125 c 1,63,64
 83.57421875 562.140625 83.57421875 562.140625 83.57421875 582.850585938 c 128,-1,65
 83.57421875 603.546875 83.57421875 603.546875 90.900390625 618.19921875 c 0,66,67
 96.6451240435 629.687147506 96.6451240435 629.687147506 104.66796875 632.2265625 c 0,46,47
250 550 m 128,-1,69
 302 550 302 550 338.5 476.5 c 128,-1,70
 375 403 375 403 375 300 c 128,-1,71
 375 197 375 197 338.5 123.5 c 128,-1,72
 302 50 302 50 250 50 c 128,-1,73
 198 50 198 50 161.5 123.5 c 128,-1,74
 125 197 125 197 125 300 c 128,-1,75
 125 403 125 403 161.5 476.5 c 128,-1,68
 198 550 198 550 250 550 c 128,-1,69
250 450 m 128,-1,77
 219 450 219 450 197 406 c 128,-1,78
 175 362 175 362 175 300 c 128,-1,79
 175 238 175 238 197 194 c 128,-1,80
 219 150 219 150 250 150 c 128,-1,81
 281 150 281 150 303 194 c 128,-1,82
 325 238 325 238 325 300 c 128,-1,83
 325 362 325 362 303 406 c 128,-1,76
 281 450 281 450 250 450 c 128,-1,77
EndSplineSet
EndChar

StartChar: Z
Encoding: 90 90 58
Width: 500
Flags: W
LayerCount: 2
Fore
SplineSet
250 750 m 0,0,1
 260 750 260 750 267.5 735.5 c 128,-1,2
 275 721 275 721 275 700 c 128,-1,3
 275 679 275 679 267.5 664.5 c 128,-1,4
 260 650 260 650 250 650 c 0,5,6
 178 650 178 650 126.5 547.5 c 128,-1,7
 75 445 75 445 75 300 c 128,-1,8
 75 155 75 155 126.5 52.5 c 128,-1,9
 178 -50 178 -50 250 -50 c 128,-1,10
 322 -50 322 -50 373.5 52.5 c 128,-1,11
 425 155 425 155 425 300 c 0,12,13
 425 321 425 321 432.5 335.5 c 128,-1,14
 440 350 440 350 450 350 c 128,-1,15
 460 350 460 350 467.5 335.5 c 128,-1,16
 475 321 475 321 475 300 c 0,17,-1
 475 300.002929688 l 0,18,19
 475 298.767089844 475 298.767089844 474.970703125 297.546875 c 2,20,-1
 474.96875 297.51171875 l 1,21,22
 474.632440418 175.906978296 474.632440418 175.906978296 444.448155924 72.8463947591 c 128,-1,23
 414.26387143 -30.2141887782 414.26387143 -30.2141887782 362.561609701 -90.0996499674 c 128,-1,24
 310.859347972 -149.985111157 310.859347972 -149.985111157 250 -150 c 0,25,26
 157 -150 157 -150 91 -18 c 128,-1,27
 25 114 25 114 25 300 c 0,28,29
 25.060991715 420.842836817 25.060991715 420.842836817 54.6703633081 523.676506271 c 128,-1,30
 84.2797349013 626.510175724 84.2797349013 626.510175724 135.226772109 687.044847896 c 128,-1,31
 186.173809316 747.579520068 186.173809316 747.579520068 246.4375 749.48828125 c 0,32,33
 248.20726107 749.998562359 248.20726107 749.998562359 250 750 c 0,0,1
104.66796875 632.2265625 m 0,34,35
 106.634460449 632.849609375 106.634460449 632.849609375 108.58203125 632.849609375 c 0,36,37
 118.929873602 632.849609375 118.929873602 632.849609375 126.255859375 618.19921875 c 2,38,-1
 196.966796875 476.774305556 l 0,39,40
 267.677734375 335.349392361 267.677734375 335.349392361 338.388671875 193.927517361 c 128,-1,41
 409.099609375 52.5056423611 409.099609375 52.5056423611 409.099609375 52.51171875 c 1,42,43
 416.42578125 37.859375 416.42578125 37.859375 416.42578125 17.1494140625 c 128,-1,44
 416.42578125 -3.546875 416.42578125 -3.546875 409.099609375 -18.19921875 c 128,-1,45
 401.773925781 -32.8505859375 401.773925781 -32.8505859375 391.41796875 -32.8505859375 c 128,-1,46
 381.069824219 -32.8505859375 381.069824219 -32.8505859375 373.744140625 -18.19921875 c 2,47,-1
 303.033203125 123.225694444 l 0,48,49
 232.322265625 264.650607639 232.322265625 264.650607639 161.611328125 406.072482639 c 128,-1,50
 90.900390625 547.494357639 90.900390625 547.494357639 90.900390625 547.48828125 c 1,51,52
 83.57421875 562.140625 83.57421875 562.140625 83.57421875 582.850585938 c 128,-1,53
 83.57421875 603.546875 83.57421875 603.546875 90.900390625 618.19921875 c 0,54,55
 96.6451240435 629.687147506 96.6451240435 629.687147506 104.66796875 632.2265625 c 0,34,35
EndSplineSet
EndChar

StartChar: bracketleft
Encoding: 91 91 59
Width: 500
Flags: W
LayerCount: 2
Fore
SplineSet
250 750 m 2,0,-1
 350 750 l 2,1,2
 360 750 360 750 367.5 735.5 c 128,-1,3
 375 721 375 721 375 700 c 128,-1,4
 375 679 375 679 367.5 664.5 c 128,-1,5
 360 650 360 650 350 650 c 2,6,-1
 250 650 l 2,7,8
 219 650 219 650 197 606 c 128,-1,9
 175 562 175 562 175 500 c 2,10,-1
 175 100 l 2,11,12
 175 38 175 38 197 -6 c 128,-1,13
 219 -50 219 -50 250 -50 c 2,14,-1
 350 -50 l 2,15,16
 360 -50 360 -50 367.5 -64.5 c 128,-1,17
 375 -79 375 -79 375 -100 c 128,-1,18
 375 -121 375 -121 367.5 -135.5 c 128,-1,19
 360 -150 360 -150 350 -150 c 2,20,-1
 250 -150 l 2,21,22
 198 -150 198 -150 161.5 -76.5 c 128,-1,23
 125 -3 125 -3 125 100 c 2,24,-1
 125 500 l 2,25,26
 125 603 125 603 161.5 676.5 c 128,-1,27
 198 750 198 750 250 750 c 2,0,-1
EndSplineSet
EndChar

StartChar: backslash
Encoding: 92 92 60
Width: 500
Flags: W
LayerCount: 2
Fore
SplineSet
104.66796875 632.2265625 m 0,0,1
 106.634460449 632.849609375 106.634460449 632.849609375 108.58203125 632.849609375 c 0,2,3
 118.929873602 632.849609375 118.929873602 632.849609375 126.255859375 618.19921875 c 2,4,-1
 196.966796875 476.774305556 l 0,5,6
 267.677734375 335.349392361 267.677734375 335.349392361 338.388671875 193.927517361 c 128,-1,7
 409.099609375 52.5056423611 409.099609375 52.5056423611 409.099609375 52.51171875 c 1,8,9
 416.42578125 37.859375 416.42578125 37.859375 416.42578125 17.1494140625 c 128,-1,10
 416.42578125 -3.546875 416.42578125 -3.546875 409.099609375 -18.19921875 c 128,-1,11
 401.773925781 -32.8505859375 401.773925781 -32.8505859375 391.41796875 -32.8505859375 c 128,-1,12
 381.069824219 -32.8505859375 381.069824219 -32.8505859375 373.744140625 -18.19921875 c 2,13,-1
 303.033203125 123.225694444 l 0,14,15
 232.322265625 264.650607639 232.322265625 264.650607639 161.611328125 406.072482639 c 128,-1,16
 90.900390625 547.494357639 90.900390625 547.494357639 90.900390625 547.48828125 c 1,17,18
 83.57421875 562.140625 83.57421875 562.140625 83.57421875 582.850585938 c 128,-1,19
 83.57421875 603.546875 83.57421875 603.546875 90.900390625 618.19921875 c 0,20,21
 96.6451240435 629.687147506 96.6451240435 629.687147506 104.66796875 632.2265625 c 0,0,1
EndSplineSet
EndChar

StartChar: bracketright
Encoding: 93 93 61
Width: 500
Flags: W
LayerCount: 2
Fore
SplineSet
150 750 m 2,0,-1
 250 750 l 2,1,2
 302 750 302 750 338.5 676.5 c 128,-1,3
 375 603 375 603 375 500 c 2,4,-1
 375 100 l 2,5,6
 375 -3 375 -3 338.5 -76.5 c 128,-1,7
 302 -150 302 -150 250 -150 c 2,8,-1
 150 -150 l 2,9,10
 140 -150 140 -150 132.5 -135.5 c 128,-1,11
 125 -121 125 -121 125 -100 c 128,-1,12
 125 -79 125 -79 132.5 -64.5 c 128,-1,13
 140 -50 140 -50 150 -50 c 2,14,-1
 250 -50 l 2,15,16
 281 -50 281 -50 303 -6 c 128,-1,17
 325 38 325 38 325 100 c 2,18,-1
 325 500 l 2,19,20
 325 562 325 562 303 606 c 128,-1,21
 281 650 281 650 250 650 c 2,22,-1
 150 650 l 2,23,24
 140 650 140 650 132.5 664.5 c 128,-1,25
 125 679 125 679 125 700 c 128,-1,26
 125 721 125 721 132.5 735.5 c 128,-1,27
 140 750 140 750 150 750 c 2,0,-1
EndSplineSet
EndChar

StartChar: asciicircum
Encoding: 94 94 62
Width: 500
Flags: W
LayerCount: 2
Fore
SplineSet
262.255859375 748.75390625 m 0,0,-1
 262.614257812 748.754882812 l 0,1,2
 263.403808594 748.754394531 263.403808594 748.754394531 264.193359375 748.744140625 c 0,3,4
 279.665319644 746.729147205 279.665319644 746.729147205 294.861328125 740.484375 c 2,5,-1
 294.861328125 740.484375 l 0,6,-1
 295.583984375 740.274414062 l 1,7,8
 359.506834918 713.727837754 359.506834918 713.727837754 406.3984375 622.874023438 c 0,9,10
 406.993637754 621.902359022 406.993637754 621.902359022 407.53515625 620.90625 c 0,11,12
 408.359745261 619.490705532 408.359745261 619.490705532 409.099609375 618.196289062 c 2,13,-1
 409.1171875 618.15625 l 1,14,15
 416.423828125 603.509771118 416.423828125 603.509771118 416.423828125 582.83203125 c 128,-1,16
 416.423828125 562.13829963 416.423828125 562.13829963 409.099609375 547.48828125 c 128,-1,17
 401.775018461 532.8359375 401.775018461 532.8359375 391.418945312 532.8359375 c 128,-1,18
 381.0703125 532.8359375 381.0703125 532.8359375 373.744140625 547.48828125 c 0,19,20
 349.557169319 595.862969522 349.557169319 595.862969522 317.514534562 622.842129292 c 128,-1,21
 285.471899804 649.821289062 285.471899804 649.821289062 249.842773438 649.821289062 c 0,22,23
 193.013860282 649.821289062 193.013860282 649.821289062 147.135742188 583.15625 c 0,24,25
 135.994881475 566.964865765 135.994881475 566.964865765 126.255859375 547.48828125 c 0,26,27
 118.9296875 532.8359375 118.9296875 532.8359375 108.57421875 532.8359375 c 128,-1,28
 98.2249815393 532.8359375 98.2249815393 532.8359375 90.900390625 547.48828125 c 128,-1,29
 83.57421875 562.140625 83.57421875 562.140625 83.57421875 582.850585938 c 128,-1,30
 83.57421875 603.547851562 83.57421875 603.547851562 90.900390625 618.200195312 c 1,31,-1
 90.9033203125 618.196289062 l 1,32,-1
 90.943359375 618.272460938 l 0,33,34
 95.3893814792 626.399707766 95.3893814792 626.399707766 100.041015625 634.032226562 c 0,35,36
 107.476657061 648.00045406 107.476657061 648.00045406 115.517578125 660.57421875 c 0,37,38
 122.782741654 670.769474446 122.782741654 670.769474446 130.42578125 679.788085938 c 0,39,40
 136.160025167 687.589290735 136.160025167 687.589290735 142.138671875 694.688476562 c 0,41,42
 152.071213981 705.052739761 152.071213981 705.052739761 162.46484375 713.389648438 c 0,43,44
 166.634379752 717.364910259 166.634379752 717.364910259 170.900390625 721.0078125 c 0,45,46
 182.918922633 729.69422398 182.918922633 729.69422398 195.3671875 735.608398438 c 0,47,48
 198.31854516 737.404617125 198.31854516 737.404617125 201.234375 739.0078125 c 0,49,50
 215.020224852 744.920275078 215.020224852 744.920275078 229.078125 747.34375 c 0,51,52
 230.802035478 747.856941485 230.802035478 747.856941485 232.51953125 748.314453125 c 0,53,54
 240.837466236 749.5390625 240.837466236 749.5390625 248.868164062 749.5390625 c 0,55,56
 255.58644224 749.5390625 255.58644224 749.5390625 262.255859375 748.75390625 c 0,0,-1
EndSplineSet
EndChar

StartChar: underscore
Encoding: 95 95 63
Width: 500
Flags: W
LayerCount: 2
Fore
SplineSet
108.578125 67.15625 m 128,-1,1
 118.93359375 67.15625 118.93359375 67.15625 126.255859375 52.51171875 c 0,2,3
 150.49333132 4.03677486032 150.49333132 4.03677486032 182.378604889 -22.9874719448 c 128,-1,4
 214.263878459 -50.01171875 214.263878459 -50.01171875 249.831054688 -50.01171875 c 0,5,6
 263.740849633 -50.01171875 263.740849633 -50.01171875 277.376953125 -45.6923828125 c 0,7,8
 333.537095682 -27.90083317 333.537095682 -27.90083317 373.744140625 52.51171875 c 0,9,10
 381.0703125 67.1640625 381.0703125 67.1640625 391.42578125 67.1640625 c 128,-1,11
 401.775018461 67.1640625 401.775018461 67.1640625 409.099609375 52.51171875 c 128,-1,12
 416.42578125 37.859375 416.42578125 37.859375 416.42578125 17.1494140625 c 128,-1,13
 416.42578125 -3.5478515625 416.42578125 -3.5478515625 409.099609375 -18.2001953125 c 1,14,-1
 409.096679688 -18.1943359375 l 1,15,-1
 409.056640625 -18.2744140625 l 0,16,17
 404.621054312 -26.3825844562 404.621054312 -26.3825844562 399.958984375 -34.0322265625 c 0,18,19
 392.523342939 -48.0004540599 392.523342939 -48.0004540599 384.482421875 -60.57421875 c 0,20,21
 377.217258346 -70.769474446 377.217258346 -70.769474446 369.57421875 -79.7880859375 c 0,22,23
 363.839974833 -87.5892907354 363.839974833 -87.5892907354 357.861328125 -94.6884765625 c 0,24,25
 347.928786019 -105.052739761 347.928786019 -105.052739761 337.53515625 -113.389648438 c 0,26,27
 333.345984895 -117.383630728 333.345984895 -117.383630728 329.099609375 -121.009765625 c 0,28,29
 317.081077367 -129.696177105 317.081077367 -129.696177105 304.6328125 -135.610351562 c 0,30,31
 301.714680938 -137.386348594 301.714680938 -137.386348594 298.765625 -139.0078125 c 0,32,33
 284.979775148 -144.920275078 284.979775148 -144.920275078 270.921875 -147.34375 c 0,34,35
 269.197964522 -147.856941485 269.197964522 -147.856941485 267.48046875 -148.314453125 c 0,36,37
 259.162533764 -149.5390625 259.162533764 -149.5390625 251.131835938 -149.5390625 c 0,38,39
 244.41355776 -149.5390625 244.41355776 -149.5390625 237.744140625 -148.75390625 c 0,40,-1
 237.385742188 -148.754882812 l 0,41,42
 236.596191406 -148.754394531 236.596191406 -148.754394531 235.806640625 -148.744140625 c 0,43,44
 220.334680356 -146.729147205 220.334680356 -146.729147205 205.138671875 -140.484375 c 2,45,-1
 205.138671875 -140.484375 l 0,46,-1
 204.416015625 -140.274414062 l 1,47,48
 140.493849364 -113.729591743 140.493849364 -113.729591743 93.6015625 -22.8759765625 c 0,49,50
 93.0133083194 -21.91657947 93.0133083194 -21.91657947 92.46484375 -20.90625 c 0,51,52
 91.6402547393 -19.4907055317 91.6402547393 -19.4907055317 90.900390625 -18.1962890625 c 2,53,-1
 90.8935546875 -18.18359375 l 1,54,55
 83.5751953125 -3.53422715489 83.5751953125 -3.53422715489 83.5751953125 17.1650390625 c 128,-1,56
 83.5751953125 37.862908875 83.5751953125 37.862908875 90.900390625 52.51171875 c 128,-1,0
 98.2210761323 67.15625 98.2210761323 67.15625 108.578125 67.15625 c 128,-1,1
EndSplineSet
EndChar

StartChar: grave
Encoding: 96 96 64
Width: 500
Flags: W
LayerCount: 2
Fore
SplineSet
250 750 m 0,0,1
 256.402662434 749.447397865 256.402662434 749.447397865 262.787109375 748.1640625 c 0,2,3
 272.607860542 747.516857951 272.607860542 747.516857951 282.359375 745.16015625 c 0,4,5
 291.35217619 742.027057271 291.35217619 742.027057271 300.1796875 737.453125 c 0,6,7
 306.757482019 734.932689118 306.757482019 734.932689118 313.259765625 731.62890625 c 0,8,9
 324.149151244 724.807614098 324.149151244 724.807614098 334.640625 715.81640625 c 0,10,11
 338.792285005 712.865226246 338.792285005 712.865226246 342.892578125 709.58203125 c 0,12,13
 354.609440305 698.608725096 354.609440305 698.608725096 365.62109375 685.01953125 c 0,14,15
 368.186296471 682.27852937 368.186296471 682.27852937 370.71875 679.40234375 c 0,16,17
 382.626247329 664.009014379 382.626247329 664.009014379 393.474609375 645.74609375 c 0,18,19
 394.795625564 643.787593714 394.795625564 643.787593714 396.134765625 641.73828125 c 0,20,21
 407.592408967 622.004459898 407.592408967 622.004459898 417.625 599.38671875 c 0,22,23
 418.131830515 598.377269608 418.131830515 598.377269608 418.669921875 597.2890625 c 0,24,25
 428.980666532 573.816473913 428.980666532 573.816473913 437.5703125 547.72265625 c 2,26,-1
 437.5703125 547.72265625 l 0,27,-1
 437.884765625 546.87890625 l 1,28,29
 473.708852281 437.69712755 473.708852281 437.69712755 474.744140625 307.125 c 0,30,31
 475 303.57550578 475 303.57550578 475 300 c 0,32,33
 475 279 475 279 467.5 264.5 c 128,-1,34
 460 250 460 250 450 250 c 128,-1,35
 440 250 440 250 432.5 264.5 c 128,-1,36
 425 279 425 279 425 300 c 0,37,38
 425 309.798363095 425 309.798363095 424.724609375 319.625 c 0,39,40
 420.97994961 453.01509887 420.97994961 453.01509887 373.744140625 547.48828125 c 0,41,42
 370.275324789 554.425912921 370.275324789 554.425912921 366.611328125 560.9765625 c 0,43,44
 316.802391134 650 316.802391134 650 250 650 c 0,45,46
 240 650 240 650 232.5 664.5 c 128,-1,47
 225 679 225 679 225 700 c 128,-1,48
 225 721 225 721 232.5 735.5 c 128,-1,49
 240 750 240 750 250 750 c 0,0,1
EndSplineSet
EndChar

StartChar: a
Encoding: 97 97 65
Width: 500
Flags: W
LayerCount: 2
Fore
SplineSet
250 750 m 0,0,1
 310.42122453 749.877536227 310.42122453 749.877536227 361.838144266 690.658662308 c 128,-1,2
 413.255064001 631.43978839 413.255064001 631.43978839 443.522532818 529.545764775 c 128,-1,3
 473.790001634 427.651741159 473.790001634 427.651741159 474.744140625 307.125 c 0,4,5
 475 303.57550578 475 303.57550578 475 300 c 0,6,7
 475 279 475 279 467.5 264.5 c 128,-1,8
 460 250 460 250 450 250 c 128,-1,9
 440 250 440 250 432.5 264.5 c 128,-1,10
 425 279 425 279 425 300 c 0,11,12
 425 445 425 445 373.5 547.5 c 128,-1,13
 322 650 322 650 250 650 c 0,14,15
 191.88667949 649.671012924 191.88667949 649.671012924 145.416015625 579.880859375 c 1,16,-1
 175.980577257 518.747992622 l 0,17,18
 206.545138889 457.615125868 206.545138889 457.615125868 237.110568576 396.483778212 c 128,-1,19
 267.675998264 335.352430556 267.675998264 335.352430556 267.677734375 335.35546875 c 1,20,21
 275 320.7109375 275 320.7109375 275 300 c 0,22,23
 275 279 275 279 267.5 264.5 c 128,-1,24
 260 250 260 250 250 250 c 0,25,26
 239.659860931 250.074790397 239.659860931 250.074790397 232.3671875 264.734375 c 1,27,-1
 232.322265625 264.64453125 l 1,28,-1
 109.986328125 509.31640625 l 1,29,30
 83.2274062072 438.022872939 83.2274062072 438.022872939 76.78125 349.810546875 c 0,31,32
 75 325.03108481 75 325.03108481 75 300 c 0,33,34
 75 279 75 279 67.5 264.5 c 128,-1,35
 60 250 60 250 50 250 c 128,-1,36
 40 250 40 250 32.5 264.5 c 128,-1,37
 25 279 25 279 25 300 c 0,38,39
 25.2236170122 310.779782677 25.2236170122 310.779782677 25.708984375 321.595703125 c 0,40,41
 25.9775654394 340.999963039 25.9775654394 340.999963039 27.078125 360.265625 c 0,42,43
 27.9208254734 369.793600931 27.9208254734 369.793600931 28.95703125 379.15625 c 0,44,45
 30.5038115145 398.670265919 30.5038115145 398.670265919 32.90625 417.880859375 c 0,46,47
 34.2537391096 426.368863919 34.2537391096 426.368863919 35.7734375 434.775390625 c 0,48,49
 38.6617957328 454.405637922 38.6617957328 454.405637922 42.42578125 473.419921875 c 0,50,51
 44.3040163984 481.433920519 44.3040163984 481.433920519 46.34765625 489.328125 c 0,52,53
 50.4961020535 508.082618148 50.4961020535 508.082618148 55.482421875 526.009765625 c 0,54,55
 57.8463201969 533.395121631 57.8463201969 533.395121631 60.349609375 540.58203125 c 0,56,57
 65.7071112251 558.190879243 65.7071112251 558.190879243 71.849609375 574.75 c 0,58,59
 74.5994020303 581.270648024 74.5994020303 581.270648024 77.513671875 587.66796875 c 0,60,61
 83.6174625194 602.771869944 83.6174625194 602.771869944 90.357421875 616.78515625 c 0,62,63
 90.6325840381 617.529001218 90.6325840381 617.529001218 90.900390625 618.19921875 c 0,64,-1
 91.166015625 618.6171875 l 0,65,-1
 91.25390625 618.81640625 l 0,66,67
 94.3814102677 624.515995162 94.3814102677 624.515995162 97.62109375 629.986328125 c 0,68,69
 105.17406106 644.455318184 105.17406106 644.455318184 113.35546875 657.447265625 c 0,70,71
 116.894183723 662.373625766 116.894183723 662.373625766 120.5078125 667.00390625 c 0,72,73
 128.879217342 679.292314408 128.879217342 679.292314408 137.783203125 689.990234375 c 0,74,75
 141.77002289 694.122751872 141.77002289 694.122751872 145.83984375 697.935546875 c 0,76,77
 154.779499554 707.747328228 154.779499554 707.747328228 164.123046875 715.900390625 c 0,78,79
 168.572019717 719.130892702 168.572019717 719.130892702 173.08203125 721.982421875 c 0,80,81
 182.363457673 729.189927519 182.363457673 729.189927519 191.919921875 734.7265625 c 0,82,83
 197.471446083 737.230075016 197.471446083 737.230075016 203.078125 739.16796875 c 0,84,85
 211.830172552 743.371918371 211.830172552 743.371918371 220.71484375 746.162109375 c 0,86,87
 235.300162935 749.995695089 235.300162935 749.995695089 250 750 c 0,0,1
EndSplineSet
EndChar

StartChar: b
Encoding: 98 98 66
Width: 500
Flags: W
LayerCount: 2
Fore
SplineSet
264.0546875 748.78125 m 0,0,1
 346.829287668 738.299979166 346.829287668 738.299979166 406.3984375 622.875 c 0,2,3
 407.835519154 620.725942866 407.835519154 620.725942866 409.099609375 618.19921875 c 0,4,5
 416.42578125 603.546875 416.42578125 603.546875 416.42578125 582.836914062 c 128,-1,6
 416.42578125 562.140625 416.42578125 562.140625 409.099609375 547.48828125 c 128,-1,7
 401.773925781 532.836914062 401.773925781 532.836914062 391.41796875 532.836914062 c 128,-1,8
 381.069824219 532.836914062 381.069824219 532.836914062 373.744140625 547.48828125 c 0,9,10
 349.520364705 595.936579885 349.520364705 595.936579885 317.53989417 622.993680568 c 128,-1,11
 285.559423634 650.05078125 285.559423634 650.05078125 249.975585938 650.05078125 c 128,-1,12
 214.397203326 650.05078125 214.397203326 650.05078125 182.440656743 622.9981555 c 128,-1,13
 150.484110159 595.945529751 150.484110159 595.945529751 126.255859375 547.48828125 c 0,14,15
 74.974609375 444.92578125 74.974609375 444.92578125 74.974609375 299.951171875 c 128,-1,16
 74.974609375 155.07421875 74.974609375 155.07421875 126.255859375 52.51171875 c 0,17,18
 150.479635295 4.06342011494 150.479635295 4.06342011494 182.46010583 -22.9936805675 c 128,-1,19
 214.440576366 -50.05078125 214.440576366 -50.05078125 250.024414062 -50.05078125 c 128,-1,20
 285.602796674 -50.05078125 285.602796674 -50.05078125 317.559343257 -22.9981555004 c 128,-1,21
 349.515889841 4.05447024929 349.515889841 4.05447024929 373.744140625 52.51171875 c 0,22,23
 381.069824219 67.1630859375 381.069824219 67.1630859375 391.42578125 67.1630859375 c 128,-1,24
 401.773925781 67.1630859375 401.773925781 67.1630859375 409.099609375 52.51171875 c 128,-1,25
 416.42578125 37.859375 416.42578125 37.859375 416.42578125 17.1494140625 c 128,-1,26
 416.42578125 -3.546875 416.42578125 -3.546875 409.099609375 -18.19921875 c 1,27,-1
 409.09765625 -18.1953125 l 0,28,29
 408.662477617 -19.0685904286 408.662477617 -19.0685904286 408.2109375 -19.890625 c 2,30,-1
 408.1953125 -19.91015625 l 1,31,32
 377.105305042 -81.4053560803 377.105305042 -81.4053560803 336.235216433 -115.711955384 c 128,-1,33
 295.365127824 -150.018554688 295.365127824 -150.018554688 249.947265625 -150.018554688 c 0,34,35
 204.211618576 -150.018554688 204.211618576 -150.018554688 163.13065653 -115.248394668 c 128,-1,36
 122.049694485 -80.4782346482 122.049694485 -80.4782346482 90.900390625 -18.1953125 c 0,37,38
 24.96875 113.66796875 24.96875 113.66796875 24.96875 300.064453125 c 128,-1,39
 24.96875 486.3359375 24.96875 486.3359375 90.900390625 618.19921875 c 0,40,41
 122.050470261 680.37311007 122.050470261 680.37311007 163.014328141 715.031769879 c 128,-1,42
 203.97818602 749.690429688 203.97818602 749.690429688 249.650390625 749.690429688 c 0,43,44
 256.879818024 749.690429688 256.879818024 749.690429688 264.0546875 748.78125 c 0,0,1
104.66796875 632.2265625 m 0,45,46
 106.634460449 632.849609375 106.634460449 632.849609375 108.58203125 632.849609375 c 0,47,48
 118.929873602 632.849609375 118.929873602 632.849609375 126.255859375 618.19921875 c 2,49,-1
 196.966796875 476.774305556 l 0,50,51
 267.677734375 335.349392361 267.677734375 335.349392361 338.388671875 193.927517361 c 128,-1,52
 409.099609375 52.5056423611 409.099609375 52.5056423611 409.099609375 52.51171875 c 1,53,54
 416.42578125 37.859375 416.42578125 37.859375 416.42578125 17.1494140625 c 128,-1,55
 416.42578125 -3.546875 416.42578125 -3.546875 409.099609375 -18.19921875 c 128,-1,56
 401.773925781 -32.8505859375 401.773925781 -32.8505859375 391.41796875 -32.8505859375 c 128,-1,57
 381.069824219 -32.8505859375 381.069824219 -32.8505859375 373.744140625 -18.19921875 c 2,58,-1
 303.033203125 123.225694444 l 0,59,60
 232.322265625 264.650607639 232.322265625 264.650607639 161.611328125 406.072482639 c 128,-1,61
 90.900390625 547.494357639 90.900390625 547.494357639 90.900390625 547.48828125 c 1,62,63
 83.57421875 562.140625 83.57421875 562.140625 83.57421875 582.850585938 c 128,-1,64
 83.57421875 603.546875 83.57421875 603.546875 90.900390625 618.19921875 c 0,65,66
 96.6451240435 629.687147506 96.6451240435 629.687147506 104.66796875 632.2265625 c 0,45,46
EndSplineSet
EndChar

StartChar: c
Encoding: 99 99 67
Width: 500
Flags: W
LayerCount: 2
Fore
SplineSet
234.634765625 748.90625 m 0,0,1
 242.766875756 750.021484375 242.766875756 750.021484375 250.05078125 750.021484375 c 0,2,3
 295.787232945 750.021484375 295.787232945 750.021484375 336.868804211 715.250536497 c 128,-1,4
 377.950375478 680.479588619 377.950375478 680.479588619 409.099609375 618.1953125 c 0,5,6
 475.03125 486.33203125 475.03125 486.33203125 475.03125 299.935546875 c 128,-1,7
 475.03125 113.6640625 475.03125 113.6640625 409.099609375 -18.19921875 c 0,8,9
 377.969893159 -80.331719115 377.969893159 -80.331719115 336.888745279 -115.017910339 c 128,-1,10
 295.8075974 -149.704101562 295.8075974 -149.704101562 250.111328125 -149.704101562 c 0,11,12
 205.315989586 -149.704101562 205.315989586 -149.704101562 164.949611638 -116.305495474 c 128,-1,13
 124.583233691 -82.9068893864 124.583233691 -82.9068893864 93.6015625 -22.875 c 0,14,15
 92.1644808456 -20.7259428661 92.1644808456 -20.7259428661 90.900390625 -18.19921875 c 0,16,17
 83.57421875 -3.546875 83.57421875 -3.546875 83.57421875 17.1630859375 c 128,-1,18
 83.57421875 37.859375 83.57421875 37.859375 90.900390625 52.51171875 c 128,-1,19
 98.2260742188 67.1630859375 98.2260742188 67.1630859375 108.58203125 67.1630859375 c 128,-1,20
 118.930175781 67.1630859375 118.930175781 67.1630859375 126.255859375 52.51171875 c 0,21,22
 150.479635295 4.06342011494 150.479635295 4.06342011494 182.46010583 -22.9936805675 c 128,-1,23
 214.440576366 -50.05078125 214.440576366 -50.05078125 250.024414062 -50.05078125 c 128,-1,24
 285.602796674 -50.05078125 285.602796674 -50.05078125 317.559343257 -22.9981555004 c 128,-1,25
 349.515889841 4.05447024929 349.515889841 4.05447024929 373.744140625 52.51171875 c 0,26,27
 425.025390625 155.07421875 425.025390625 155.07421875 425.025390625 300.048828125 c 128,-1,28
 425.025390625 444.92578125 425.025390625 444.92578125 373.744140625 547.48828125 c 0,29,30
 349.520364705 595.936579885 349.520364705 595.936579885 317.53989417 622.993680568 c 128,-1,31
 285.559423634 650.05078125 285.559423634 650.05078125 249.975585938 650.05078125 c 128,-1,32
 214.397203326 650.05078125 214.397203326 650.05078125 182.440656743 622.9981555 c 128,-1,33
 150.484110159 595.945529751 150.484110159 595.945529751 126.255859375 547.48828125 c 0,34,35
 118.930175781 532.836914062 118.930175781 532.836914062 108.57421875 532.836914062 c 128,-1,36
 98.2260742188 532.836914062 98.2260742188 532.836914062 90.900390625 547.48828125 c 128,-1,37
 83.57421875 562.140625 83.57421875 562.140625 83.57421875 582.850585938 c 128,-1,38
 83.57421875 603.546875 83.57421875 603.546875 90.900390625 618.19921875 c 1,39,-1
 90.90234375 618.1953125 l 0,40,41
 91.3375223833 619.068590429 91.3375223833 619.068590429 91.7890625 619.890625 c 2,42,-1
 91.8046875 619.91015625 l 1,43,44
 120.138022139 675.954270175 120.138022139 675.954270175 156.890076105 709.620161671 c 128,-1,45
 193.64213007 743.286053168 193.64213007 743.286053168 234.634765625 748.90625 c 0,0,1
104.66796875 632.2265625 m 0,46,47
 106.634460449 632.849609375 106.634460449 632.849609375 108.58203125 632.849609375 c 0,48,49
 118.929873602 632.849609375 118.929873602 632.849609375 126.255859375 618.19921875 c 2,50,-1
 196.966796875 476.774305556 l 0,51,52
 267.677734375 335.349392361 267.677734375 335.349392361 338.388671875 193.927517361 c 128,-1,53
 409.099609375 52.5056423611 409.099609375 52.5056423611 409.099609375 52.51171875 c 1,54,55
 416.42578125 37.859375 416.42578125 37.859375 416.42578125 17.1494140625 c 128,-1,56
 416.42578125 -3.546875 416.42578125 -3.546875 409.099609375 -18.19921875 c 128,-1,57
 401.773925781 -32.8505859375 401.773925781 -32.8505859375 391.41796875 -32.8505859375 c 128,-1,58
 381.069824219 -32.8505859375 381.069824219 -32.8505859375 373.744140625 -18.19921875 c 2,59,-1
 303.033203125 123.225694444 l 0,60,61
 232.322265625 264.650607639 232.322265625 264.650607639 161.611328125 406.072482639 c 128,-1,62
 90.900390625 547.494357639 90.900390625 547.494357639 90.900390625 547.48828125 c 1,63,64
 83.57421875 562.140625 83.57421875 562.140625 83.57421875 582.850585938 c 128,-1,65
 83.57421875 603.546875 83.57421875 603.546875 90.900390625 618.19921875 c 0,66,67
 96.6451240435 629.687147506 96.6451240435 629.687147506 104.66796875 632.2265625 c 0,46,47
EndSplineSet
EndChar

StartChar: d
Encoding: 100 100 68
Width: 500
Flags: W
LayerCount: 2
Fore
SplineSet
108.578125 632.84375 m 128,-1,1
 118.93359375 632.84375 118.93359375 632.84375 126.255859375 618.19921875 c 128,-1,2
 133.58203125 603.546875 133.58203125 603.546875 133.58203125 582.836914062 c 128,-1,3
 133.58203125 562.140625 133.58203125 562.140625 126.255859375 547.48828125 c 0,4,5
 74.974609375 444.92578125 74.974609375 444.92578125 74.974609375 299.951171875 c 128,-1,6
 74.974609375 155.07421875 74.974609375 155.07421875 126.255859375 52.51171875 c 0,7,8
 150.479635295 4.06342011494 150.479635295 4.06342011494 182.46010583 -22.9936805675 c 128,-1,9
 214.440576366 -50.05078125 214.440576366 -50.05078125 250.024414062 -50.05078125 c 128,-1,10
 285.602796674 -50.05078125 285.602796674 -50.05078125 317.559343257 -22.9981555004 c 128,-1,11
 349.515889841 4.05447024929 349.515889841 4.05447024929 373.744140625 52.51171875 c 0,12,13
 425.025390625 155.07421875 425.025390625 155.07421875 425.025390625 300.048828125 c 128,-1,14
 425.025390625 444.92578125 425.025390625 444.92578125 373.744140625 547.48828125 c 0,15,16
 366.41796875 562.140625 366.41796875 562.140625 366.41796875 582.850585938 c 128,-1,17
 366.41796875 603.546875 366.41796875 603.546875 373.744140625 618.19921875 c 128,-1,18
 381.069824219 632.850585938 381.069824219 632.850585938 391.42578125 632.850585938 c 128,-1,19
 401.773925781 632.850585938 401.773925781 632.850585938 409.099609375 618.19921875 c 1,20,-1
 409.09765625 618.1953125 l 0,21,22
 409.527247848 617.340439589 409.527247848 617.340439589 409.9453125 616.421875 c 2,23,-1
 409.955078125 616.390625 l 1,24,25
 475.008789062 484.837494882 475.008789062 484.837494882 475.008789062 299.895507812 c 0,26,27
 475.008789062 113.657826807 475.008789062 113.657826807 409.09765625 -18.19921875 c 0,28,29
 377.952606624 -80.4885712074 377.952606624 -80.4885712074 336.835114372 -115.275535604 c 128,-1,30
 295.71762212 -150.0625 295.71762212 -150.0625 249.967773438 -150.0625 c 128,-1,31
 204.224907271 -150.0625 204.224907271 -150.0625 163.138037716 -115.281263445 c 128,-1,32
 122.051168161 -80.5000268902 122.051168161 -80.5000268902 90.900390625 -18.19921875 c 0,33,34
 25.1474609375 113.573716961 25.1474609375 113.573716961 25.1474609375 299.776367188 c 0,35,36
 25.1474609375 481.886193436 25.1474609375 481.886193436 88.5625 612.796875 c 0,37,38
 89.634139181 615.665257047 89.634139181 615.665257047 90.900390625 618.19921875 c 0,39,0
 98.22265625 632.84375 98.22265625 632.84375 108.578125 632.84375 c 128,-1,1
104.66796875 632.2265625 m 0,40,41
 106.634460449 632.849609375 106.634460449 632.849609375 108.58203125 632.849609375 c 0,42,43
 118.929873602 632.849609375 118.929873602 632.849609375 126.255859375 618.19921875 c 2,44,-1
 196.966796875 476.774305556 l 0,45,46
 267.677734375 335.349392361 267.677734375 335.349392361 338.388671875 193.927517361 c 128,-1,47
 409.099609375 52.5056423611 409.099609375 52.5056423611 409.099609375 52.51171875 c 1,48,49
 416.42578125 37.859375 416.42578125 37.859375 416.42578125 17.1494140625 c 128,-1,50
 416.42578125 -3.546875 416.42578125 -3.546875 409.099609375 -18.19921875 c 128,-1,51
 401.773925781 -32.8505859375 401.773925781 -32.8505859375 391.41796875 -32.8505859375 c 128,-1,52
 381.069824219 -32.8505859375 381.069824219 -32.8505859375 373.744140625 -18.19921875 c 2,53,-1
 303.033203125 123.225694444 l 0,54,55
 232.322265625 264.650607639 232.322265625 264.650607639 161.611328125 406.072482639 c 128,-1,56
 90.900390625 547.494357639 90.900390625 547.494357639 90.900390625 547.48828125 c 1,57,58
 83.57421875 562.140625 83.57421875 562.140625 83.57421875 582.850585938 c 128,-1,59
 83.57421875 603.546875 83.57421875 603.546875 90.900390625 618.19921875 c 0,60,61
 96.6451240435 629.687147506 96.6451240435 629.687147506 104.66796875 632.2265625 c 0,40,41
EndSplineSet
EndChar

StartChar: e
Encoding: 101 101 69
Width: 500
Flags: W
LayerCount: 2
Fore
SplineSet
106.794921875 632.71484375 m 0,0,1
 107.74137931 632.849609375 107.74137931 632.849609375 108.58203125 632.849609375 c 0,2,3
 118.929873602 632.849609375 118.929873602 632.849609375 126.255859375 618.19921875 c 2,4,-1
 161.610460069 547.486762153 l 0,5,6
 196.965060764 476.774305556 196.965060764 476.774305556 232.320529514 406.063368056 c 128,-1,7
 267.675998264 335.352430556 267.675998264 335.352430556 267.677734375 335.35546875 c 1,8,9
 275 320.7109375 275 320.7109375 275 300 c 0,10,11
 275 279 275 279 267.5 264.5 c 128,-1,12
 260 250 260 250 250 250 c 0,13,14
 239.659860931 250.074790397 239.659860931 250.074790397 232.3671875 264.734375 c 1,15,-1
 232.322265625 264.64453125 l 1,16,-1
 196.966796875 335.358506944 l 0,17,18
 161.611328125 406.072482639 161.611328125 406.072482639 126.255859375 476.783420139 c 128,-1,19
 90.900390625 547.494357639 90.900390625 547.494357639 90.900390625 547.48828125 c 1,20,21
 83.57421875 562.140625 83.57421875 562.140625 83.57421875 582.850585938 c 128,-1,22
 83.57421875 603.546875 83.57421875 603.546875 90.900390625 618.19921875 c 0,23,24
 97.4930486302 631.38453476 97.4930486302 631.38453476 106.794921875 632.71484375 c 0,0,1
EndSplineSet
EndChar

StartChar: f
Encoding: 102 102 70
Width: 500
Flags: W
LayerCount: 2
Fore
SplineSet
233.94921875 748.85546875 m 0,0,1
 242.404418635 750.064453125 242.404418635 750.064453125 250.03125 750.064453125 c 0,2,3
 295.774731949 750.064453125 295.774731949 750.064453125 336.861739329 715.282698603 c 128,-1,4
 377.948746709 680.500944081 377.948746709 680.500944081 409.099609375 618.19921875 c 0,5,6
 474.852539062 486.426283039 474.852539062 486.426283039 474.852539062 300.223632812 c 0,7,8
 474.852539062 118.113806564 474.852539062 118.113806564 411.4375 -12.796875 c 0,9,10
 410.365860819 -15.665257047 410.365860819 -15.665257047 409.099609375 -18.19921875 c 0,11,12
 401.773925781 -32.8505859375 401.773925781 -32.8505859375 391.41796875 -32.8505859375 c 128,-1,13
 381.069824219 -32.8505859375 381.069824219 -32.8505859375 373.744140625 -18.19921875 c 128,-1,14
 366.41796875 -3.546875 366.41796875 -3.546875 366.41796875 17.1630859375 c 128,-1,15
 366.41796875 37.859375 366.41796875 37.859375 373.744140625 52.51171875 c 0,16,17
 425.025390625 155.07421875 425.025390625 155.07421875 425.025390625 300.048828125 c 128,-1,18
 425.025390625 444.92578125 425.025390625 444.92578125 373.744140625 547.48828125 c 0,19,20
 349.520364705 595.936579885 349.520364705 595.936579885 317.53989417 622.993680568 c 128,-1,21
 285.559423634 650.05078125 285.559423634 650.05078125 249.975585938 650.05078125 c 128,-1,22
 214.397203326 650.05078125 214.397203326 650.05078125 182.440656743 622.9981555 c 128,-1,23
 150.484110159 595.945529751 150.484110159 595.945529751 126.255859375 547.48828125 c 0,24,25
 74.974609375 444.92578125 74.974609375 444.92578125 74.974609375 299.951171875 c 128,-1,26
 74.974609375 155.07421875 74.974609375 155.07421875 126.255859375 52.51171875 c 0,27,28
 133.58203125 37.859375 133.58203125 37.859375 133.58203125 17.1494140625 c 128,-1,29
 133.58203125 -3.546875 133.58203125 -3.546875 126.255859375 -18.19921875 c 128,-1,30
 118.930175781 -32.8505859375 118.930175781 -32.8505859375 108.57421875 -32.8505859375 c 128,-1,31
 98.2260742188 -32.8505859375 98.2260742188 -32.8505859375 90.900390625 -18.19921875 c 1,32,-1
 90.90234375 -18.1953125 l 0,33,34
 90.4727521525 -17.3404395885 90.4727521525 -17.3404395885 90.0546875 -16.421875 c 2,35,-1
 90.044921875 -16.390625 l 1,36,37
 24.9912109375 115.162505118 24.9912109375 115.162505118 24.9912109375 300.104492188 c 0,38,39
 24.9912109375 486.342173193 24.9912109375 486.342173193 90.90234375 618.19921875 c 0,40,41
 119.187289267 674.769109783 119.187289267 674.769109783 156.004490218 708.870379175 c 128,-1,42
 192.821691169 742.971648567 192.821691169 742.971648567 233.94921875 748.85546875 c 0,0,1
EndSplineSet
EndChar

